<svg width="24" height="25" viewBox="0 0 24 25" fill="none" xmlns="http://www.w3.org/2000/svg">
<path fill-rule="evenodd" clip-rule="evenodd" d="M20 8.35938H17V4.35938H3C1.9 4.35938 1 5.25937 1 6.35938V17.3594H3C3 19.0194 4.34 20.3594 6 20.3594C7.66 20.3594 9 19.0194 9 17.3594H15C15 19.0194 16.34 20.3594 18 20.3594C19.66 20.3594 21 19.0194 21 17.3594H23V12.3594L20 8.35938ZM19.5 9.85938L21.46 12.3594H17V9.85938H19.5ZM5 17.3594C5 17.9094 5.45 18.3594 6 18.3594C6.55 18.3594 7 17.9094 7 17.3594C7 16.8094 6.55 16.3594 6 16.3594C5.45 16.3594 5 16.8094 5 17.3594ZM8.22 15.3594C7.67 14.7494 6.89 14.3594 6 14.3594C5.11 14.3594 4.33 14.7494 3.78 15.3594H3V6.35938H15V15.3594H8.22ZM17 17.3594C17 17.9094 17.45 18.3594 18 18.3594C18.55 18.3594 19 17.9094 19 17.3594C19 16.8094 18.55 16.3594 18 16.3594C17.45 16.3594 17 16.8094 17 17.3594Z" fill="#25005A"/>
</svg>
