<svg width="15" height="15" viewBox="0 0 15 15" fill="none" xmlns="http://www.w3.org/2000/svg">
<path d="M6.88775 0.90625C6.73469 0.90625 6.58163 0.976721 6.42857 1.04719L0.382653 4.14792C0.153061 4.28886 0 4.50027 0 4.78216V11.1245C0 11.4064 0.153061 11.6178 0.382653 11.7588L6.42857 14.8595C6.58163 14.93 6.73469 15.0005 6.88775 15.0005C7.04082 15.0005 7.19388 14.93 7.34694 14.8595L8.03571 14.5072C7.80612 14.0843 7.72959 13.591 7.65306 13.0977V8.37618L12.2449 5.98016V8.65806C12.7806 8.65806 13.3163 8.72853 13.7755 8.86947V4.78216C13.7755 4.50027 13.6224 4.28886 13.3929 4.14792L7.34694 1.04719C7.19388 0.976721 7.04082 0.90625 6.88775 0.90625ZM6.88775 2.45661L11.4796 4.78216L9.94898 5.55734L5.43367 3.16132L6.88775 2.45661ZM3.90306 3.9365L8.41837 6.40299L6.88775 7.17817L2.29592 4.78216L3.90306 3.9365ZM1.53061 5.98016L6.12245 8.37618V13.0977L1.53061 10.7017V5.98016ZM14.0051 10.6312L11.25 13.1682L10.0255 12.0407L9.18367 12.8863L11.3265 15.0005L15 11.6178L14.0051 10.6312Z" fill="white"/>
</svg>
