<svg width="109" height="82" viewBox="0 0 109 82" fill="none" xmlns="http://www.w3.org/2000/svg">
<rect x="0.313194" y="13.1989" width="108.316" height="68.4879" rx="7.20347" stroke="url(#paint0_linear_64525_24080)" stroke-width="0.626389" stroke-dasharray="1.25 1.25"/>
<path d="M9.02229 70.247C8.96606 70.6593 8.96606 71.0623 9.02229 71.4559C9.08789 71.8401 9.21909 72.1822 9.41589 72.4821C9.62206 72.782 9.88914 73.0256 10.2171 73.213C10.5451 73.3911 10.9341 73.4801 11.3839 73.4801C11.8431 73.4801 12.2742 73.3958 12.6771 73.2271C13.0801 73.0584 13.4362 72.8288 13.7455 72.5383C14.0641 72.2384 14.3312 71.8917 14.5467 71.4981C14.7623 71.1045 14.9029 70.6874 14.9685 70.247C15.0341 69.8346 15.0341 69.4364 14.9685 69.0521C14.9029 68.6585 14.7717 68.3118 14.5749 68.0119C14.3781 67.7026 14.1157 67.459 13.7877 67.2809C13.4597 67.0935 13.0661 66.9998 12.6069 66.9998C12.1477 66.9998 11.7166 67.0841 11.3136 67.2528C10.9106 67.4215 10.5498 67.6558 10.2312 67.9557C9.92194 68.2556 9.65954 68.6023 9.444 68.9959C9.23783 69.3895 9.09726 69.8065 9.02229 70.247ZM6.92777 70.247C7.04023 69.5254 7.26983 68.8553 7.61657 68.2368C7.96331 67.6183 8.39909 67.0748 8.92389 66.6062C9.44869 66.1376 10.0391 65.7768 10.6951 65.5238C11.3605 65.2614 12.0633 65.1302 12.8037 65.1302C13.5346 65.1302 14.1859 65.2661 14.7576 65.5378C15.3293 65.8002 15.8025 66.1704 16.1774 66.6484C16.5616 67.1169 16.8287 67.6605 16.9786 68.279C17.1379 68.8975 17.1661 69.5535 17.063 70.247C16.9505 70.9592 16.7209 71.6293 16.3742 72.2572C16.0368 72.885 15.6057 73.438 15.0809 73.9159C14.5561 74.3845 13.961 74.7546 13.2957 75.0264C12.6303 75.2982 11.9227 75.4341 11.173 75.4341C10.4327 75.4341 9.77669 75.2935 9.20503 75.0124C8.63337 74.7312 8.16011 74.3517 7.78526 73.8737C7.4104 73.3864 7.148 72.8335 6.99806 72.215C6.85749 71.5871 6.83406 70.9311 6.92777 70.247ZM22.3075 71.231C22.3356 70.9967 22.3309 70.7812 22.2934 70.5844C22.2653 70.3876 22.1904 70.2282 22.0685 70.1064C21.9467 69.9752 21.7546 69.9096 21.4922 69.9096C21.2485 69.9096 21.0189 69.9658 20.8034 70.0783C20.5972 70.1814 20.4285 70.3313 20.2973 70.5281C20.1661 70.7156 20.0818 70.9358 20.0443 71.1888L19.3555 75.167H17.5562L18.6667 68.7007H20.466L20.3254 69.6285C20.5504 69.2911 20.8268 69.0287 21.1548 68.8413C21.4828 68.6538 21.867 68.5601 22.3075 68.5601C22.8229 68.5508 23.2259 68.6585 23.5164 68.8834C23.8069 69.1084 24.0037 69.4082 24.1068 69.7831C24.2193 70.1486 24.2427 70.5656 24.1771 71.0342L23.4602 75.167H21.6187L22.3075 71.231ZM35.2791 68.7007H37.0503L35.9397 75.167H34.1826L35.2791 68.7007ZM29.5297 71.9338C29.614 71.2872 29.8249 70.7109 30.1623 70.2048C30.509 69.6988 30.9354 69.2958 31.4415 68.9959C31.9569 68.696 32.5051 68.5508 33.0861 68.5601C33.5266 68.5601 33.8968 68.6538 34.1967 68.8413C34.4965 69.0287 34.7355 69.2817 34.9136 69.6004C35.0916 69.9096 35.2088 70.2657 35.265 70.6687C35.3212 71.0717 35.3212 71.4934 35.265 71.9338C35.2088 72.393 35.0869 72.8288 34.8995 73.2412C34.7215 73.6441 34.4919 74.0002 34.2107 74.3095C33.9389 74.6188 33.6203 74.8624 33.2548 75.0405C32.8893 75.2092 32.4911 75.2935 32.06 75.2935C31.4696 75.2935 30.9729 75.1436 30.5699 74.8437C30.1669 74.5344 29.8717 74.1268 29.6843 73.6207C29.4969 73.1053 29.4453 72.543 29.5297 71.9338ZM31.3852 71.9338C31.3384 72.2525 31.3571 72.557 31.4415 72.8476C31.5352 73.1287 31.6898 73.3536 31.9053 73.5223C32.1209 73.691 32.3927 73.78 32.7207 73.7894C32.9456 73.7894 33.1658 73.7425 33.3813 73.6488C33.5969 73.5551 33.7937 73.4239 33.9717 73.2552C34.1592 73.0772 34.3138 72.8757 34.4356 72.6508C34.5668 72.4258 34.6559 72.1869 34.7027 71.9338C34.7402 71.6808 34.7355 71.4465 34.6887 71.231C34.6512 71.0154 34.5762 70.8233 34.4637 70.6546C34.3513 70.4766 34.2107 70.336 34.042 70.2329C33.8733 70.1298 33.6765 70.0736 33.4516 70.0642C33.1236 70.0549 32.8097 70.1345 32.5098 70.3032C32.2193 70.4719 31.9709 70.7015 31.7648 70.992C31.568 71.2732 31.4415 71.5871 31.3852 71.9338ZM39.4819 64.2024H41.2953L39.3976 75.167H37.6264L39.4819 64.2024ZM42.9962 64.2024H44.8096L42.9119 75.167H41.1407L42.9962 64.2024ZM50.106 78.2455L48.2927 78.2596L49.9514 68.7007H51.7226L50.106 78.2455ZM56.3474 71.9338C56.2631 72.5805 56.0475 73.1662 55.7008 73.691C55.3634 74.2064 54.937 74.6141 54.4216 74.914C53.9155 75.2138 53.3673 75.3638 52.7769 75.3638C52.3364 75.3638 51.9663 75.2701 51.6664 75.0826C51.3665 74.8858 51.1322 74.6281 50.9635 74.3095C50.8042 73.9815 50.7011 73.6113 50.6543 73.199C50.6074 72.7866 50.6121 72.3649 50.6683 71.9338C50.7339 71.4746 50.8511 71.0389 51.0198 70.6265C51.1978 70.2142 51.418 69.8487 51.6804 69.5301C51.9522 69.2114 52.2662 68.9631 52.6223 68.785C52.9878 68.5976 53.3907 68.5039 53.8312 68.5039C54.4216 68.5039 54.9183 68.6585 55.3212 68.9678C55.7242 69.277 56.0147 69.6941 56.1928 70.2189C56.3708 70.7343 56.4224 71.306 56.3474 71.9338ZM54.4919 71.9338C54.5481 71.5965 54.5294 71.2966 54.4356 71.0342C54.3419 70.7624 54.1826 70.5469 53.9577 70.3876C53.7422 70.2189 53.4751 70.1298 53.1564 70.1205C52.9315 70.1205 52.7113 70.1673 52.4958 70.261C52.2802 70.3454 52.0787 70.4719 51.8913 70.6406C51.7132 70.8093 51.5586 71.0061 51.4274 71.231C51.3056 71.4465 51.2212 71.6808 51.1744 71.9338C51.1463 72.1869 51.151 72.4212 51.1884 72.6367C51.2353 72.8429 51.315 73.0303 51.4274 73.199C51.5399 73.3583 51.6804 73.4848 51.8491 73.5785C52.0178 73.6722 52.2146 73.7238 52.4395 73.7332C52.7769 73.7425 53.0862 73.6676 53.3673 73.5082C53.6578 73.3489 53.9062 73.1334 54.1123 72.8616C54.3185 72.5805 54.445 72.2712 54.4919 71.9338ZM59.9599 68.7007L58.8494 75.167H57.0782L58.1887 68.7007H59.9599ZM61.5343 70.5844C61.4218 70.4906 61.3047 70.411 61.1828 70.3454C61.0704 70.2798 60.9345 70.247 60.7752 70.247C60.5315 70.2376 60.316 70.3079 60.1286 70.4578C59.9411 70.5984 59.7865 70.7812 59.6647 71.0061C59.5522 71.231 59.4772 71.4746 59.4398 71.737L59.0462 71.2169C59.1305 70.7765 59.2898 70.3548 59.5241 69.9518C59.7678 69.5394 60.0536 69.2021 60.3816 68.9397C60.719 68.6773 61.0751 68.5461 61.4499 68.5461C61.6842 68.5461 61.8904 68.5929 62.0684 68.6866C62.2559 68.7804 62.4199 68.9116 62.5604 69.0802L61.5343 70.5844ZM62.4369 71.9338C62.5306 71.2778 62.7649 70.6968 63.1398 70.1908C63.5146 69.6847 63.9832 69.2864 64.5455 68.9959C65.1171 68.7054 65.7356 68.5601 66.401 68.5601C67.0664 68.5601 67.638 68.7101 68.116 69.01C68.6033 69.3098 68.9641 69.7175 69.1984 70.2329C69.442 70.739 69.5217 71.306 69.4374 71.9338C69.353 72.5805 69.1234 73.1568 68.7486 73.6629C68.3737 74.1689 67.9004 74.5672 67.3288 74.8577C66.7665 75.1482 66.148 75.2935 65.4732 75.2935C64.8172 75.2935 64.2456 75.1482 63.7583 74.8577C63.2803 74.5578 62.9195 74.1549 62.6759 73.6488C62.4416 73.1334 62.3619 72.5617 62.4369 71.9338ZM64.2643 71.9338C64.2175 72.2431 64.2409 72.5383 64.3346 72.8194C64.4283 73.1006 64.583 73.3255 64.7985 73.4942C65.014 73.6629 65.2811 73.7519 65.5998 73.7613C65.9371 73.7613 66.2464 73.6816 66.5275 73.5223C66.818 73.3536 67.057 73.1287 67.2444 72.8476C67.4412 72.5664 67.5631 72.2618 67.6099 71.9338C67.6568 71.6058 67.6334 71.306 67.5396 71.0342C67.4459 70.7624 67.2913 70.5375 67.0758 70.3594C66.8602 70.1814 66.5884 70.0924 66.2604 70.0924C65.9418 70.083 65.6372 70.1626 65.3467 70.3313C65.0562 70.5 64.8172 70.7249 64.6298 71.0061C64.4424 71.2872 64.3206 71.5965 64.2643 71.9338ZM76.6851 64.2024H78.4985L76.6008 75.167H74.8296L76.6851 64.2024ZM70.2048 71.9338C70.2891 71.2872 70.5 70.7109 70.8374 70.2048C71.1841 69.6988 71.6105 69.2958 72.1166 68.9959C72.632 68.696 73.1802 68.5508 73.7612 68.5601C74.2017 68.5601 74.5719 68.6538 74.8718 68.8413C75.1716 69.0287 75.4106 69.2817 75.5887 69.6004C75.7667 69.9096 75.8839 70.2657 75.9401 70.6687C75.9963 71.0717 75.9963 71.4934 75.9401 71.9338C75.8839 72.393 75.762 72.8288 75.5746 73.2412C75.3966 73.6441 75.167 74.0002 74.8858 74.3095C74.614 74.6188 74.2954 74.8624 73.9299 75.0405C73.5644 75.2092 73.1662 75.2935 72.7351 75.2935C72.1447 75.2935 71.648 75.1436 71.245 74.8437C70.842 74.5344 70.5468 74.1268 70.3594 73.6207C70.172 73.1053 70.1204 72.543 70.2048 71.9338ZM72.0603 71.9338C72.0135 72.2525 72.0322 72.557 72.1166 72.8476C72.2103 73.1287 72.3649 73.3536 72.5804 73.5223C72.796 73.691 73.0678 73.78 73.3958 73.7894C73.6207 73.7894 73.8409 73.7425 74.0564 73.6488C74.272 73.5551 74.4688 73.4239 74.6468 73.2552C74.8343 73.0772 74.9889 72.8757 75.1107 72.6508C75.2419 72.4258 75.331 72.1869 75.3778 71.9338C75.4153 71.6808 75.4106 71.4465 75.3638 71.231C75.3263 71.0154 75.2513 70.8233 75.1388 70.6546C75.0264 70.4766 74.8858 70.336 74.7171 70.2329C74.5484 70.1298 74.3516 70.0736 74.1267 70.0642C73.7987 70.0549 73.4848 70.1345 73.1849 70.3032C72.8944 70.4719 72.646 70.7015 72.4399 70.992C72.2431 71.2732 72.1166 71.5871 72.0603 71.9338ZM80.5647 72.6367C80.5272 72.8616 80.5225 73.0725 80.5506 73.2693C80.5881 73.4661 80.6631 73.6301 80.7755 73.7613C80.8974 73.8831 81.0848 73.944 81.3378 73.944C81.5909 73.944 81.8205 73.8925 82.0266 73.7894C82.2328 73.6863 82.4062 73.541 82.5467 73.3536C82.6873 73.1568 82.7763 72.9319 82.8138 72.6789L83.5167 68.7007H85.316L84.1914 75.167H82.3921L82.5467 74.2252C82.3218 74.5532 82.0454 74.8156 81.7174 75.0124C81.3894 75.2092 81.0005 75.3076 80.5506 75.3076C80.0446 75.3076 79.6416 75.1998 79.3417 74.9842C79.0512 74.7593 78.8544 74.4594 78.7513 74.0846C78.6482 73.7097 78.6295 73.2927 78.6951 72.8335L79.412 68.7007H81.2394L80.5647 72.6367ZM87.8743 71.9338C87.8274 72.2712 87.8555 72.5805 87.9586 72.8616C88.0617 73.1428 88.2304 73.3677 88.4647 73.5364C88.7083 73.705 89.0035 73.7941 89.3503 73.8034C89.772 73.8128 90.1703 73.7191 90.5451 73.5223C90.9294 73.3161 91.2433 73.0725 91.487 72.7913L91.2339 74.6469C90.9622 74.8437 90.6435 75.003 90.2781 75.1248C89.9219 75.2373 89.5283 75.2935 89.0973 75.2935C88.4413 75.2935 87.8649 75.1482 87.3682 74.8577C86.8809 74.5578 86.5154 74.1549 86.2718 73.6488C86.0375 73.1334 85.9625 72.5617 86.0469 71.9338C86.1312 71.2778 86.3608 70.6968 86.7357 70.1908C87.1105 69.6847 87.5838 69.2864 88.1554 68.9959C88.7271 68.7054 89.355 68.5601 90.0391 68.5601C90.4514 68.5601 90.8263 68.6164 91.1637 68.7288C91.501 68.8413 91.7962 69.0006 92.0493 69.2068L91.7962 71.0764C91.6275 70.7577 91.3839 70.5094 91.0653 70.3313C90.756 70.1439 90.4093 70.0502 90.025 70.0502C89.6595 70.0502 89.3222 70.1392 89.0129 70.3173C88.713 70.486 88.46 70.7109 88.2538 70.992C88.057 71.2732 87.9305 71.5871 87.8743 71.9338ZM92.8463 68.7007H96.7402L96.4731 70.2329H92.5652L92.8463 68.7007ZM94.2802 66.4516H96.0373L94.5191 75.167H92.8042L94.2802 66.4516ZM97.3187 72.946C97.5343 73.1615 97.7451 73.3489 97.9513 73.5082C98.1575 73.6676 98.3683 73.7941 98.5839 73.8878C98.7994 73.9721 99.0196 74.0096 99.2445 74.0002C99.4695 74.0002 99.6569 73.9393 99.8068 73.8175C99.9661 73.6863 100.046 73.527 100.046 73.3396C100.055 73.1615 100.004 73.0162 99.8912 72.9038C99.7787 72.7913 99.6288 72.6929 99.4413 72.6086C99.2633 72.5149 99.0618 72.4258 98.8369 72.3415C98.5651 72.2384 98.3027 72.1072 98.0497 71.9479C97.806 71.7886 97.6092 71.5824 97.4593 71.3294C97.3093 71.0764 97.2437 70.7718 97.2625 70.4157C97.2906 69.994 97.4171 69.6472 97.642 69.3754C97.8763 69.1037 98.1715 68.9022 98.5276 68.771C98.8837 68.6304 99.2586 68.5601 99.6522 68.5601C100.186 68.5601 100.66 68.6632 101.072 68.8694C101.494 69.0662 101.859 69.3145 102.168 69.6144L101.311 70.7249C101.095 70.4813 100.847 70.2751 100.566 70.1064C100.285 69.9377 99.9943 69.8534 99.6944 69.8534C99.4695 69.8534 99.2867 69.9049 99.1461 70.008C99.0056 70.1017 98.9306 70.2282 98.9212 70.3876C98.9119 70.5375 98.9634 70.6687 99.0759 70.7812C99.1883 70.8842 99.3429 70.978 99.5397 71.0623C99.7365 71.1466 99.938 71.231 100.144 71.3153C100.463 71.4465 100.749 71.5965 101.002 71.7652C101.264 71.9245 101.47 72.126 101.62 72.3696C101.77 72.6133 101.836 72.9225 101.817 73.2974C101.789 73.7191 101.667 74.0893 101.452 74.4079C101.236 74.7172 100.945 74.9608 100.58 75.1389C100.224 75.3076 99.8115 75.3919 99.3429 75.3919C98.9025 75.3919 98.4948 75.331 98.12 75.2092C97.7545 75.0873 97.4218 74.9233 97.1219 74.7172C96.822 74.511 96.5549 74.2908 96.3207 74.0565L97.3187 72.946Z" fill="url(#paint1_linear_64525_24080)"/>
<path d="M7.679 32.5379C7.89433 33.0066 8.135 33.4246 8.401 33.7919C8.667 34.1593 8.97733 34.4506 9.332 34.6659C9.69933 34.8686 10.1237 34.9699 10.605 34.9699C11.0103 34.9699 11.3713 34.8876 11.688 34.7229C12.0173 34.5583 12.2707 34.3429 12.448 34.0769C12.638 33.8109 12.7457 33.5196 12.771 33.2029C12.7963 32.8103 12.7077 32.4936 12.505 32.2529C12.3023 32.0123 12.0237 31.8033 11.669 31.6259C11.3143 31.4486 10.909 31.2586 10.453 31.0559C10.1237 30.9166 9.78167 30.7393 9.427 30.5239C9.07233 30.2959 8.743 30.0299 8.439 29.7259C8.14767 29.4219 7.91333 29.0609 7.736 28.6429C7.55867 28.2249 7.48267 27.7499 7.508 27.2179C7.55867 26.4706 7.79933 25.8119 8.23 25.2419C8.67333 24.6719 9.24333 24.2286 9.94 23.9119C10.6367 23.5826 11.4093 23.4243 12.258 23.4369C13.0307 23.4369 13.6957 23.5699 14.253 23.8359C14.823 24.1019 15.298 24.4566 15.678 24.8999C16.058 25.3306 16.3557 25.8056 16.571 26.3249L14.386 27.4649C14.2467 27.1609 14.0693 26.8823 13.854 26.6289C13.6513 26.3629 13.4043 26.1539 13.113 26.0019C12.8217 25.8499 12.4543 25.7739 12.011 25.7739C11.669 25.7739 11.365 25.8309 11.099 25.9449C10.8457 26.0589 10.643 26.2173 10.491 26.4199C10.3517 26.6226 10.2693 26.8569 10.244 27.1229C10.2313 27.3763 10.2883 27.6043 10.415 27.8069C10.5417 28.0096 10.719 28.1996 10.947 28.3769C11.1877 28.5416 11.46 28.6936 11.764 28.8329C12.0807 28.9723 12.41 29.1116 12.752 29.2509C13.2967 29.4536 13.7843 29.7259 14.215 30.0679C14.6583 30.4099 15.0003 30.8279 15.241 31.3219C15.4943 31.8033 15.602 32.3859 15.564 33.0699C15.5007 33.9313 15.222 34.6849 14.728 35.3309C14.2467 35.9643 13.626 36.4646 12.866 36.8319C12.1187 37.1866 11.3143 37.3639 10.453 37.3639C9.66767 37.3513 8.952 37.1929 8.306 36.8889C7.67267 36.5849 7.128 36.1733 6.672 35.6539C6.216 35.1219 5.874 34.5393 5.646 33.9059L7.679 32.5379ZM24.6651 28.2629H27.0591L25.5581 37.0029H23.1831L24.6651 28.2629ZM16.8941 32.6329C17.0081 31.7589 17.2931 30.9799 17.7491 30.2959C18.2178 29.6119 18.7941 29.0673 19.4781 28.6619C20.1748 28.2566 20.9158 28.0603 21.7011 28.0729C22.2965 28.0729 22.7968 28.1996 23.2021 28.4529C23.6075 28.7063 23.9305 29.0483 24.1711 29.4789C24.4118 29.8969 24.5701 30.3783 24.6461 30.9229C24.7221 31.4676 24.7221 32.0376 24.6461 32.6329C24.5701 33.2536 24.4055 33.8426 24.1521 34.3999C23.9115 34.9446 23.6011 35.4259 23.2211 35.8439C22.8538 36.2619 22.4231 36.5913 21.9291 36.8319C21.4351 37.0599 20.8968 37.1739 20.3141 37.1739C19.5161 37.1739 18.8448 36.9713 18.3001 36.5659C17.7555 36.1479 17.3565 35.5969 17.1031 34.9129C16.8498 34.2163 16.7801 33.4563 16.8941 32.6329ZM19.4021 32.6329C19.3388 33.0636 19.3641 33.4753 19.4781 33.8679C19.6048 34.2479 19.8138 34.5519 20.1051 34.7799C20.3965 35.0079 20.7638 35.1283 21.2071 35.1409C21.5111 35.1409 21.8088 35.0776 22.1001 34.9509C22.3915 34.8243 22.6575 34.6469 22.8981 34.4189C23.1515 34.1783 23.3605 33.9059 23.5251 33.6019C23.7025 33.2979 23.8228 32.9749 23.8861 32.6329C23.9368 32.2909 23.9305 31.9743 23.8671 31.6829C23.8165 31.3916 23.7151 31.1319 23.5631 30.9039C23.4111 30.6633 23.2211 30.4733 22.9931 30.3339C22.7651 30.1946 22.4991 30.1186 22.1951 30.1059C21.7518 30.0933 21.3275 30.2009 20.9221 30.4289C20.5295 30.6569 20.1938 30.9673 19.9151 31.3599C19.6491 31.7399 19.4781 32.1643 19.4021 32.6329ZM28.0681 28.2629H30.6521L31.9061 33.4689L34.7751 28.2629H37.4161L31.2411 37.9339L28.0681 28.2629ZM41.0394 37.1929C40.2034 37.1929 39.4751 37.0346 38.8544 36.7179C38.2338 36.4013 37.7461 35.9453 37.3914 35.3499C37.0494 34.7546 36.8784 34.0389 36.8784 33.2029C36.8784 32.4936 37.0051 31.8286 37.2584 31.2079C37.5244 30.5873 37.8918 30.0426 38.3604 29.5739C38.8418 29.1053 39.4054 28.7379 40.0514 28.4719C40.6974 28.2059 41.4068 28.0729 42.1794 28.0729C43.0281 28.0729 43.7374 28.2249 44.3074 28.5289C44.8901 28.8329 45.3334 29.2699 45.6374 29.8399C45.9414 30.4099 46.0934 31.1066 46.0934 31.9299C46.0934 32.1326 46.0744 32.3543 46.0364 32.5949C45.9984 32.8229 45.9478 33.0193 45.8844 33.1839H38.1704V31.6639H44.0034L43.3574 32.5379C43.4208 32.4113 43.4778 32.2719 43.5284 32.1199C43.5791 31.9679 43.6044 31.8223 43.6044 31.6829C43.6044 31.2903 43.5411 30.9546 43.4144 30.6759C43.3004 30.3973 43.1231 30.1819 42.8824 30.0299C42.6544 29.8779 42.3504 29.8019 41.9704 29.8019C41.5904 29.8019 41.2421 29.8779 40.9254 30.0299C40.6214 30.1819 40.3554 30.3973 40.1274 30.6759C39.8994 30.9419 39.7158 31.2649 39.5764 31.6449C39.4498 32.0249 39.3674 32.4429 39.3294 32.8989C39.2788 33.3803 39.3168 33.8046 39.4434 34.1719C39.5701 34.5393 39.7791 34.8243 40.0704 35.0269C40.3618 35.2169 40.7354 35.3119 41.1914 35.3119C41.6981 35.3119 42.1478 35.1979 42.5404 34.9699C42.9458 34.7419 43.2814 34.4379 43.5474 34.0579L45.6374 34.7229C45.1688 35.4956 44.5481 36.1036 43.7754 36.5469C43.0028 36.9776 42.0908 37.1929 41.0394 37.1929ZM53.5338 23.7029H56.2128L54.6928 32.4619C54.6294 32.9053 54.6484 33.3169 54.7498 33.6969C54.8511 34.0769 55.0411 34.3809 55.3198 34.6089C55.6111 34.8369 56.0038 34.9573 56.4978 34.9699C57.0424 34.9699 57.5048 34.8623 57.8848 34.6469C58.2774 34.4189 58.5878 34.1149 58.8158 33.7349C59.0564 33.3549 59.2148 32.9306 59.2908 32.4619L60.7918 23.7029H63.4708L61.9508 32.6329C61.7988 33.5956 61.4694 34.4379 60.9628 35.1599C60.4561 35.8819 59.8038 36.4393 59.0058 36.8319C58.2078 37.2246 57.2894 37.4209 56.2508 37.4209C55.2881 37.4209 54.4648 37.2246 53.7808 36.8319C53.1094 36.4266 52.6154 35.8629 52.2988 35.1409C51.9821 34.4189 51.8934 33.5829 52.0328 32.6329L53.5338 23.7029ZM65.3176 41.1639L62.8666 41.1829L65.1086 28.2629H67.5026L65.3176 41.1639ZM73.7536 32.6329C73.6396 33.5069 73.3483 34.2986 72.8796 35.0079C72.4236 35.7046 71.8473 36.2556 71.1506 36.6609C70.4666 37.0663 69.7256 37.2689 68.9276 37.2689C68.3323 37.2689 67.8319 37.1423 67.4266 36.8889C67.0213 36.6229 66.7046 36.2746 66.4766 35.8439C66.2613 35.4006 66.1219 34.9003 66.0586 34.3429C65.9953 33.7856 66.0016 33.2156 66.0776 32.6329C66.1663 32.0123 66.3246 31.4233 66.5526 30.8659C66.7933 30.3086 67.0909 29.8146 67.4456 29.3839C67.8129 28.9533 68.2373 28.6176 68.7186 28.3769C69.2126 28.1236 69.7573 27.9969 70.3526 27.9969C71.1506 27.9969 71.8219 28.2059 72.3666 28.6239C72.9113 29.0419 73.3039 29.6056 73.5446 30.3149C73.7853 31.0116 73.8549 31.7843 73.7536 32.6329ZM71.2456 32.6329C71.3216 32.1769 71.2963 31.7716 71.1696 31.4169C71.0429 31.0496 70.8276 30.7583 70.5236 30.5429C70.2323 30.3149 69.8713 30.1946 69.4406 30.1819C69.1366 30.1819 68.8389 30.2453 68.5476 30.3719C68.2563 30.4859 67.9839 30.6569 67.7306 30.8849C67.4899 31.1129 67.2809 31.3789 67.1036 31.6829C66.9389 31.9743 66.8249 32.2909 66.7616 32.6329C66.7236 32.9749 66.7299 33.2916 66.7806 33.5829C66.8439 33.8616 66.9516 34.1149 67.1036 34.3429C67.2556 34.5583 67.4456 34.7293 67.6736 34.8559C67.9016 34.9826 68.1676 35.0523 68.4716 35.0649C68.9276 35.0776 69.3456 34.9763 69.7256 34.7609C70.1183 34.5456 70.4539 34.2543 70.7326 33.8869C71.0113 33.5069 71.1823 33.0889 71.2456 32.6329ZM75.1783 28.2629H80.4413L80.0803 30.3339H74.7983L75.1783 28.2629ZM77.1163 25.2229H79.4913L77.4393 37.0029H75.1213L77.1163 25.2229ZM80.4443 32.6329C80.5709 31.7463 80.8876 30.9609 81.3943 30.2769C81.9009 29.5929 82.5343 29.0546 83.2943 28.6619C84.0669 28.2693 84.9029 28.0729 85.8023 28.0729C86.7016 28.0729 87.4743 28.2756 88.1203 28.6809C88.7789 29.0863 89.2666 29.6373 89.5833 30.3339C89.9126 31.0179 90.0203 31.7843 89.9063 32.6329C89.7923 33.5069 89.482 34.2859 88.9753 34.9699C88.4686 35.6539 87.8289 36.1923 87.0563 36.5849C86.2963 36.9776 85.4603 37.1739 84.5483 37.1739C83.6616 37.1739 82.8889 36.9776 82.2303 36.5849C81.5843 36.1796 81.0966 35.6349 80.7673 34.9509C80.4506 34.2543 80.3429 33.4816 80.4443 32.6329ZM82.9143 32.6329C82.8509 33.0509 82.8826 33.4499 83.0093 33.8299C83.1359 34.2099 83.3449 34.5139 83.6363 34.7419C83.9276 34.9699 84.2886 35.0903 84.7193 35.1029C85.1753 35.1029 85.5933 34.9953 85.9733 34.7799C86.3659 34.5519 86.6889 34.2479 86.9423 33.8679C87.2083 33.4879 87.3729 33.0763 87.4363 32.6329C87.4996 32.1896 87.4679 31.7843 87.3413 31.4169C87.2146 31.0496 87.0056 30.7456 86.7143 30.5049C86.4229 30.2643 86.0556 30.1439 85.6123 30.1439C85.1816 30.1313 84.7699 30.2389 84.3773 30.4669C83.9846 30.6949 83.6616 30.9989 83.4083 31.3789C83.1549 31.7589 82.9903 32.1769 82.9143 32.6329Z" fill="url(#paint2_linear_64525_24080)"/>
<g filter="url(#filter0_dd_64525_24080)">
<path d="M6.904 48.0749L7.552 44.4989L15.736 42.8429L12.784 60.0029H8.944L11.152 47.0669L6.904 48.0749ZM19.1474 47.2349C19.3074 46.3069 19.6834 45.5149 20.2754 44.8589C20.8834 44.1869 21.6274 43.6829 22.5074 43.3469C23.4034 42.9949 24.3474 42.8189 25.3394 42.8189C26.0434 42.8189 26.7074 42.9229 27.3314 43.1309C27.9554 43.3229 28.4994 43.6109 28.9634 43.9949C29.4434 44.3789 29.7954 44.8509 30.0194 45.4109C30.2594 45.9549 30.3234 46.5709 30.2114 47.2589C30.1154 47.9949 29.8674 48.6429 29.4674 49.2029C29.0834 49.7629 28.5954 50.2349 28.0034 50.6189C27.4274 51.0029 26.7954 51.2909 26.1074 51.4829C25.4194 51.6749 24.7314 51.7709 24.0434 51.7709C23.3714 51.7709 22.7154 51.6749 22.0754 51.4829C21.4514 51.2749 20.8994 50.9789 20.4194 50.5949C19.9394 50.2109 19.5794 49.7389 19.3394 49.1789C19.1154 48.6189 19.0514 47.9709 19.1474 47.2349ZM22.7954 47.6669C22.7634 47.9869 22.7874 48.2909 22.8674 48.5789C22.9634 48.8669 23.1234 49.0989 23.3474 49.2749C23.5874 49.4509 23.8754 49.5389 24.2114 49.5389C24.5794 49.5389 24.9234 49.4509 25.2434 49.2749C25.5634 49.0989 25.8274 48.8669 26.0354 48.5789C26.2594 48.2749 26.3954 47.9629 26.4434 47.6429C26.4914 47.3069 26.4674 46.9949 26.3714 46.7069C26.2754 46.4189 26.1154 46.1869 25.8914 46.0109C25.6674 45.8189 25.3794 45.7229 25.0274 45.7229C24.6434 45.7229 24.2914 45.8189 23.9714 46.0109C23.6674 46.1869 23.4114 46.4189 23.2034 46.7069C23.0114 46.9949 22.8754 47.3149 22.7954 47.6669ZM17.1794 55.4189C17.3074 54.5869 17.5874 53.8669 18.0194 53.2589C18.4674 52.6349 19.0194 52.1229 19.6754 51.7229C20.3314 51.3069 21.0354 51.0029 21.7874 50.8109C22.5394 50.6029 23.2834 50.4989 24.0194 50.4989C24.7234 50.4989 25.4114 50.6029 26.0834 50.8109C26.7714 51.0189 27.3874 51.3309 27.9314 51.7469C28.4754 52.1469 28.8834 52.6589 29.1554 53.2829C29.4434 53.9069 29.5314 54.6269 29.4194 55.4429C29.3074 56.2109 29.0354 56.9069 28.6034 57.5309C28.1714 58.1389 27.6354 58.6589 26.9954 59.0909C26.3714 59.5069 25.6754 59.8269 24.9074 60.0509C24.1394 60.2749 23.3554 60.3869 22.5554 60.3869C21.8034 60.3869 21.0754 60.2669 20.3714 60.0269C19.6834 59.8029 19.0754 59.4749 18.5474 59.0429C18.0354 58.6109 17.6514 58.0909 17.3954 57.4829C17.1394 56.8589 17.0674 56.1709 17.1794 55.4189ZM21.2354 54.8429C21.1714 55.2429 21.1954 55.6189 21.3074 55.9709C21.4194 56.3069 21.6114 56.5789 21.8834 56.7869C22.1714 56.9789 22.5154 57.0749 22.9154 57.0749C23.3634 57.0749 23.7714 56.9789 24.1394 56.7869C24.5234 56.5949 24.8434 56.3309 25.0994 55.9949C25.3554 55.6429 25.5154 55.2509 25.5794 54.8189C25.6434 54.4509 25.6114 54.1069 25.4834 53.7869C25.3554 53.4509 25.1474 53.1789 24.8594 52.9709C24.5874 52.7469 24.2514 52.6349 23.8514 52.6349C23.4194 52.6349 23.0114 52.7389 22.6274 52.9469C22.2594 53.1549 21.9474 53.4269 21.6914 53.7629C21.4514 54.0989 21.2994 54.4589 21.2354 54.8429ZM32.5009 47.1629C32.6289 46.3629 32.9329 45.6269 33.4129 44.9549C33.8929 44.2829 34.4929 43.7469 35.2129 43.3469C35.9489 42.9469 36.7329 42.7469 37.5649 42.7469C38.4129 42.7469 39.1409 42.9549 39.7489 43.3709C40.3569 43.7869 40.8049 44.3309 41.0929 45.0029C41.3969 45.6749 41.4929 46.4029 41.3809 47.1869C41.2689 47.9709 40.9649 48.6989 40.4689 49.3709C39.9889 50.0429 39.3809 50.5789 38.6449 50.9789C37.9249 51.3789 37.1409 51.5789 36.2929 51.5789C35.4609 51.5789 34.7409 51.3789 34.1329 50.9789C33.5249 50.5629 33.0689 50.0189 32.7649 49.3469C32.4769 48.6589 32.3889 47.9309 32.5009 47.1629ZM35.4289 47.1869C35.3969 47.4269 35.4209 47.6669 35.5009 47.9069C35.5809 48.1469 35.7169 48.3469 35.9089 48.5069C36.1169 48.6669 36.3729 48.7469 36.6769 48.7469C36.9649 48.7469 37.2369 48.6749 37.4929 48.5309C37.7489 48.3709 37.9649 48.1709 38.1409 47.9309C38.3169 47.6749 38.4209 47.4109 38.4529 47.1389C38.4849 46.8989 38.4529 46.6589 38.3569 46.4189C38.2769 46.1789 38.1409 45.9869 37.9489 45.8429C37.7729 45.6829 37.5249 45.5949 37.2049 45.5789C36.9169 45.5789 36.6449 45.6589 36.3889 45.8189C36.1329 45.9789 35.9169 46.1869 35.7409 46.4429C35.5649 46.6829 35.4609 46.9309 35.4289 47.1869ZM42.5329 55.9949C42.6449 55.1949 42.9409 54.4589 43.4209 53.7869C43.9169 53.1149 44.5249 52.5789 45.2449 52.1789C45.9809 51.7789 46.7729 51.5789 47.6209 51.5789C48.4529 51.5789 49.1729 51.7869 49.7809 52.2029C50.3889 52.6189 50.8369 53.1629 51.1249 53.8349C51.4129 54.5069 51.5009 55.2349 51.3889 56.0189C51.2929 56.8189 50.9969 57.5549 50.5009 58.2269C50.0209 58.8829 49.4129 59.4189 48.6769 59.8349C47.9569 60.2349 47.1729 60.4349 46.3249 60.4349C45.4929 60.4349 44.7729 60.2269 44.1649 59.8109C43.5569 59.3949 43.1009 58.8509 42.7969 58.1789C42.5089 57.5069 42.4209 56.7789 42.5329 55.9949ZM45.4609 56.0189C45.4289 56.2749 45.4529 56.5229 45.5329 56.7629C45.6289 57.0029 45.7729 57.2029 45.9649 57.3629C46.1569 57.5069 46.3889 57.5789 46.6609 57.5789C46.9649 57.5949 47.2449 57.5309 47.5009 57.3869C47.7569 57.2429 47.9729 57.0509 48.1489 56.8109C48.3249 56.5549 48.4369 56.2829 48.4849 55.9949C48.5169 55.7389 48.4849 55.4909 48.3889 55.2509C48.3089 55.0109 48.1729 54.8189 47.9809 54.6749C47.7889 54.5149 47.5569 54.4269 47.2849 54.4109C46.9969 54.4109 46.7249 54.4909 46.4689 54.6509C46.2129 54.7949 45.9889 54.9869 45.7969 55.2269C45.6209 55.4669 45.5089 55.7309 45.4609 56.0189ZM47.7409 43.2029H51.5569L36.1489 60.0029H32.3809L47.7409 43.2029Z" fill="url(#paint3_linear_64525_24080)"/>
</g>
<path d="M5.85693 3.13195C5.85693 1.40222 7.25915 0 8.98888 0H91.5907C93.7627 0 95.2753 2.15697 94.5353 4.19902L89.7683 17.3532C89.3192 18.5926 88.142 19.4181 86.8238 19.4181H8.98888C7.25915 19.4181 5.85693 18.0158 5.85693 16.2861V3.13195Z" fill="#BD0041"/>
<g filter="url(#filter1_dd_64525_24080)">
<path d="M13.619 7.09002L13.8958 5.54597H17.1543L16.8775 7.09002H13.619ZM13.1185 10.0077L13.3741 8.55953H16.5367L16.2811 10.0077H13.1185ZM12.7245 5.54597H14.4389L13.1504 13H11.4573L12.7245 5.54597ZM19.2639 9.27299C19.2213 9.56405 19.2213 9.84446 19.2639 10.1142C19.3065 10.3769 19.3917 10.6147 19.5195 10.8277C19.6544 11.0336 19.8318 11.2004 20.0519 11.3282C20.2791 11.4489 20.5488 11.5092 20.8612 11.5092C21.1807 11.5163 21.4788 11.4631 21.7557 11.3495C22.0325 11.2288 22.281 11.0655 22.5011 10.8596C22.7212 10.6538 22.9022 10.4159 23.0442 10.1462C23.1932 9.86931 23.2926 9.57825 23.3423 9.27299C23.3849 8.98192 23.3849 8.70506 23.3423 8.44239C23.2997 8.17263 23.211 7.93126 23.0761 7.71829C22.9483 7.50532 22.7708 7.33849 22.5437 7.2178C22.3236 7.09002 22.0538 7.02613 21.7344 7.02613C21.4149 7.02613 21.1168 7.08292 20.8399 7.19651C20.563 7.31009 20.3146 7.47337 20.0945 7.68634C19.8815 7.89222 19.7005 8.13003 19.5514 8.3998C19.4094 8.66956 19.3136 8.96063 19.2639 9.27299ZM17.3897 9.27299C17.4749 8.71926 17.6489 8.20812 17.9115 7.73959C18.1813 7.26395 18.5185 6.84865 18.9231 6.4937C19.3278 6.13874 19.7857 5.86543 20.2968 5.67376C20.808 5.47498 21.3439 5.37559 21.9048 5.37559C22.4656 5.37559 22.9661 5.47853 23.4062 5.6844C23.8535 5.88318 24.2226 6.16359 24.5137 6.52564C24.8118 6.8806 25.0213 7.29589 25.1419 7.77153C25.2626 8.24007 25.2875 8.74056 25.2165 9.27299C25.1313 9.82671 24.9574 10.3449 24.6947 10.8277C24.432 11.3033 24.0948 11.7222 23.6831 12.0842C23.2784 12.4463 22.8205 12.7302 22.3094 12.9361C21.7983 13.1349 21.2552 13.2343 20.6802 13.2343C20.1122 13.2343 19.6047 13.1278 19.1574 12.9148C18.7173 12.7018 18.3517 12.4143 18.0606 12.0523C17.7696 11.6831 17.5672 11.2607 17.4536 10.7851C17.3401 10.3095 17.3188 9.80542 17.3897 9.27299ZM28.069 9.62439H29.8579L31.5298 13H29.5172L28.069 9.62439ZM26.9296 5.54597H28.7079L27.4194 13H25.6624L26.9296 5.54597ZM27.7708 7.06872L28.0264 5.54597H29.5278C30.0887 5.54597 30.5608 5.64891 30.9441 5.85478C31.3345 6.05356 31.6221 6.33397 31.8066 6.69602C31.9983 7.05807 32.0622 7.48757 31.9983 7.9845C31.9273 8.47434 31.7463 8.90383 31.4552 9.27299C31.1713 9.64214 30.8021 9.9261 30.3478 10.1249C29.8934 10.3165 29.3788 10.4124 28.8037 10.4124H27.1851L27.4407 9.01742H28.8144C29.0415 9.01742 29.2474 8.98192 29.432 8.91093C29.6237 8.83284 29.7834 8.71926 29.9112 8.57018C30.039 8.4211 30.1206 8.24362 30.1561 8.03775C30.1916 7.83897 30.1739 7.6686 30.1029 7.52661C30.039 7.38463 29.9289 7.2746 29.7728 7.19651C29.6237 7.11132 29.4426 7.06872 29.2297 7.06872H27.7708ZM38.0969 9.20909L37.0001 13H35.1153L37.639 5.17327L39.9391 9.69893L43.8471 5.12003L43.6555 13H41.8026L42.0049 9.27299L39.5345 12.3185L38.0969 9.20909ZM45.9051 13L46.1606 11.5198H49.8451L49.5895 13H45.9051ZM46.9273 7.02613L47.1935 5.54597H50.8673L50.6011 7.02613H46.9273ZM46.4481 9.80542L46.7037 8.35721H50.1752L49.9196 9.80542H46.4481ZM46.0222 5.54597H47.7366L46.4481 13H44.755L46.0222 5.54597ZM53.5291 9.20909L52.4322 13H50.5474L53.0712 5.17327L55.3713 9.69893L59.2793 5.12003L59.0876 13H57.2348L57.4371 9.27299L54.9666 12.3185L53.5291 9.20909ZM62.1146 9.28363L62.253 8.50629H63.3818C63.5734 8.50629 63.7474 8.47434 63.9035 8.41045C64.0668 8.34656 64.2017 8.25427 64.3082 8.13358C64.4218 8.0129 64.4892 7.86737 64.5105 7.69699C64.5602 7.45562 64.5105 7.27105 64.3614 7.14326C64.2124 7.00838 64.0029 6.94094 63.7332 6.94094H62.9984L62.1891 11.605H63.0197C63.2469 11.5979 63.4599 11.5624 63.6586 11.4985C63.8574 11.4347 64.0242 11.3317 64.1591 11.1897C64.3011 11.0478 64.3898 10.8667 64.4253 10.6467C64.4608 10.4408 64.436 10.274 64.3508 10.1462C64.2656 10.0113 64.1414 9.91545 63.9781 9.85866C63.8148 9.79477 63.6302 9.76282 63.4244 9.76282H62.04L62.2104 8.78315H63.7012C64.0349 8.78315 64.3614 8.82574 64.6809 8.91093C65.0004 8.98902 65.2843 9.11681 65.5328 9.29428C65.7813 9.46466 65.9694 9.68473 66.0972 9.9545C66.2249 10.2172 66.264 10.5331 66.2143 10.9022C66.1433 11.3921 65.9587 11.7932 65.6606 12.1055C65.3624 12.4179 64.9897 12.645 64.5425 12.787C64.0952 12.929 63.6089 13 63.0836 13H60.1765L61.4544 5.54597H64.0739C64.4076 5.54597 64.7235 5.58502 65.0217 5.66311C65.3198 5.7412 65.5789 5.85833 65.799 6.01451C66.0262 6.17069 66.193 6.36946 66.2995 6.61083C66.406 6.8451 66.4344 7.12197 66.3847 7.44142C66.3279 7.86027 66.1575 8.20458 65.8735 8.47434C65.5967 8.7441 65.2524 8.94643 64.8406 9.08131C64.436 9.21619 64.0029 9.28363 63.5415 9.28363H62.1146ZM68.1902 13L68.4458 11.5198H72.1302L71.8746 13H68.1902ZM69.2125 7.02613L69.4787 5.54597H73.1524L72.8862 7.02613H69.2125ZM68.7333 9.80542L68.9888 8.35721H72.4603L72.2047 9.80542H68.7333ZM68.3073 5.54597H70.0218L68.7333 13H67.0401L68.3073 5.54597ZM75.6758 9.62439H77.4647L79.1366 13H77.124L75.6758 9.62439ZM74.5364 5.54597H76.3147L75.0262 13H73.2692L74.5364 5.54597ZM75.3776 7.06872L75.6332 5.54597H77.1346C77.6954 5.54597 78.1675 5.64891 78.5509 5.85478C78.9413 6.05356 79.2288 6.33397 79.4134 6.69602C79.6051 7.05807 79.669 7.48757 79.6051 7.9845C79.5341 8.47434 79.3531 8.90383 79.062 9.27299C78.778 9.64214 78.4089 9.9261 77.9546 10.1249C77.5002 10.3165 76.9855 10.4124 76.4105 10.4124H74.7919L75.0475 9.01742H76.4212C76.6483 9.01742 76.8542 8.98192 77.0388 8.91093C77.2305 8.83284 77.3902 8.71926 77.518 8.57018C77.6457 8.4211 77.7274 8.24362 77.7629 8.03775C77.7984 7.83897 77.7806 7.6686 77.7096 7.52661C77.6457 7.38463 77.5357 7.2746 77.3795 7.19651C77.2305 7.11132 77.0494 7.06872 76.8365 7.06872H75.3776ZM81.1484 10.3804C81.2691 10.636 81.4004 10.8632 81.5424 11.062C81.6915 11.2536 81.8618 11.4063 82.0535 11.5198C82.2523 11.6263 82.4795 11.6796 82.735 11.6796C82.9267 11.6796 83.1006 11.6441 83.2568 11.5731C83.413 11.5021 83.5408 11.4063 83.6402 11.2856C83.7396 11.1578 83.7928 11.0194 83.7999 10.8703C83.8283 10.6786 83.7892 10.526 83.6828 10.4124C83.5763 10.2917 83.4236 10.1852 83.2249 10.0929C83.0261 9.99354 82.7989 9.89061 82.5434 9.78412C82.3517 9.70603 82.1529 9.60309 81.947 9.47531C81.7483 9.34043 81.5637 9.1807 81.3933 8.99612C81.23 8.81155 81.0987 8.59857 80.9993 8.35721C80.907 8.11584 80.8751 7.84252 80.9035 7.53726C80.9461 7.09002 81.1022 6.70667 81.372 6.38721C81.6418 6.06065 81.9825 5.80864 82.3943 5.63116C82.8131 5.45368 83.2639 5.3685 83.7466 5.37559C84.1939 5.37559 84.5808 5.45013 84.9073 5.59921C85.2339 5.7483 85.5072 5.94707 85.7273 6.19554C85.9474 6.444 86.1177 6.71732 86.2384 7.01548L84.8222 7.75023C84.737 7.58696 84.6376 7.44142 84.524 7.31364C84.4175 7.17876 84.2897 7.07582 84.1406 7.00483C83.9916 6.92674 83.8105 6.8877 83.5976 6.8877C83.4343 6.8877 83.2888 6.91609 83.161 6.97289C83.0332 7.02258 82.9267 7.09357 82.8415 7.18586C82.7634 7.27815 82.7208 7.38818 82.7137 7.51596C82.6924 7.64375 82.7173 7.76088 82.7883 7.86737C82.8664 7.97386 82.9729 8.06969 83.1077 8.15488C83.2497 8.24007 83.4059 8.31816 83.5763 8.38915C83.7537 8.46014 83.9312 8.53113 84.1087 8.60212C84.4353 8.72281 84.7192 8.88609 84.9606 9.09196C85.2091 9.29073 85.3936 9.5321 85.5143 9.81607C85.6421 10.1 85.6918 10.4337 85.6634 10.817C85.6137 11.314 85.4398 11.7435 85.1416 12.1055C84.8506 12.4676 84.4814 12.748 84.0342 12.9468C83.594 13.1384 83.129 13.2343 82.6392 13.2343C82.1849 13.2343 81.7696 13.1491 81.3933 12.9787C81.0171 12.8083 80.694 12.5741 80.4243 12.2759C80.1545 11.9777 79.9557 11.6441 79.828 11.2749L81.1484 10.3804Z" fill="white"/>
</g>
<defs>
<filter id="filter0_dd_64525_24080" x="5.14588" y="41.4286" width="48.1692" height="21.2034" filterUnits="userSpaceOnUse" color-interpolation-filters="sRGB">
<feFlood flood-opacity="0" result="BackgroundImageFix"/>
<feColorMatrix in="SourceAlpha" type="matrix" values="0 0 0 0 0 0 0 0 0 0 0 0 0 0 0 0 0 0 127 0" result="hardAlpha"/>
<feMorphology radius="0.439483" operator="dilate" in="SourceAlpha" result="effect1_dropShadow_64525_24080"/>
<feOffset dy="0.439483"/>
<feGaussianBlur stdDeviation="0.659224"/>
<feColorMatrix type="matrix" values="0 0 0 0 0 0 0 0 0 0 0 0 0 0 0 0 0 0 0.15 0"/>
<feBlend mode="normal" in2="BackgroundImageFix" result="effect1_dropShadow_64525_24080"/>
<feColorMatrix in="SourceAlpha" type="matrix" values="0 0 0 0 0 0 0 0 0 0 0 0 0 0 0 0 0 0 127 0" result="hardAlpha"/>
<feOffset dy="0.439483"/>
<feGaussianBlur stdDeviation="0.439483"/>
<feColorMatrix type="matrix" values="0 0 0 0 0 0 0 0 0 0 0 0 0 0 0 0 0 0 0.3 0"/>
<feBlend mode="normal" in2="effect1_dropShadow_64525_24080" result="effect2_dropShadow_64525_24080"/>
<feBlend mode="normal" in="SourceGraphic" in2="effect2_dropShadow_64525_24080" result="shape"/>
</filter>
<filter id="filter1_dd_64525_24080" x="8.95196" y="3.24095" width="79.7919" height="13.1254" filterUnits="userSpaceOnUse" color-interpolation-filters="sRGB">
<feFlood flood-opacity="0" result="BackgroundImageFix"/>
<feColorMatrix in="SourceAlpha" type="matrix" values="0 0 0 0 0 0 0 0 0 0 0 0 0 0 0 0 0 0 127 0" result="hardAlpha"/>
<feMorphology radius="0.626389" operator="dilate" in="SourceAlpha" result="effect1_dropShadow_64525_24080"/>
<feOffset dy="0.626389"/>
<feGaussianBlur stdDeviation="0.939583"/>
<feColorMatrix type="matrix" values="0 0 0 0 0 0 0 0 0 0 0 0 0 0 0 0 0 0 0.15 0"/>
<feBlend mode="normal" in2="BackgroundImageFix" result="effect1_dropShadow_64525_24080"/>
<feColorMatrix in="SourceAlpha" type="matrix" values="0 0 0 0 0 0 0 0 0 0 0 0 0 0 0 0 0 0 127 0" result="hardAlpha"/>
<feOffset dy="0.626389"/>
<feGaussianBlur stdDeviation="0.626389"/>
<feColorMatrix type="matrix" values="0 0 0 0 0 0 0 0 0 0 0 0 0 0 0 0 0 0 0.3 0"/>
<feBlend mode="normal" in2="effect1_dropShadow_64525_24080" result="effect2_dropShadow_64525_24080"/>
<feBlend mode="normal" in="SourceGraphic" in2="effect2_dropShadow_64525_24080" result="shape"/>
</filter>
<linearGradient id="paint0_linear_64525_24080" x1="1.08005e-07" y1="55.2461" x2="103.926" y2="55.5139" gradientUnits="userSpaceOnUse">
<stop stop-color="#FFB77D"/>
<stop offset="1" stop-color="#FFB2BA"/>
</linearGradient>
<linearGradient id="paint1_linear_64525_24080" x1="6" y1="71.3467" x2="102.085" y2="72.6975" gradientUnits="userSpaceOnUse">
<stop stop-color="#FFB77D"/>
<stop offset="1" stop-color="#FFB2BA"/>
</linearGradient>
<linearGradient id="paint2_linear_64525_24080" x1="5" y1="31.9707" x2="95.6127" y2="33.0531" gradientUnits="userSpaceOnUse">
<stop stop-color="#FFB77D"/>
<stop offset="1" stop-color="#FFB2BA"/>
</linearGradient>
<linearGradient id="paint3_linear_64525_24080" x1="4" y1="53.8548" x2="86.2094" y2="55.0478" gradientUnits="userSpaceOnUse">
<stop stop-color="#FFB77D"/>
<stop offset="1" stop-color="#FFB2BA"/>
</linearGradient>
</defs>
</svg>
