<svg width="552" height="326" viewBox="0 0 552 326" fill="none" xmlns="http://www.w3.org/2000/svg">
<g filter="url(#filter0_ddi_62435_32901)">
<path d="M475 -97L475 84C475 191.696 387.696 279 280 279C172.304 279 85 191.696 85 84L85 -97L475 -97Z" fill="url(#paint0_linear_62435_32901)" shape-rendering="crispEdges"/>
<path d="M472 -94L472 84C472 190.039 386.039 276 280 276C173.961 276 88 190.039 88 84L88 -94L472 -94Z" stroke="url(#paint1_linear_62435_32901)" stroke-width="6" shape-rendering="crispEdges"/>
<g filter="url(#filter1_dd_62435_32901)">
<path d="M180.07 111.366V106.026H202.048L187.851 129.826H200.765V135H178.455L192.487 111.366H180.07ZM210.35 135V129.992H224.961V135H210.35ZM210.35 111.034V106.026H224.961V111.034H210.35ZM210.35 122.086V117.16H224.133V122.086H210.35ZM206.542 106.026H212.254V135H206.542V106.026ZM252.147 106.026H257.859V136.449L237.246 117.036V135H231.534V104.577L252.147 123.99V106.026ZM282.801 120.513C282.801 122.417 283.229 124.086 284.084 125.521C284.967 126.929 286.112 128.019 287.52 128.791C288.927 129.536 290.458 129.909 292.114 129.909C293.494 129.909 294.722 129.73 295.798 129.371C296.874 129.012 297.84 128.529 298.695 127.922C299.578 127.315 300.337 126.653 300.972 125.935V132.599C299.785 133.538 298.488 134.269 297.081 134.793C295.701 135.317 293.949 135.579 291.824 135.579C289.617 135.579 287.561 135.221 285.657 134.503C283.781 133.786 282.139 132.751 280.732 131.399C279.352 130.047 278.276 128.46 277.503 126.639C276.758 124.79 276.385 122.748 276.385 120.513C276.385 118.278 276.758 116.25 277.503 114.429C278.276 112.58 279.352 110.979 280.732 109.627C282.139 108.275 283.781 107.24 285.657 106.523C287.561 105.805 289.617 105.447 291.824 105.447C293.949 105.447 295.701 105.709 297.081 106.233C298.488 106.757 299.785 107.489 300.972 108.427V115.091C300.337 114.373 299.578 113.711 298.695 113.104C297.84 112.497 296.874 112.014 295.798 111.655C294.722 111.297 293.494 111.117 292.114 111.117C290.458 111.117 288.927 111.504 287.52 112.276C286.112 113.021 284.967 114.097 284.084 115.505C283.229 116.912 282.801 118.581 282.801 120.513ZM307.601 106.026H313.519V129.826H325.068V135H307.601V106.026ZM328.99 106.026H334.909V125.107C334.909 126.763 335.337 128.101 336.192 129.122C337.075 130.116 338.372 130.613 340.083 130.613C341.794 130.613 343.077 130.116 343.932 129.122C344.815 128.101 345.257 126.763 345.257 125.107V106.026H351.176V125.48C351.176 127.191 350.9 128.695 350.348 129.992C349.796 131.289 349.01 132.379 347.989 133.262C346.995 134.145 345.823 134.807 344.47 135.248C343.118 135.717 341.656 135.952 340.083 135.952C338.482 135.952 337.006 135.717 335.654 135.248C334.302 134.807 333.129 134.145 332.136 133.262C331.142 132.379 330.37 131.289 329.818 129.992C329.266 128.695 328.99 127.191 328.99 125.48V106.026ZM362.377 120.306V117.616H367.054C367.91 117.616 368.655 117.478 369.289 117.202C369.924 116.926 370.407 116.526 370.738 116.001C371.097 115.477 371.276 114.856 371.276 114.139C371.276 113.035 370.89 112.193 370.117 111.614C369.372 111.034 368.351 110.745 367.054 110.745H363.867V130.281H367.675C368.668 130.281 369.565 130.143 370.365 129.867C371.166 129.564 371.787 129.095 372.228 128.46C372.697 127.826 372.932 127.011 372.932 126.018C372.932 125.301 372.794 124.694 372.518 124.197C372.269 123.673 371.897 123.245 371.4 122.914C370.931 122.555 370.379 122.307 369.745 122.169C369.11 122.003 368.42 121.92 367.675 121.92H362.377V118.692H368.213C369.62 118.692 370.959 118.844 372.228 119.147C373.525 119.451 374.684 119.934 375.705 120.596C376.726 121.23 377.526 122.058 378.106 123.079C378.713 124.1 379.016 125.328 379.016 126.763C379.016 128.667 378.561 130.226 377.65 131.44C376.767 132.654 375.512 133.551 373.884 134.131C372.256 134.71 370.365 135 368.213 135H357.948V106.026H367.592C369.524 106.026 371.221 106.302 372.683 106.854C374.146 107.378 375.291 108.178 376.119 109.255C376.947 110.331 377.361 111.697 377.361 113.352C377.361 114.815 376.947 116.07 376.119 117.119C375.291 118.168 374.146 118.968 372.683 119.52C371.221 120.044 369.524 120.306 367.592 120.306H362.377Z" fill="url(#paint2_linear_62435_32901)"/>
<path d="M181.69 155.488L180.838 163.045H178.674L180.377 150.007L185.468 158.433L190.577 150.007L192.28 163.045H190.116L189.247 155.488L185.468 161.892L181.69 155.488ZM205.959 163.045V161.2H212.221V163.045H205.959ZM205.959 152.472V150.628H212.221V152.472H205.959ZM205.959 157.297V155.488H211.866V157.297H205.959ZM204.664 150.628H206.722V163.045H204.664V150.628ZM227.452 155.488L226.601 163.045H224.437L226.14 150.007L231.231 158.433L236.34 150.007L238.043 163.045H235.878L235.009 155.488L231.231 161.892L227.452 155.488ZM252.023 156.641V155.612H254.028C254.418 155.612 254.761 155.547 255.057 155.417C255.352 155.287 255.583 155.104 255.749 154.867C255.914 154.619 255.997 154.323 255.997 153.98C255.997 153.46 255.814 153.058 255.447 152.774C255.08 152.49 254.607 152.348 254.028 152.348H252.52V161.324H254.258C254.731 161.324 255.151 161.247 255.518 161.094C255.885 160.94 256.174 160.709 256.387 160.402C256.6 160.094 256.706 159.71 256.706 159.249C256.706 158.918 256.641 158.628 256.511 158.38C256.393 158.119 256.222 157.906 255.997 157.741C255.784 157.564 255.53 157.439 255.234 157.368C254.938 157.286 254.613 157.244 254.258 157.244H252.023V156.091H254.383C254.986 156.091 255.553 156.156 256.086 156.286C256.618 156.416 257.091 156.617 257.505 156.889C257.93 157.161 258.262 157.51 258.498 157.936C258.735 158.362 258.853 158.87 258.853 159.462C258.853 160.278 258.658 160.952 258.267 161.484C257.889 162.016 257.363 162.412 256.689 162.672C256.026 162.921 255.258 163.045 254.383 163.045H250.427V150.628H254.17C254.95 150.628 255.636 150.74 256.227 150.965C256.831 151.189 257.298 151.532 257.629 151.993C257.972 152.455 258.143 153.04 258.143 153.75C258.143 154.365 257.972 154.891 257.629 155.328C257.298 155.754 256.831 156.079 256.227 156.304C255.636 156.529 254.95 156.641 254.17 156.641H252.023ZM272.706 163.045V161.2H278.968V163.045H272.706ZM272.706 152.472V150.628H278.968V152.472H272.706ZM272.706 157.297V155.488H278.613V157.297H272.706ZM271.411 150.628H273.469V163.045H271.411V150.628ZM294.448 157.12H296.718L300.922 163.045H298.403L294.448 157.12ZM291.893 150.628H293.986V163.045H291.893V150.628ZM293.135 152.437V150.628H295.725C296.624 150.628 297.404 150.787 298.066 151.106C298.74 151.426 299.261 151.875 299.627 152.455C299.994 153.022 300.177 153.696 300.177 154.477C300.177 155.257 299.994 155.937 299.627 156.517C299.261 157.096 298.74 157.546 298.066 157.865C297.404 158.184 296.624 158.344 295.725 158.344H293.135V156.623H295.636C296.109 156.623 296.523 156.541 296.878 156.375C297.244 156.209 297.528 155.973 297.729 155.665C297.93 155.346 298.031 154.968 298.031 154.53C298.031 154.081 297.93 153.702 297.729 153.395C297.528 153.087 297.244 152.851 296.878 152.685C296.523 152.52 296.109 152.437 295.636 152.437H293.135ZM313.607 159.054C313.879 159.527 314.169 159.946 314.476 160.313C314.795 160.668 315.144 160.946 315.523 161.147C315.901 161.336 316.327 161.431 316.8 161.431C317.368 161.431 317.829 161.277 318.184 160.969C318.538 160.662 318.716 160.266 318.716 159.781C318.716 159.32 318.603 158.953 318.379 158.681C318.154 158.397 317.841 158.161 317.439 157.972C317.048 157.77 316.593 157.575 316.073 157.386C315.765 157.28 315.422 157.138 315.044 156.96C314.665 156.771 314.305 156.541 313.962 156.269C313.619 155.985 313.335 155.642 313.11 155.24C312.886 154.826 312.773 154.329 312.773 153.75C312.773 153.087 312.945 152.508 313.288 152.011C313.631 151.503 314.092 151.112 314.671 150.84C315.263 150.557 315.931 150.415 316.676 150.415C317.409 150.415 318.048 150.545 318.592 150.805C319.136 151.065 319.591 151.396 319.958 151.798C320.336 152.2 320.632 152.62 320.844 153.058L319.142 154.016C318.988 153.708 318.793 153.424 318.556 153.164C318.32 152.892 318.042 152.679 317.722 152.526C317.415 152.36 317.054 152.277 316.64 152.277C316.061 152.277 315.635 152.413 315.363 152.685C315.091 152.945 314.955 153.253 314.955 153.608C314.955 153.927 315.05 154.217 315.239 154.477C315.44 154.725 315.747 154.962 316.161 155.186C316.575 155.411 317.113 155.642 317.776 155.878C318.142 156.008 318.509 156.174 318.875 156.375C319.254 156.576 319.597 156.83 319.904 157.138C320.212 157.433 320.454 157.782 320.632 158.184C320.821 158.586 320.915 159.06 320.915 159.604C320.915 160.183 320.803 160.703 320.578 161.165C320.354 161.626 320.046 162.016 319.656 162.335C319.266 162.643 318.822 162.879 318.326 163.045C317.841 163.222 317.332 163.311 316.8 163.311C316.067 163.311 315.387 163.169 314.76 162.885C314.145 162.59 313.607 162.199 313.146 161.714C312.684 161.23 312.318 160.703 312.046 160.136L313.607 159.054ZM334.245 157.351V155.417H343.097V157.351H334.245ZM341.749 150.628H343.842V163.045H341.749V150.628ZM333.411 150.628H335.505V163.045H333.411V150.628ZM356.96 150.628H359.071V163.045H356.96V150.628ZM372.193 150.628H374.286V163.045H372.193V150.628ZM373.434 152.472V150.628H375.936C376.834 150.628 377.615 150.787 378.277 151.106C378.951 151.414 379.472 151.857 379.838 152.437C380.205 153.005 380.388 153.685 380.388 154.477C380.388 155.269 380.205 155.955 379.838 156.535C379.472 157.114 378.951 157.564 378.277 157.883C377.615 158.19 376.834 158.344 375.936 158.344H373.434V156.499H375.936C376.657 156.499 377.237 156.328 377.674 155.985C378.112 155.642 378.33 155.139 378.33 154.477C378.33 153.815 378.112 153.318 377.674 152.987C377.237 152.644 376.657 152.472 375.936 152.472H373.434Z" fill="url(#paint3_linear_62435_32901)"/>
<path d="M178 140.764L382 140.764" stroke="url(#paint4_linear_62435_32901)" stroke-width="0.591304" stroke-linecap="round"/>
<path d="M178 170.33L382 170.33" stroke="url(#paint5_linear_62435_32901)" stroke-width="0.591304" stroke-linecap="round"/>
</g>
</g>
<defs>
<filter id="filter0_ddi_62435_32901" x="53" y="-125" width="454" height="440" filterUnits="userSpaceOnUse" color-interpolation-filters="sRGB">
<feFlood flood-opacity="0" result="BackgroundImageFix"/>
<feColorMatrix in="SourceAlpha" type="matrix" values="0 0 0 0 0 0 0 0 0 0 0 0 0 0 0 0 0 0 127 0" result="hardAlpha"/>
<feMorphology radius="13" operator="dilate" in="SourceAlpha" result="effect1_dropShadow_62435_32901"/>
<feOffset dy="4"/>
<feGaussianBlur stdDeviation="9.5"/>
<feComposite in2="hardAlpha" operator="out"/>
<feColorMatrix type="matrix" values="0 0 0 0 0.811765 0 0 0 0 0.639216 0 0 0 0 0.231373 0 0 0 0.25 0"/>
<feBlend mode="normal" in2="BackgroundImageFix" result="effect1_dropShadow_62435_32901"/>
<feColorMatrix in="SourceAlpha" type="matrix" values="0 0 0 0 0 0 0 0 0 0 0 0 0 0 0 0 0 0 127 0" result="hardAlpha"/>
<feOffset dy="4"/>
<feGaussianBlur stdDeviation="5.5"/>
<feComposite in2="hardAlpha" operator="out"/>
<feColorMatrix type="matrix" values="0 0 0 0 0.796078 0 0 0 0 0.619608 0 0 0 0 0.207843 0 0 0 0.72 0"/>
<feBlend mode="normal" in2="effect1_dropShadow_62435_32901" result="effect2_dropShadow_62435_32901"/>
<feBlend mode="normal" in="SourceGraphic" in2="effect2_dropShadow_62435_32901" result="shape"/>
<feColorMatrix in="SourceAlpha" type="matrix" values="0 0 0 0 0 0 0 0 0 0 0 0 0 0 0 0 0 0 127 0" result="hardAlpha"/>
<feOffset/>
<feGaussianBlur stdDeviation="24.5"/>
<feComposite in2="hardAlpha" operator="arithmetic" k2="-1" k3="1"/>
<feColorMatrix type="matrix" values="0 0 0 0 0 0 0 0 0 0 0 0 0 0 0 0 0 0 1 0"/>
<feBlend mode="normal" in2="shape" result="effect3_innerShadow_62435_32901"/>
</filter>
<filter id="filter1_dd_62435_32901" x="168.496" y="84.0936" width="223.009" height="110.07" filterUnits="userSpaceOnUse" color-interpolation-filters="sRGB">
<feFlood flood-opacity="0" result="BackgroundImageFix"/>
<feColorMatrix in="SourceAlpha" type="matrix" values="0 0 0 0 0 0 0 0 0 0 0 0 0 0 0 0 0 0 127 0" result="hardAlpha"/>
<feMorphology radius="2.30215" operator="dilate" in="SourceAlpha" result="effect1_dropShadow_62435_32901"/>
<feOffset dy="2.30215"/>
<feGaussianBlur stdDeviation="3.45322"/>
<feColorMatrix type="matrix" values="0 0 0 0 0 0 0 0 0 0 0 0 0 0 0 0 0 0 0.15 0"/>
<feBlend mode="normal" in2="BackgroundImageFix" result="effect1_dropShadow_62435_32901"/>
<feColorMatrix in="SourceAlpha" type="matrix" values="0 0 0 0 0 0 0 0 0 0 0 0 0 0 0 0 0 0 127 0" result="hardAlpha"/>
<feOffset dy="2.30215"/>
<feGaussianBlur stdDeviation="2.30215"/>
<feColorMatrix type="matrix" values="0 0 0 0 0 0 0 0 0 0 0 0 0 0 0 0 0 0 0.3 0"/>
<feBlend mode="normal" in2="effect1_dropShadow_62435_32901" result="effect2_dropShadow_62435_32901"/>
<feBlend mode="normal" in="SourceGraphic" in2="effect2_dropShadow_62435_32901" result="shape"/>
</filter>
<linearGradient id="paint0_linear_62435_32901" x1="287" y1="279" x2="289.557" y2="-114.618" gradientUnits="userSpaceOnUse">
<stop offset="0.494792" stop-color="#29027B"/>
<stop offset="1" stop-color="#5200FF" stop-opacity="0"/>
</linearGradient>
<linearGradient id="paint1_linear_62435_32901" x1="386.641" y1="-97" x2="374.373" y2="279.364" gradientUnits="userSpaceOnUse">
<stop stop-color="#E9DB9A"/>
<stop offset="0.4375" stop-color="#846E22"/>
<stop offset="1" stop-color="#FFE993"/>
</linearGradient>
<linearGradient id="paint2_linear_62435_32901" x1="184.09" y1="122.875" x2="378.966" y2="120.677" gradientUnits="userSpaceOnUse">
<stop stop-color="#B57F12"/>
<stop offset="0.347487" stop-color="#E2BF59"/>
<stop offset="0.751919" stop-color="#FEF2A0"/>
<stop offset="1" stop-color="#CA9A2E"/>
</linearGradient>
<linearGradient id="paint3_linear_62435_32901" x1="184.12" y1="158.545" x2="379.942" y2="155.771" gradientUnits="userSpaceOnUse">
<stop stop-color="#B57F12"/>
<stop offset="0.347487" stop-color="#E2BF59"/>
<stop offset="0.751919" stop-color="#FEF2A0"/>
<stop offset="1" stop-color="#CA9A2E"/>
</linearGradient>
<linearGradient id="paint4_linear_62435_32901" x1="184.12" y1="141.295" x2="318.051" y2="50.2214" gradientUnits="userSpaceOnUse">
<stop stop-color="#B57F12"/>
<stop offset="0.347487" stop-color="#E2BF59"/>
<stop offset="0.751919" stop-color="#FEF2A0"/>
<stop offset="1" stop-color="#CA9A2E"/>
</linearGradient>
<linearGradient id="paint5_linear_62435_32901" x1="184.12" y1="170.861" x2="318.051" y2="79.7878" gradientUnits="userSpaceOnUse">
<stop stop-color="#B57F12"/>
<stop offset="0.347487" stop-color="#E2BF59"/>
<stop offset="0.751919" stop-color="#FEF2A0"/>
<stop offset="1" stop-color="#CA9A2E"/>
</linearGradient>
</defs>
</svg>
