<svg width="107" height="16" viewBox="0 0 107 16" fill="none" xmlns="http://www.w3.org/2000/svg">
<path d="M0 3.55319C0 2.1431 1.1431 1 2.55319 1H102.657C104.605 1 105.835 3.09293 104.888 4.79474L99.3824 14.6884C98.9318 15.498 98.078 16 97.1514 16H2.55319C1.1431 16 0 14.8569 0 13.4468V3.55319Z" fill="#BD0041"/>
<g filter="url(#filter0_dd_62714_22365)">
<path d="M5.396 7.73581L4.16 12.0078H2.036L4.88 3.18781L7.472 8.28781L11.876 3.12781L11.66 12.0078H9.572L9.8 7.80781L7.016 11.2398L5.396 7.73581ZM15.6711 12.1278C15.1111 12.1278 14.6231 12.0278 14.2071 11.8278C13.7991 11.6198 13.4791 11.3278 13.2471 10.9518C13.0231 10.5758 12.9111 10.1278 12.9111 9.60781C12.9111 9.15181 12.9951 8.72781 13.1631 8.33581C13.3311 7.94381 13.5671 7.60381 13.8711 7.31581C14.1831 7.01981 14.5511 6.78781 14.9751 6.61981C15.3991 6.45181 15.8671 6.36781 16.3791 6.36781C16.9391 6.36781 17.4071 6.46781 17.7831 6.66781C18.1671 6.85981 18.4551 7.13981 18.6471 7.50781C18.8471 7.86781 18.9471 8.30381 18.9471 8.81581C18.9471 8.94381 18.9351 9.08381 18.9111 9.23581C18.8871 9.38781 18.8551 9.51981 18.8151 9.63181H13.8231V8.62381H17.3751L16.9551 9.17581C17.0031 9.09581 17.0431 9.01181 17.0751 8.92381C17.1071 8.82781 17.1231 8.74381 17.1231 8.67181C17.1231 8.43981 17.0871 8.24381 17.0151 8.08381C16.9511 7.92381 16.8511 7.79981 16.7151 7.71181C16.5871 7.62381 16.4191 7.57981 16.2111 7.57981C15.9951 7.57981 15.7991 7.62381 15.6231 7.71181C15.4551 7.79181 15.3071 7.90781 15.1791 8.05981C15.0591 8.21181 14.9591 8.39981 14.8791 8.62381C14.8071 8.83981 14.7511 9.08381 14.7111 9.35581C14.6711 9.64381 14.6831 9.89981 14.7471 10.1238C14.8191 10.3478 14.9391 10.5198 15.1071 10.6398C15.2831 10.7598 15.4991 10.8198 15.7551 10.8198C16.0591 10.8198 16.3231 10.7558 16.5471 10.6278C16.7711 10.4998 16.9631 10.3238 17.1231 10.0998L18.6831 10.4958C18.3951 11.0238 17.9951 11.4278 17.4831 11.7078C16.9791 11.9878 16.3751 12.1278 15.6711 12.1278ZM28.2068 8.45581L27.6068 12.0078H25.7948L26.4068 8.64781C26.4228 8.47981 26.4228 8.31981 26.4068 8.16781C26.3988 8.01581 26.3588 7.89181 26.2868 7.79581C26.2228 7.69181 26.1028 7.63981 25.9268 7.63981C25.7588 7.63981 25.6028 7.68381 25.4588 7.77181C25.3228 7.85181 25.2068 7.96381 25.1108 8.10781C25.0228 8.25181 24.9628 8.42781 24.9308 8.63581L24.3548 12.0078H22.5668L23.1668 8.63581C23.1908 8.46781 23.1948 8.31181 23.1788 8.16781C23.1628 8.01581 23.1188 7.89181 23.0468 7.79581C22.9748 7.69181 22.8588 7.63981 22.6988 7.63981C22.5308 7.63981 22.3788 7.67981 22.2428 7.75981C22.1068 7.83981 21.9908 7.95181 21.8948 8.09581C21.8068 8.23181 21.7468 8.39981 21.7148 8.59981L21.1268 12.0078H19.3988L20.3468 6.48781H22.0748L21.9548 7.24381C22.0748 7.05981 22.2148 6.90381 22.3748 6.77581C22.5348 6.64781 22.7148 6.54781 22.9148 6.47581C23.1148 6.39581 23.3348 6.35581 23.5748 6.35581C23.8548 6.35581 24.0868 6.39581 24.2708 6.47581C24.4628 6.54781 24.6148 6.65581 24.7268 6.79981C24.8388 6.94381 24.9148 7.11181 24.9548 7.30381C25.1868 7.01581 25.4588 6.78781 25.7708 6.61981C26.0828 6.44381 26.4308 6.35581 26.8148 6.35581C27.2468 6.35581 27.5668 6.45181 27.7748 6.64381C27.9908 6.82781 28.1268 7.07981 28.1828 7.39981C28.2468 7.71181 28.2548 8.06381 28.2068 8.45581ZM32.3336 2.64781L30.7256 12.0078H28.9376L30.5336 2.64781H32.3336ZM35.5736 9.24781C35.5016 9.79181 35.3216 10.2838 35.0336 10.7238C34.7456 11.1558 34.3856 11.4998 33.9536 11.7558C33.5296 12.0038 33.0736 12.1278 32.5856 12.1278C32.2176 12.1278 31.9016 12.0518 31.6376 11.8998C31.3736 11.7398 31.1616 11.5238 31.0016 11.2518C30.8496 10.9798 30.7456 10.6718 30.6896 10.3278C30.6416 9.97581 30.6416 9.61181 30.6896 9.23581C30.7456 8.84381 30.8496 8.47581 31.0016 8.13181C31.1536 7.77981 31.3496 7.47181 31.5896 7.20781C31.8376 6.94381 32.1176 6.73981 32.4296 6.59581C32.7416 6.44381 33.0816 6.36781 33.4496 6.36781C33.9376 6.36781 34.3496 6.49981 34.6856 6.76381C35.0296 7.01981 35.2776 7.36781 35.4296 7.80781C35.5896 8.23981 35.6376 8.71981 35.5736 9.24781ZM33.7136 9.23581C33.7536 8.99581 33.7376 8.77181 33.6656 8.56381C33.6016 8.34781 33.4896 8.17181 33.3296 8.03581C33.1696 7.89981 32.9656 7.83181 32.7176 7.83181C32.5416 7.83181 32.3696 7.86781 32.2016 7.93981C32.0416 8.01181 31.8896 8.11181 31.7456 8.23981C31.6016 8.36781 31.4816 8.51981 31.3856 8.69581C31.2976 8.87181 31.2336 9.05581 31.1936 9.24781C31.1696 9.43181 31.1736 9.60781 31.2056 9.77581C31.2376 9.93581 31.2936 10.0838 31.3736 10.2198C31.4616 10.3558 31.5696 10.4638 31.6976 10.5438C31.8256 10.6158 31.9736 10.6518 32.1416 10.6518C32.3976 10.6598 32.6336 10.5998 32.8496 10.4718C33.0736 10.3438 33.2616 10.1718 33.4136 9.95581C33.5736 9.73181 33.6736 9.49181 33.7136 9.23581ZM39.0734 12.1278C38.5134 12.1278 38.0254 12.0278 37.6094 11.8278C37.2014 11.6198 36.8814 11.3278 36.6494 10.9518C36.4254 10.5758 36.3134 10.1278 36.3134 9.60781C36.3134 9.15181 36.3974 8.72781 36.5654 8.33581C36.7334 7.94381 36.9694 7.60381 37.2734 7.31581C37.5854 7.01981 37.9534 6.78781 38.3774 6.61981C38.8014 6.45181 39.2694 6.36781 39.7814 6.36781C40.3414 6.36781 40.8094 6.46781 41.1854 6.66781C41.5694 6.85981 41.8574 7.13981 42.0494 7.50781C42.2494 7.86781 42.3494 8.30381 42.3494 8.81581C42.3494 8.94381 42.3374 9.08381 42.3134 9.23581C42.2894 9.38781 42.2574 9.51981 42.2174 9.63181H37.2254V8.62381H40.7774L40.3574 9.17581C40.4054 9.09581 40.4454 9.01181 40.4774 8.92381C40.5094 8.82781 40.5254 8.74381 40.5254 8.67181C40.5254 8.43981 40.4894 8.24381 40.4174 8.08381C40.3534 7.92381 40.2534 7.79981 40.1174 7.71181C39.9894 7.62381 39.8214 7.57981 39.6134 7.57981C39.3974 7.57981 39.2014 7.62381 39.0254 7.71181C38.8574 7.79181 38.7094 7.90781 38.5814 8.05981C38.4614 8.21181 38.3614 8.39981 38.2814 8.62381C38.2094 8.83981 38.1534 9.08381 38.1134 9.35581C38.0734 9.64381 38.0854 9.89981 38.1494 10.1238C38.2214 10.3478 38.3414 10.5198 38.5094 10.6398C38.6854 10.7598 38.9014 10.8198 39.1574 10.8198C39.4614 10.8198 39.7254 10.7558 39.9494 10.6278C40.1734 10.4998 40.3654 10.3238 40.5254 10.0998L42.0854 10.4958C41.7974 11.0238 41.3974 11.4278 40.8854 11.7078C40.3814 11.9878 39.7774 12.1278 39.0734 12.1278ZM45.5131 6.48781L44.5651 12.0078H42.8011L43.7491 6.48781H45.5131ZM46.8091 8.34781C46.7211 8.26781 46.6251 8.19981 46.5211 8.14381C46.4251 8.07981 46.3091 8.04781 46.1731 8.04781C45.9731 8.03981 45.7931 8.09581 45.6331 8.21581C45.4731 8.32781 45.3411 8.47981 45.2371 8.67181C45.1331 8.85581 45.0651 9.05581 45.0331 9.27181L44.7571 8.63581C44.8291 8.25181 44.9691 7.88781 45.1771 7.54381C45.3931 7.19181 45.6451 6.90781 45.9331 6.69181C46.2291 6.46781 46.5371 6.35581 46.8571 6.35581C47.0571 6.35581 47.2331 6.39981 47.3851 6.48781C47.5451 6.57581 47.6811 6.69181 47.7931 6.83581L46.8091 8.34781ZM52.8583 3.60781H54.8983L53.4583 12.0078H51.4303L52.8583 3.60781ZM59.0332 8.64781C59.0572 8.47181 59.0572 8.31181 59.0332 8.16781C59.0172 8.01581 58.9612 7.89181 58.8652 7.79581C58.7772 7.69181 58.6332 7.63981 58.4332 7.63981C58.2412 7.63981 58.0692 7.67981 57.9172 7.75981C57.7652 7.83981 57.6412 7.95581 57.5452 8.10781C57.4492 8.25181 57.3852 8.42381 57.3532 8.62381L56.7652 12.0078H54.9652L55.9132 6.48781H57.7132L57.5932 7.25581C57.7852 6.98381 58.0172 6.76781 58.2892 6.60781C58.5692 6.43981 58.9012 6.35581 59.2852 6.35581C59.7332 6.35581 60.0852 6.44781 60.3412 6.63181C60.5972 6.81581 60.7692 7.06781 60.8572 7.38781C60.9532 7.69981 60.9732 8.05581 60.9172 8.45581L60.3052 12.0078H58.4452L59.0332 8.64781ZM63.6369 9.24781C63.5969 9.51181 63.6169 9.75181 63.6969 9.96781C63.7849 10.1838 63.9209 10.3558 64.1049 10.4838C64.2969 10.6038 64.5249 10.6678 64.7889 10.6758C65.1249 10.6838 65.4449 10.6078 65.7489 10.4478C66.0529 10.2878 66.3089 10.0958 66.5169 9.87181L66.2889 11.6238C66.0569 11.7758 65.7969 11.8998 65.5089 11.9958C65.2209 12.0838 64.8889 12.1278 64.5129 12.1278C63.9449 12.1278 63.4409 12.0038 63.0009 11.7558C62.5609 11.4998 62.2329 11.1558 62.0169 10.7238C61.8009 10.2918 61.7289 9.79581 61.8009 9.23581C61.8809 8.66781 62.0849 8.17181 62.4129 7.74781C62.7409 7.31581 63.1569 6.97981 63.6609 6.73981C64.1649 6.49181 64.7129 6.36781 65.3049 6.36781C65.6649 6.36781 65.9809 6.41181 66.2529 6.49981C66.5329 6.58781 66.7809 6.70381 66.9969 6.84781L66.7569 8.62381C66.6049 8.36781 66.4009 8.16781 66.1449 8.02381C65.8969 7.87981 65.6249 7.80781 65.3289 7.80781C65.0409 7.80781 64.7769 7.87581 64.5369 8.01181C64.2969 8.13981 64.0969 8.31181 63.9369 8.52781C63.7769 8.73581 63.6769 8.97581 63.6369 9.24781ZM70.2922 12.1278C69.7322 12.1278 69.2442 12.0278 68.8282 11.8278C68.4202 11.6198 68.1002 11.3278 67.8682 10.9518C67.6442 10.5758 67.5322 10.1278 67.5322 9.60781C67.5322 9.15181 67.6162 8.72781 67.7842 8.33581C67.9522 7.94381 68.1882 7.60381 68.4922 7.31581C68.8042 7.01981 69.1722 6.78781 69.5962 6.61981C70.0202 6.45181 70.4882 6.36781 71.0002 6.36781C71.5602 6.36781 72.0282 6.46781 72.4042 6.66781C72.7882 6.85981 73.0762 7.13981 73.2682 7.50781C73.4682 7.86781 73.5682 8.30381 73.5682 8.81581C73.5682 8.94381 73.5562 9.08381 73.5322 9.23581C73.5082 9.38781 73.4762 9.51981 73.4362 9.63181H68.4442V8.62381H71.9962L71.5762 9.17581C71.6242 9.09581 71.6642 9.01181 71.6962 8.92381C71.7282 8.82781 71.7442 8.74381 71.7442 8.67181C71.7442 8.43981 71.7082 8.24381 71.6362 8.08381C71.5722 7.92381 71.4722 7.79981 71.3362 7.71181C71.2082 7.62381 71.0402 7.57981 70.8322 7.57981C70.6162 7.57981 70.4202 7.62381 70.2442 7.71181C70.0762 7.79181 69.9282 7.90781 69.8002 8.05981C69.6802 8.21181 69.5802 8.39981 69.5002 8.62381C69.4282 8.83981 69.3722 9.08381 69.3322 9.35581C69.2922 9.64381 69.3042 9.89981 69.3682 10.1238C69.4402 10.3478 69.5602 10.5198 69.7282 10.6398C69.9042 10.7598 70.1202 10.8198 70.3762 10.8198C70.6802 10.8198 70.9442 10.7558 71.1682 10.6278C71.3922 10.4998 71.5842 10.3238 71.7442 10.0998L73.3042 10.4958C73.0162 11.0238 72.6162 11.4278 72.1042 11.7078C71.6002 11.9878 70.9962 12.1278 70.2922 12.1278ZM78.0879 8.64781C78.1119 8.47181 78.1119 8.31181 78.0879 8.16781C78.0719 8.01581 78.0159 7.89181 77.9199 7.79581C77.8319 7.69181 77.6879 7.63981 77.4879 7.63981C77.2959 7.63981 77.1239 7.67981 76.9719 7.75981C76.8199 7.83981 76.6959 7.95581 76.5999 8.10781C76.5039 8.25181 76.4399 8.42381 76.4079 8.62381L75.8199 12.0078H74.0199L74.9679 6.48781H76.7679L76.6479 7.25581C76.8399 6.98381 77.0719 6.76781 77.3439 6.60781C77.6239 6.43981 77.9559 6.35581 78.3399 6.35581C78.7879 6.35581 79.1399 6.44781 79.3959 6.63181C79.6519 6.81581 79.8239 7.06781 79.9119 7.38781C80.0079 7.69981 80.0279 8.05581 79.9719 8.45581L79.3599 12.0078H77.4999L78.0879 8.64781ZM81.0236 6.48781H84.6356L84.3716 7.98781H80.7596L81.0236 6.48781ZM82.2836 4.56781H84.0236L82.7276 12.0078H81.0116L82.2836 4.56781ZM85.567 4.41181C85.567 4.12381 85.671 3.89181 85.879 3.71581C86.087 3.53181 86.335 3.43981 86.623 3.43981C86.919 3.43981 87.167 3.53181 87.367 3.71581C87.575 3.89181 87.679 4.12381 87.679 4.41181C87.679 4.69981 87.575 4.93581 87.367 5.11981C87.167 5.30381 86.919 5.39581 86.623 5.39581C86.335 5.39581 86.087 5.30381 85.879 5.11981C85.671 4.93581 85.567 4.69981 85.567 4.41181ZM85.399 6.48781H87.139L86.203 12.0078H84.463L85.399 6.48781ZM87.8779 6.48781H89.7619L90.4939 9.51181L92.1859 6.48781H94.1179L90.0259 12.6678L87.8779 6.48781ZM96.5188 12.1278C95.9588 12.1278 95.4708 12.0278 95.0548 11.8278C94.6468 11.6198 94.3268 11.3278 94.0948 10.9518C93.8708 10.5758 93.7588 10.1278 93.7588 9.60781C93.7588 9.15181 93.8428 8.72781 94.0107 8.33581C94.1788 7.94381 94.4148 7.60381 94.7188 7.31581C95.0308 7.01981 95.3988 6.78781 95.8228 6.61981C96.2468 6.45181 96.7148 6.36781 97.2268 6.36781C97.7868 6.36781 98.2548 6.46781 98.6308 6.66781C99.0148 6.85981 99.3028 7.13981 99.4948 7.50781C99.6948 7.86781 99.7948 8.30381 99.7948 8.81581C99.7948 8.94381 99.7828 9.08381 99.7588 9.23581C99.7348 9.38781 99.7028 9.51981 99.6628 9.63181H94.6708V8.62381H98.2228L97.8028 9.17581C97.8508 9.09581 97.8908 9.01181 97.9228 8.92381C97.9548 8.82781 97.9708 8.74381 97.9708 8.67181C97.9708 8.43981 97.9348 8.24381 97.8628 8.08381C97.7988 7.92381 97.6988 7.79981 97.5628 7.71181C97.4348 7.62381 97.2668 7.57981 97.0588 7.57981C96.8428 7.57981 96.6468 7.62381 96.4708 7.71181C96.3028 7.79181 96.1548 7.90781 96.0268 8.05981C95.9068 8.21181 95.8068 8.39981 95.7268 8.62381C95.6548 8.83981 95.5988 9.08381 95.5588 9.35581C95.5188 9.64381 95.5308 9.89981 95.5948 10.1238C95.6668 10.3478 95.7868 10.5198 95.9548 10.6398C96.1308 10.7598 96.3468 10.8198 96.6028 10.8198C96.9068 10.8198 97.1708 10.7558 97.3948 10.6278C97.6188 10.4998 97.8108 10.3238 97.9708 10.0998L99.5308 10.4958C99.2428 11.0238 98.8428 11.4278 98.3308 11.7078C97.8268 11.9878 97.2228 12.1278 96.5188 12.1278Z" fill="white"/>
</g>
<defs>
<filter id="filter0_dd_62714_22365" x="-0.00654238" y="1.11579" width="101.844" height="14.1051" filterUnits="userSpaceOnUse" color-interpolation-filters="sRGB">
<feFlood flood-opacity="0" result="BackgroundImageFix"/>
<feColorMatrix in="SourceAlpha" type="matrix" values="0 0 0 0 0 0 0 0 0 0 0 0 0 0 0 0 0 0 127 0" result="hardAlpha"/>
<feMorphology radius="0.510638" operator="dilate" in="SourceAlpha" result="effect1_dropShadow_62714_22365"/>
<feOffset dy="0.510638"/>
<feGaussianBlur stdDeviation="0.765957"/>
<feColorMatrix type="matrix" values="0 0 0 0 0 0 0 0 0 0 0 0 0 0 0 0 0 0 0.15 0"/>
<feBlend mode="normal" in2="BackgroundImageFix" result="effect1_dropShadow_62714_22365"/>
<feColorMatrix in="SourceAlpha" type="matrix" values="0 0 0 0 0 0 0 0 0 0 0 0 0 0 0 0 0 0 127 0" result="hardAlpha"/>
<feOffset dy="0.510638"/>
<feGaussianBlur stdDeviation="0.510638"/>
<feColorMatrix type="matrix" values="0 0 0 0 0 0 0 0 0 0 0 0 0 0 0 0 0 0 0.3 0"/>
<feBlend mode="normal" in2="effect1_dropShadow_62714_22365" result="effect2_dropShadow_62714_22365"/>
<feBlend mode="normal" in="SourceGraphic" in2="effect2_dropShadow_62714_22365" result="shape"/>
</filter>
</defs>
</svg>
