<svg width="342" height="107" viewBox="0 0 342 107" fill="none" xmlns="http://www.w3.org/2000/svg">
<path d="M215.036 80.2509H149.647C146.395 80.2509 143.75 77.6026 143.75 74.354C143.75 71.1053 146.443 68.362 149.694 68.362L149.715 68.359L149.739 68.362H209.139C209.842 68.3617 210.523 68.1118 211.06 67.6568C211.596 67.2018 211.954 66.5712 212.07 65.8772L218.014 30.2105C218.086 29.7847 218.065 29.3482 217.951 28.9316C217.837 28.515 217.633 28.1284 217.354 27.7988C217.074 27.4692 216.727 27.2047 216.334 27.0237C215.942 26.8426 215.515 26.7495 215.083 26.7509H146.178L143.087 8.42415C142.969 7.76089 142.626 7.15848 142.116 6.71798C141.607 6.27747 140.961 6.02565 140.287 6.00476C140.24 5.99584 140.207 5.94531 140.16 5.94531H125.917C125.128 5.94531 124.372 6.25846 123.815 6.81586C123.258 7.37326 122.944 8.12925 122.944 8.91753C122.944 9.70582 123.258 10.4618 123.815 11.0192C124.372 11.5766 125.128 11.8898 125.917 11.8898H137.645L146.273 63.0595C141.393 64.5248 137.806 69.004 137.806 74.354C137.81 77.4933 139.058 80.5029 141.278 82.7227C143.498 84.9426 146.508 86.1914 149.647 86.1953H215.036C215.824 86.1953 216.58 85.8822 217.137 85.3248C217.695 84.7674 218.008 84.0114 218.008 83.2231C218.008 82.4348 217.695 81.6788 217.137 81.1214C216.58 80.564 215.824 80.2509 215.036 80.2509ZM208.604 50.5286H198.775L199.586 44.5842H209.591L208.604 50.5286ZM192.774 50.5286H182.389V44.5842H193.585L192.774 50.5286ZM176.444 50.5286H166.06L165.248 44.5842H176.444V50.5286ZM160.062 50.5286H150.232L149.243 44.5842H159.25L160.062 50.5286ZM152.212 62.4175L151.222 56.4731H160.873L161.684 62.4175H152.212ZM167.685 62.4175L166.874 56.4731H176.444V62.4175H167.685ZM182.389 62.4175V56.4731H191.959L191.148 62.4175H182.389ZM197.152 62.4175L197.963 56.4731H207.614L206.624 62.4175H197.152ZM211.573 32.6953L210.583 38.6398H200.401L201.212 32.6953H211.573ZM195.211 32.6953L194.4 38.6398H182.389V32.6953H195.211ZM176.444 32.6953V38.6398H164.434L163.622 32.6953H176.444ZM157.621 32.6953L158.433 38.6398H148.247L147.257 32.6953H157.621Z" fill="#6A4FA3"/>
<path d="M158.611 101.056C163.536 101.056 167.528 97.0639 167.528 92.1393C167.528 87.2148 163.536 83.2227 158.611 83.2227C153.687 83.2227 149.694 87.2148 149.694 92.1393C149.694 97.0639 153.687 101.056 158.611 101.056Z" fill="#E1E8ED"/>
<path d="M158.611 104.028C152.054 104.028 146.722 98.6956 146.722 92.1389C146.722 85.5822 152.054 80.25 158.611 80.25C165.168 80.25 170.5 85.5822 170.5 92.1389C170.5 98.6956 165.168 104.028 158.611 104.028ZM158.611 86.1944C155.333 86.1944 152.667 88.8605 152.667 92.1389C152.667 95.4173 155.333 98.0833 158.611 98.0833C161.889 98.0833 164.556 95.4173 164.556 92.1389C164.556 88.8605 161.889 86.1944 158.611 86.1944Z" fill="#292F33"/>
<path d="M200.222 101.056C205.147 101.056 209.139 97.0639 209.139 92.1393C209.139 87.2148 205.147 83.2227 200.222 83.2227C195.298 83.2227 191.306 87.2148 191.306 92.1393C191.306 97.0639 195.298 101.056 200.222 101.056Z" fill="#E1E8ED"/>
<path d="M200.222 104.028C193.666 104.028 188.333 98.6956 188.333 92.1389C188.333 85.5822 193.666 80.25 200.222 80.25C206.779 80.25 212.111 85.5822 212.111 92.1389C212.111 98.6956 206.779 104.028 200.222 104.028ZM200.222 86.1944C196.944 86.1944 194.278 88.8605 194.278 92.1389C194.278 95.4173 196.944 98.0833 200.222 98.0833C203.501 98.0833 206.167 95.4173 206.167 92.1389C206.167 88.8605 203.501 86.1944 200.222 86.1944Z" fill="#292F33"/>
<path d="M125 39.5H66.5" stroke="black" stroke-width="0.666667" stroke-linecap="round"/>
<path d="M125 74L96 74" stroke="black" stroke-width="0.666667" stroke-linecap="round"/>
<path d="M128 57.5H30.5" stroke="black" stroke-width="0.666667" stroke-linecap="round"/>
<line x1="4.37114e-08" y1="104.5" x2="268" y2="104.5" stroke="#73777F"/>
</svg>
