<svg width="18" height="18" viewBox="0 0 18 18" fill="none" xmlns="http://www.w3.org/2000/svg">
<path d="M2.25 9H9V10.125H2.25V9ZM1.125 6.1875H6.75V7.3125H1.125V6.1875Z" fill="black"/>
<path d="M16.8291 9.34088L15.1416 5.40337C15.0983 5.30217 15.0262 5.21591 14.9343 5.15531C14.8424 5.09471 14.7347 5.06244 14.6246 5.0625H12.9371V3.9375C12.9371 3.78832 12.8779 3.64524 12.7724 3.53975C12.6669 3.43426 12.5238 3.375 12.3746 3.375H3.37464V4.5H11.8121V11.5627C11.5558 11.7116 11.3315 11.9097 11.1521 12.1456C10.9728 12.3816 10.8419 12.6507 10.767 12.9375H7.23226C7.09536 12.4073 6.76976 11.9451 6.31651 11.6378C5.86326 11.3304 5.31347 11.1989 4.7702 11.2679C4.22693 11.3369 3.72748 11.6017 3.36546 12.0126C3.00344 12.4235 2.80371 12.9524 2.80371 13.5C2.80371 14.0476 3.00344 14.5765 3.36546 14.9874C3.72748 15.3983 4.22693 15.6631 4.7702 15.7321C5.31347 15.8011 5.86326 15.6696 6.31651 15.3622C6.76976 15.0549 7.09536 14.5927 7.23226 14.0625H10.767C10.8894 14.5453 11.1692 14.9734 11.5623 15.2793C11.9553 15.5851 12.4391 15.7512 12.9371 15.7512C13.4352 15.7512 13.919 15.5851 14.312 15.2793C14.7051 14.9734 14.9849 14.5453 15.1073 14.0625H16.3121C16.4613 14.0625 16.6044 14.0032 16.7099 13.8977C16.8154 13.7923 16.8746 13.6492 16.8746 13.5V9.5625C16.8747 9.4863 16.8592 9.41089 16.8291 9.34088ZM5.06214 14.625C4.83964 14.625 4.62213 14.559 4.43712 14.4354C4.25212 14.3118 4.10792 14.1361 4.02277 13.9305C3.93763 13.725 3.91535 13.4988 3.95876 13.2805C4.00216 13.0623 4.10931 12.8618 4.26664 12.7045C4.42398 12.5472 4.62443 12.44 4.84266 12.3966C5.06089 12.3532 5.28709 12.3755 5.49266 12.4606C5.69822 12.5458 5.87393 12.69 5.99754 12.875C6.12116 13.06 6.18714 13.2775 6.18714 13.5C6.18684 13.7983 6.06822 14.0843 5.85731 14.2952C5.64639 14.5061 5.36042 14.6247 5.06214 14.625ZM12.9371 6.1875H14.2534L15.4594 9H12.9371V6.1875ZM12.9371 14.625C12.7146 14.625 12.4971 14.559 12.3121 14.4354C12.1271 14.3118 11.9829 14.1361 11.8978 13.9305C11.8126 13.725 11.7903 13.4988 11.8338 13.2805C11.8772 13.0623 11.9843 12.8618 12.1416 12.7045C12.299 12.5472 12.4994 12.44 12.7177 12.3966C12.9359 12.3532 13.1621 12.3755 13.3677 12.4606C13.5732 12.5458 13.7489 12.69 13.8725 12.875C13.9962 13.06 14.0621 13.2775 14.0621 13.5C14.0618 13.7983 13.9432 14.0843 13.7323 14.2952C13.5214 14.5061 13.2354 14.6247 12.9371 14.625ZM15.7496 12.9375H15.1073C14.9834 12.4557 14.7031 12.0286 14.3103 11.7232C13.9176 11.4178 13.4346 11.2514 12.9371 11.25V10.125H15.7496V12.9375Z" fill="black"/>
</svg>
