<svg width="453" height="395" viewBox="0 0 453 395" fill="none" xmlns="http://www.w3.org/2000/svg">
<rect x="69.5" y="10.5" width="317" height="156" rx="11.5" stroke="black"/>
<line x1="69" y1="37.5" x2="387" y2="37.5" stroke="#DEDEDE"/>
<rect x="141.5" y="17.5" width="163" height="13" rx="6.5" stroke="black"/>
<rect x="86.5" y="77.5" width="29" height="41" rx="3.5" stroke="black"/>
<g clip-path="url(#clip0_63355_34124)">
<path d="M95.9844 99.0938H97.0469V103.344H95.9844V99.0938ZM98.6406 99.0938H99.7031V103.344H98.6406V99.0938ZM101.297 99.0938H102.359V103.344H101.297V99.0938ZM103.953 99.0938H105.016V103.344H103.953V99.0938Z" fill="black"/>
<path d="M107.728 94.5781L105.084 89.5312H103.885L106.528 94.5781H94.4717L97.1153 89.5312H95.9159L93.2723 94.5781H92.5312V98.2792L93.9542 105.469H107.045L108.469 98.3495V94.5781H107.728ZM107.406 98.2443L106.174 104.406H94.827L93.5938 98.1751V98.0312H107.406V98.2443ZM107.406 96.9688H93.5938V95.6406H107.406V96.9688Z" fill="black"/>
</g>
<rect x="137.5" y="77.5" width="29" height="41" rx="3.5" stroke="black"/>
<path d="M148.767 103.472L149.722 101.101C149.783 100.966 149.874 100.855 149.996 100.768C150.119 100.681 150.255 100.638 150.405 100.638H152.146V97.2284C150.531 97.1963 149.175 96.9942 148.08 96.622C146.986 96.2499 146.438 95.8131 146.438 95.3116C146.438 94.7723 147.025 94.3174 148.197 93.9467C149.37 93.576 150.804 93.3906 152.5 93.3906C154.199 93.3906 155.635 93.576 156.806 93.9467C157.977 94.3174 158.562 94.7723 158.562 95.3116C158.562 95.8216 158.013 96.2608 156.913 96.6291C155.814 96.9965 154.461 97.1963 152.855 97.2284V100.638H154.596C154.743 100.638 154.878 100.681 155.002 100.768C155.126 100.855 155.218 100.966 155.279 101.101L156.233 103.471H155.497L154.647 101.346H150.353L149.503 103.471L148.767 103.472ZM152.5 96.5236C153.773 96.5236 154.919 96.4051 155.939 96.168C156.959 95.9309 157.582 95.6452 157.809 95.3109C157.582 94.9766 156.959 94.6909 155.939 94.4538C154.919 94.2168 153.773 94.0985 152.5 94.099C151.228 94.099 150.082 94.2175 149.062 94.4545C148.042 94.6916 147.419 94.9773 147.192 95.3116C147.419 95.646 148.042 95.9317 149.062 96.1687C150.082 96.4058 151.228 96.5236 152.5 96.5236Z" fill="black"/>
<rect x="188.5" y="77.5" width="29" height="41" rx="3.5" stroke="black"/>
<path d="M208.812 99.0312H206.688V96.9062H207.75C208.032 96.9062 208.302 96.7943 208.501 96.5951C208.701 96.3958 208.812 96.1255 208.812 95.8438V92.6562C208.812 92.3745 208.701 92.1042 208.501 91.9049C208.302 91.7057 208.032 91.5938 207.75 91.5938H199.25C198.968 91.5938 198.698 91.7057 198.499 91.9049C198.299 92.1042 198.188 92.3745 198.188 92.6562V95.8438C198.188 96.1255 198.299 96.3958 198.499 96.5951C198.698 96.7943 198.968 96.9062 199.25 96.9062H200.312V99.0312H198.188C197.906 99.0312 197.635 99.1432 197.436 99.3424C197.237 99.5417 197.125 99.812 197.125 100.094V101.156C197.125 101.438 197.237 101.708 197.436 101.908C197.635 102.107 197.906 102.219 198.188 102.219H198.719V104.875C198.719 105.016 198.775 105.151 198.874 105.251C198.974 105.35 199.109 105.406 199.25 105.406C199.391 105.406 199.526 105.35 199.626 105.251C199.725 105.151 199.781 105.016 199.781 104.875V102.219H207.219V104.875C207.219 105.016 207.275 105.151 207.374 105.251C207.474 105.35 207.609 105.406 207.75 105.406C207.891 105.406 208.026 105.35 208.126 105.251C208.225 105.151 208.281 105.016 208.281 104.875V102.219H208.812C209.094 102.219 209.365 102.107 209.564 101.908C209.763 101.708 209.875 101.438 209.875 101.156V100.094C209.875 99.812 209.763 99.5417 209.564 99.3424C209.365 99.1432 209.094 99.0312 208.812 99.0312ZM199.25 92.6562H207.75V95.8438H199.25V92.6562ZM201.375 96.9062H205.625V99.0312H201.375V96.9062ZM208.812 101.156H198.188V100.094H208.812V101.156Z" fill="black"/>
<rect x="239.5" y="77.5" width="29" height="41" rx="3.5" stroke="black"/>
<path d="M249.125 100.917H259.042M249.125 98.0833H259.042M261.167 91H247V93.8333H249.125V105.167H259.042V93.8333H261.167V91Z" stroke="black" stroke-linecap="round" stroke-linejoin="round"/>
<path d="M256.208 91C256.208 91.5636 255.984 92.1041 255.586 92.5026C255.187 92.9011 254.647 93.125 254.083 93.125C253.519 93.125 252.979 92.9011 252.58 92.5026C252.182 92.1041 251.958 91.5636 251.958 91" stroke="black" stroke-linecap="round" stroke-linejoin="round"/>
<rect x="290.5" y="77.5" width="29" height="41" rx="3.5" stroke="black"/>
<g clip-path="url(#clip1_63355_34124)">
<path d="M311.584 101.043H297.417M297.417 93.0742H303.792M302.375 90.418H298.834C298.166 90.418 297.832 90.418 297.625 90.6255C297.417 90.8331 297.417 91.1667 297.417 91.8346V103.168C297.417 103.836 297.417 104.17 297.625 104.377C297.832 104.585 298.166 104.585 298.834 104.585H300.25L301.667 103.168L303.084 104.585H310.167C310.835 104.585 311.169 104.585 311.376 104.377C311.584 104.17 311.584 103.836 311.584 103.168V100.503C311.584 98.7349 311.584 97.8509 311.059 97.2506C310.535 96.6499 309.659 96.5305 307.908 96.2918L307.468 96.2316C305.716 95.9929 304.84 95.8736 304.316 95.2729C303.792 94.6726 303.792 93.7889 303.792 92.0206V91.8346C303.792 91.1667 303.792 90.8331 303.584 90.6255C303.377 90.418 303.043 90.418 302.375 90.418Z" stroke="black" stroke-linecap="round" stroke-linejoin="round"/>
<path d="M301.312 98.2109C301.899 98.2109 302.375 97.7352 302.375 97.1484C302.375 96.5616 301.899 96.0859 301.312 96.0859C300.726 96.0859 300.25 96.5616 300.25 97.1484C300.25 97.7352 300.726 98.2109 301.312 98.2109Z" fill="black" stroke="black" stroke-linecap="round" stroke-linejoin="round"/>
</g>
<rect x="341.5" y="77.5" width="29" height="41" rx="3.5" stroke="black"/>
<path d="M359.688 97.3125V103.688M359.688 103.688V106.167H350.479V103.688M359.688 103.688H362.167V94.8333L360.396 93.0625M350.479 103.688H348V94.8333L349.771 93.0625M350.479 103.688V97.3125M349.771 93.0625L352.25 92M349.771 93.0625L355.083 98.0208M352.25 92H357.917M352.25 92L355.083 98.0208M357.917 92L360.396 93.0625M357.917 92L355.083 98.0208M360.396 93.0625L355.083 98.0208M355.083 98.0208V106.167" stroke="black" stroke-linecap="round" stroke-linejoin="round"/>
<path fill-rule="evenodd" clip-rule="evenodd" d="M151.235 24.9388H151.564L153.643 27.0221L153.022 27.643L150.939 25.5638V25.2346L150.826 25.118C150.351 25.5263 149.735 25.7721 149.064 25.7721C147.568 25.7721 146.355 24.5596 146.355 23.0638C146.355 21.568 147.568 20.3555 149.064 20.3555C150.56 20.3555 151.772 21.568 151.772 23.0638C151.772 23.7346 151.526 24.3513 151.118 24.8263L151.235 24.9388ZM147.189 23.0638C147.189 24.1013 148.026 24.9388 149.064 24.9388C150.101 24.9388 150.939 24.1013 150.939 23.0638C150.939 22.0263 150.101 21.1888 149.064 21.1888C148.026 21.1888 147.189 22.0263 147.189 23.0638Z" fill="black" fill-opacity="0.54"/>
<path d="M133.396 193.176C126.496 193.176 119.638 187.632 117.995 185.168L110.603 185.783L101.979 191.328C102.389 193.792 103.827 199.583 106.291 203.032C109.371 207.345 132.164 220.897 146.948 219.665C161.733 218.433 160.501 203.032 159.269 195.64C158.037 188.248 151.26 181.471 146.948 183.319C143.499 184.798 146.743 189.274 148.796 191.328H145.1C144.074 191.944 140.295 193.176 133.396 193.176Z" fill="#8B4500" stroke="black" stroke-width="1.23204"/>
<path d="M78.5689 191.325L86.5772 148.204V146.355H113.066L118.61 151.9H114.298L118.61 191.325H109.986H101.978H78.5689Z" fill="#6A4FA3" stroke="black" stroke-width="1.23204"/>
<path d="M114.299 151.902H90.274L87.1939 147.59" stroke="black" stroke-width="1.23204"/>
<path d="M85.3457 166.07V190.095" stroke="black" stroke-width="1.23204"/>
<path d="M15.1194 180.234C28.4255 151.651 55.1608 146.559 66.8652 147.585C71.3006 154.485 77.7483 150.46 80.4177 147.585H85.9619L78.5696 191.939H85.9619C71.6702 197.36 50.0273 198.715 40.9923 198.715L44.0724 176.538L40.9923 180.234H15.1194Z" fill="#409B81" stroke="black" stroke-width="1.23204"/>
<path d="M87.8092 121.102H82.265L80.4169 122.949L69.9445 127.261C68.9178 128.903 66.8644 132.928 66.8644 135.885C53.0655 126.521 60.2935 119.663 65.6324 117.404C66.0431 116.584 67.1108 113.956 68.0965 110.012C71.7926 103.852 76.7208 112.476 77.3368 110.012C77.8296 108.041 79.5956 106.317 80.4169 105.702H89.0412C90.2732 102.005 95.8175 102.621 97.6656 104.47C103.21 108.166 95.8175 114.942 92.1214 114.942C91.6286 118.884 89.0413 120.691 87.8092 121.102Z" fill="#D96E05" stroke="black" stroke-width="1.23204"/>
<path d="M16.3511 181.469H40.376C36.6798 191.325 38.5279 196.869 41.608 198.717C57.3782 200.689 78.1586 194.611 86.5776 191.325H97.05L97.666 194.405L101.362 192.557H110.602C112.656 191.941 116.763 191.079 116.763 192.557C112.451 199.333 89.6577 206.11 58.8566 217.198C11.5461 224.097 10.8069 196.253 16.3511 181.469Z" fill="#8B4500" stroke="black" stroke-width="1.23204"/>
<path d="M103.21 196.867C102.389 197.278 99.637 198.346 95.2017 199.331" stroke="black" stroke-width="1.23204"/>
<path d="M151.26 192.559C143.868 191.943 131.054 192.312 138.939 198.719C146.332 198.719 149.001 198.719 149.412 198.719L135.243 199.336C133.19 201.8 132.656 206.482 146.948 205.496C146.948 206.482 141.198 206.728 138.323 206.728C136.681 208.371 135.366 211.903 143.251 212.888C146.701 212.395 147.153 213.915 146.948 214.736H140.787C138.323 216.379 136.598 219.541 149.412 219.048" stroke="black" stroke-width="1.23204"/>
<path d="M77.9537 137.731C84.3604 135.76 85.1407 127.054 84.73 122.947L81.65 121.715L78.5699 123.563L76.7218 124.179V121.715H72.4096V124.179L67.4815 122.947V127.259C62.5533 129.23 65.4281 130.544 67.4815 130.955V147.588C70.9312 153.502 75.9004 150.873 77.9537 148.82V137.731Z" fill="#8B4500" stroke="black" stroke-width="1.23204"/>
<path d="M29.2873 333.625H60.7044C59.4723 340.196 57.0083 354.57 57.0083 359.498C66.3718 366.397 70.3554 371.818 71.1768 373.666H14.5027C16.9668 365.781 25.3858 360.935 29.2873 359.498V333.625Z" fill="#FF5613" stroke="black" stroke-width="1.23204"/>
<path d="M99.5137 333.625H139.555C139.555 335.268 139.802 340.771 140.787 349.642C142.019 360.73 147.563 361.962 153.724 361.962C162.102 361.469 167.892 369.149 169.74 373.05H107.522V355.802L99.5137 333.625Z" fill="#FF5613" stroke="black" stroke-width="1.23204"/>
<path d="M135.244 333.012C131.794 319.213 114.505 243.073 106.291 207.96C103.211 207.344 94.8331 207.344 85.9624 207.344C63.2928 216.707 44.8942 218.637 38.5287 218.432L30.5204 333.012H59.4734L71.1778 239.377L101.979 333.012H135.244Z" fill="#FFBA00" stroke="black" stroke-width="1.23204"/>
<path d="M106.906 207.959L105.674 200.566C103.21 201.552 91.5057 205.905 85.9615 207.959H106.906Z" fill="#409B81" stroke="black" stroke-width="1.23204"/>
<path d="M98.2812 194.406C97.0492 195.228 93.3531 196.87 88.4249 196.87" stroke="black" stroke-width="1.23204"/>
<path d="M50.8486 360.113C47.1525 359.497 38.7746 358.635 34.8321 360.113" stroke="black" stroke-width="1.23204"/>
<path d="M361.44 108.623C354.174 112.775 361.873 117.273 366.63 119.003L374.414 120.951H381.551L384.794 126.79L382.848 129.385V133.277L381.551 135.224C381.983 136.089 383.627 138.467 386.741 141.062C403.608 141.711 401.013 131.331 401.013 120.951C397.899 108.496 390.633 109.274 387.389 111.22L386.741 116.41C385.011 115.544 380.642 112.775 377.009 108.623C372.468 103.433 363.386 107.325 361.44 108.623Z" fill="#0E16E5" stroke="black" stroke-width="1.29748"/>
<path d="M373.767 144.304L374.415 135.222C368.364 134.184 367.137 124.41 367.279 119.652H381.552V124.194C387.26 125.232 384.795 128.086 382.849 129.383V133.276C382.416 133.276 381.552 133.665 381.552 135.222C381.552 136.779 383.714 138.466 384.795 139.115C385.228 139.763 386.093 141.58 386.093 143.656C384.017 145.732 377.01 144.953 373.767 144.304Z" fill="#FBEFE3" stroke="black" stroke-width="1.29748"/>
<path d="M385.443 188.422L324.462 187.124V146.254H385.443V188.422Z" stroke="black" stroke-width="1.29748"/>
<path d="M344.573 207.234V199.449C347.168 199.449 361.657 204.639 368.577 207.234H344.573Z" fill="#FCBD21" stroke="black" stroke-width="1.29748"/>
<path d="M400.364 279.244C426.314 246.548 422.854 223.669 417.88 216.316C415.804 216.316 386.308 210.694 371.819 207.883H347.167C347.167 210.478 335.49 307.572 329.651 355.795H373.766L376.361 360.337L417.88 340.874L389.984 294.814C391.498 292.651 395.693 286.51 400.364 279.244Z" fill="#FF4200" stroke="black" stroke-width="1.29748"/>
<path d="M379.606 238.375L354.954 281.192C353.224 284.868 350.802 295.334 354.954 307.79C359.106 320.246 369.226 344.984 373.767 355.797" stroke="black" stroke-width="1.29748"/>
<path d="M383.497 182.58L366.63 189.067C393.228 198.149 412.042 196.203 412.042 194.906C410.485 193.349 409.23 179.985 408.798 173.497L412.042 176.741H439.289C416.583 137.817 388.687 144.304 385.443 144.304C383.886 146.899 378.307 147.548 375.712 147.548L383.497 182.58Z" fill="#FCBD21" stroke="black" stroke-width="1.29748"/>
<path d="M333.545 360.986V357.094H369.874C370.306 360.337 370.523 366.825 367.928 366.825C363.257 366.825 360.359 374.177 359.494 377.853H305C305.865 376.34 307.725 373.182 308.244 372.663C308.244 372.663 316.029 365.527 322.516 365.527C330.301 365.008 333.112 362.284 333.545 360.986Z" fill="#FCBD21" stroke="black" stroke-width="1.29748"/>
<path d="M368.577 367.472C379.475 367.472 381.768 360.985 381.551 357.741L413.989 343.469V346.712L418.53 353.849L421.773 363.58L388.687 384.988C378.091 384.556 361.815 384.988 359.494 384.988C359.494 384.988 354.953 367.472 368.577 367.472Z" fill="#FCBD21" stroke="black" stroke-width="1.29748"/>
<path d="M359.494 373.312H307.595L305 377.854H358.197L359.494 373.312Z" fill="#FFEEC3" stroke="black" stroke-width="1.29748"/>
<path d="M321.866 366.176C322.731 366.825 324.202 368.641 323.164 370.717" stroke="black" stroke-width="1.29748"/>
<path d="M387.39 380.447H358.846L359.494 384.989H388.039L421.773 363.58L419.827 359.039L387.39 380.447Z" fill="#FFEEC3" stroke="black" stroke-width="1.29748"/>
<path d="M319.921 206.584C332.377 224.229 341.978 209.178 345.222 199.447L338.086 187.123H325.111C327.274 176.527 332.247 153.389 334.842 145.604C333.545 136.522 327.706 139.766 325.111 141.71C321.219 135.222 317.326 141.71 317.326 144.306C309.542 139.765 310.839 150.144 310.839 153.387C306.168 149.235 306.298 155.117 306.946 158.577L315.38 172.2C315.164 178.039 315.769 193.09 319.921 206.584Z" fill="#FBEFE3" stroke="black" stroke-width="1.29748"/>
<path d="M325.111 141.711V146.901" stroke="black" stroke-width="1.29748"/>
<path d="M410.744 216.964C441.884 215.667 441.884 187.771 436.045 176.742H412.691C428.261 205.806 387.174 197.069 364.684 188.419H354.304C352.747 188.419 353.656 191.014 354.304 192.312L349.763 188.419H334.193C326.408 192.312 349.763 200.746 358.845 202.692C367.928 204.638 389.742 217.839 410.744 216.964Z" fill="#FBEFE3" stroke="black" stroke-width="1.29748"/>
<path d="M340.681 189.719C342.843 192.53 349.893 198.282 360.792 198.801" stroke="black" stroke-width="1.29748"/>
<path d="M310.839 153.391L314.731 160.527" stroke="black" stroke-width="1.29748"/>
<path d="M317.326 144.957L318.624 150.796" stroke="black" stroke-width="1.29748"/>
<path d="M325.111 145.602L317.975 151.44L375.064 152.089L376.361 187.77L385.443 183.877V145.602H325.111Z" fill="#B091F2" stroke="black" stroke-width="1.29748"/>
<path d="M375.712 151.438V187.767H317.325V151.438H375.712Z" fill="#6A4FA3" stroke="black" stroke-width="1.29748"/>
<path d="M375.712 152.093L384.794 146.254" stroke="black" stroke-width="1.29748"/>
<path d="M373.118 368.121C373.767 369.635 374.675 373.311 373.118 375.906" stroke="black" stroke-width="1.29748"/>
<path d="M353.654 191.664C355.817 193.827 361.699 197.503 367.927 194.908" stroke="black" stroke-width="1.29748"/>
<rect x="173.5" y="319.5" width="131" height="54" stroke="black"/>
<rect x="174" y="320" width="130" height="53" fill="#6A4FA3"/>
<rect x="208" y="320" width="61" height="14" fill="#CEB8FC"/>
<rect x="208" y="366" width="61" height="7" fill="#CEB8FC"/>
<rect x="189.5" y="277.5" width="99.1162" height="41.0012" stroke="black"/>
<rect x="190" y="278" width="98.1162" height="40.0012" fill="#6A4FA3"/>
<rect x="215.661" y="278" width="46.0391" height="10.5664" fill="#CEB8FC"/>
<rect x="215.661" y="312.719" width="46.0391" height="5.28318" fill="#CEB8FC"/>
<defs>
<clipPath id="clip0_63355_34124">
<rect width="17" height="17" fill="white" transform="translate(92 89)"/>
</clipPath>
<clipPath id="clip1_63355_34124">
<rect width="17" height="17" fill="white" transform="translate(296 89)"/>
</clipPath>
</defs>
</svg>
