<svg width="453" height="395" viewBox="0 0 453 395" fill="none" xmlns="http://www.w3.org/2000/svg">
<g clip-path="url(#clip0_63355_34133)">
<line x1="75" y1="53.5" x2="393" y2="53.5" stroke="#DEDEDE"/>
<rect x="179.5" y="71.5" width="29" height="41" rx="3.5" stroke="black"/>
<g clip-path="url(#clip1_63355_34133)">
<path d="M188.984 93.0938H190.047V97.3438H188.984V93.0938ZM191.641 93.0938H192.703V97.3438H191.641V93.0938ZM194.297 93.0938H195.359V97.3438H194.297V93.0938ZM196.953 93.0938H198.016V97.3438H196.953V93.0938Z" fill="black"/>
<path d="M200.728 88.5781L198.084 83.5312H196.885L199.528 88.5781H187.472L190.115 83.5312H188.916L186.272 88.5781H185.531V92.2792L186.954 99.4688H200.045L201.469 92.3495V88.5781H200.728ZM200.406 92.2443L199.174 98.4062H187.827L186.594 92.1751V92.0312H200.406V92.2443ZM200.406 90.9688H186.594V89.6406H200.406V90.9688Z" fill="black"/>
</g>
<rect x="215.5" y="71.5" width="29" height="41" rx="3.5" stroke="black"/>
<path d="M226.767 97.4716L227.722 95.1008C227.783 94.9658 227.874 94.8548 227.996 94.7679C228.119 94.681 228.255 94.6376 228.405 94.6376H230.146V91.2284C228.531 91.1963 227.175 90.9942 226.08 90.622C224.986 90.2499 224.438 89.8131 224.438 89.3116C224.438 88.7723 225.025 88.3174 226.197 87.9467C227.37 87.576 228.804 87.3906 230.5 87.3906C232.199 87.3906 233.635 87.576 234.806 87.9467C235.977 88.3174 236.562 88.7723 236.562 89.3116C236.562 89.8216 236.013 90.2608 234.913 90.6291C233.814 90.9965 232.461 91.1963 230.855 91.2284V94.6376H232.596C232.743 94.6376 232.878 94.681 233.002 94.7679C233.126 94.8548 233.218 94.9658 233.279 95.1008L234.233 97.4709H233.497L232.647 95.3459H228.353L227.503 97.4709L226.767 97.4716ZM230.5 90.5236C231.773 90.5236 232.919 90.4051 233.939 90.168C234.959 89.9309 235.582 89.6452 235.809 89.3109C235.582 88.9766 234.959 88.6909 233.939 88.4538C232.919 88.2168 231.773 88.0985 230.5 88.099C229.228 88.099 228.082 88.2175 227.062 88.4545C226.042 88.6916 225.419 88.9773 225.192 89.3116C225.419 89.646 226.042 89.9317 227.062 90.1687C228.082 90.4058 229.228 90.5236 230.5 90.5236Z" fill="black"/>
<rect x="251.5" y="71.5" width="29" height="41" rx="3.5" stroke="black"/>
<path d="M271.812 93.0312H269.688V90.9062H270.75C271.032 90.9062 271.302 90.7943 271.501 90.5951C271.701 90.3958 271.812 90.1255 271.812 89.8438V86.6562C271.812 86.3745 271.701 86.1042 271.501 85.9049C271.302 85.7057 271.032 85.5938 270.75 85.5938H262.25C261.968 85.5938 261.698 85.7057 261.499 85.9049C261.299 86.1042 261.188 86.3745 261.188 86.6562V89.8438C261.188 90.1255 261.299 90.3958 261.499 90.5951C261.698 90.7943 261.968 90.9062 262.25 90.9062H263.312V93.0312H261.188C260.906 93.0312 260.635 93.1432 260.436 93.3424C260.237 93.5417 260.125 93.812 260.125 94.0938V95.1562C260.125 95.438 260.237 95.7083 260.436 95.9076C260.635 96.1068 260.906 96.2188 261.188 96.2188H261.719V98.875C261.719 99.0159 261.775 99.151 261.874 99.2507C261.974 99.3503 262.109 99.4062 262.25 99.4062C262.391 99.4062 262.526 99.3503 262.626 99.2507C262.725 99.151 262.781 99.0159 262.781 98.875V96.2188H270.219V98.875C270.219 99.0159 270.275 99.151 270.374 99.2507C270.474 99.3503 270.609 99.4062 270.75 99.4062C270.891 99.4062 271.026 99.3503 271.126 99.2507C271.225 99.151 271.281 99.0159 271.281 98.875V96.2188H271.812C272.094 96.2188 272.365 96.1068 272.564 95.9076C272.763 95.7083 272.875 95.438 272.875 95.1562V94.0938C272.875 93.812 272.763 93.5417 272.564 93.3424C272.365 93.1432 272.094 93.0312 271.812 93.0312ZM262.25 86.6562H270.75V89.8438H262.25V86.6562ZM264.375 90.9062H268.625V93.0312H264.375V90.9062ZM271.812 95.1562H261.188V94.0938H271.812V95.1562Z" fill="black"/>
<rect x="287.5" y="71.5" width="29" height="41" rx="3.5" stroke="black"/>
<rect x="-0.5" y="0.5" width="29" height="41" rx="3.5" transform="matrix(-1 0 0 1 316 124)" stroke="black"/>
<rect x="-0.5" y="0.5" width="29" height="41" rx="3.5" transform="matrix(-1 0 0 1 280 124)" stroke="black"/>
<path d="M270.875 147.917H260.958M270.875 145.083H260.958M258.833 138H273V140.833H270.875V152.167H260.958V140.833H258.833V138Z" stroke="black" stroke-linecap="round" stroke-linejoin="round"/>
<path d="M263.792 138C263.792 138.564 264.016 139.104 264.414 139.503C264.813 139.901 265.353 140.125 265.917 140.125C266.481 140.125 267.021 139.901 267.42 139.503C267.818 139.104 268.042 138.564 268.042 138" stroke="black" stroke-linecap="round" stroke-linejoin="round"/>
<rect x="-0.5" y="0.5" width="29" height="41" rx="3.5" transform="matrix(-1 0 0 1 244 124)" stroke="black"/>
<g clip-path="url(#clip2_63355_34133)">
<path d="M223.416 148.043H237.583M237.583 140.074H231.208M232.625 137.418H236.166C236.834 137.418 237.168 137.418 237.375 137.626C237.583 137.833 237.583 138.167 237.583 138.835V150.168C237.583 150.836 237.583 151.17 237.375 151.377C237.168 151.585 236.834 151.585 236.166 151.585H234.75L233.333 150.168L231.916 151.585H224.833C224.165 151.585 223.831 151.585 223.624 151.377C223.416 151.17 223.416 150.836 223.416 150.168V147.503C223.416 145.735 223.416 144.851 223.941 144.251C224.465 143.65 225.341 143.531 227.092 143.292L227.532 143.232C229.284 142.993 230.16 142.874 230.684 142.273C231.208 141.673 231.208 140.789 231.208 139.021V138.835C231.208 138.167 231.208 137.833 231.416 137.626C231.623 137.418 231.957 137.418 232.625 137.418Z" stroke="black" stroke-linecap="round" stroke-linejoin="round"/>
<path d="M233.688 145.211C233.101 145.211 232.625 144.735 232.625 144.148C232.625 143.562 233.101 143.086 233.688 143.086C234.274 143.086 234.75 143.562 234.75 144.148C234.75 144.735 234.274 145.211 233.688 145.211Z" fill="black" stroke="black" stroke-linecap="round" stroke-linejoin="round"/>
</g>
<rect x="-0.5" y="0.5" width="29" height="41" rx="3.5" transform="matrix(-1 0 0 1 208 124)" stroke="black"/>
<path d="M190.312 144.313V150.688M190.312 150.688V153.167H199.521V150.688M190.312 150.688H187.833V141.833L189.604 140.063M199.521 150.688H202V141.833L200.229 140.063M199.521 150.688V144.313M200.229 140.063L197.75 139M200.229 140.063L194.917 145.021M197.75 139H192.083M197.75 139L194.917 145.021M192.083 139L189.604 140.063M192.083 139L194.917 145.021M189.604 140.063L194.917 145.021M194.917 145.021V153.167" stroke="black" stroke-linecap="round" stroke-linejoin="round"/>
<rect x="185.5" y="29.5" width="98" height="13" rx="6.5" stroke="black"/>
<path fill-rule="evenodd" clip-rule="evenodd" d="M198.235 36.9388H198.564L200.643 39.0221L200.022 39.643L197.939 37.5638V37.2346L197.826 37.118C197.351 37.5263 196.735 37.7721 196.064 37.7721C194.568 37.7721 193.355 36.5596 193.355 35.0638C193.355 33.568 194.568 32.3555 196.064 32.3555C197.56 32.3555 198.772 33.568 198.772 35.0638C198.772 35.7346 198.526 36.3513 198.118 36.8263L198.235 36.9388ZM194.189 35.0638C194.189 36.1013 195.026 36.9388 196.064 36.9388C197.101 36.9388 197.939 36.1013 197.939 35.0638C197.939 34.0263 197.101 33.1888 196.064 33.1888C195.026 33.1888 194.189 34.0263 194.189 35.0638Z" fill="black" fill-opacity="0.54"/>
<circle cx="234" cy="223" r="7" fill="#D9D9D9"/>
</g>
<rect x="174.5" y="10.5" width="119" height="227" rx="11.5" stroke="black"/>
<path d="M133.396 193.176C126.496 193.176 119.638 187.632 117.995 185.168L110.603 185.783L101.979 191.328C102.389 193.792 103.827 199.583 106.291 203.032C109.371 207.345 132.164 220.897 146.948 219.665C161.733 218.433 160.501 203.032 159.269 195.64C158.037 188.248 151.26 181.471 146.948 183.319C143.499 184.798 146.743 189.274 148.796 191.328H145.1C144.074 191.944 140.295 193.176 133.396 193.176Z" fill="#8B4500" stroke="black" stroke-width="1.23204"/>
<path d="M78.5689 191.325L86.5772 148.204V146.355H113.066L118.61 151.9H114.298L118.61 191.325H109.986H101.978H78.5689Z" fill="#6A4FA3" stroke="black" stroke-width="1.23204"/>
<path d="M114.299 151.902H90.274L87.1939 147.59" stroke="black" stroke-width="1.23204"/>
<path d="M85.3457 166.07V190.095" stroke="black" stroke-width="1.23204"/>
<path d="M15.1194 180.234C28.4255 151.651 55.1608 146.559 66.8652 147.585C71.3006 154.485 77.7483 150.46 80.4177 147.585H85.9619L78.5696 191.939H85.9619C71.6702 197.36 50.0273 198.715 40.9923 198.715L44.0724 176.538L40.9923 180.234H15.1194Z" fill="#409B81" stroke="black" stroke-width="1.23204"/>
<path d="M87.8092 121.102H82.265L80.4169 122.949L69.9445 127.261C68.9178 128.903 66.8644 132.928 66.8644 135.885C53.0655 126.521 60.2935 119.663 65.6324 117.404C66.0431 116.584 67.1108 113.956 68.0965 110.012C71.7926 103.852 76.7208 112.476 77.3368 110.012C77.8296 108.041 79.5956 106.317 80.4169 105.702H89.0412C90.2732 102.005 95.8175 102.621 97.6656 104.47C103.21 108.166 95.8175 114.942 92.1214 114.942C91.6286 118.884 89.0413 120.691 87.8092 121.102Z" fill="#D96E05" stroke="black" stroke-width="1.23204"/>
<path d="M16.3511 181.469H40.376C36.6798 191.325 38.5279 196.869 41.608 198.717C57.3782 200.689 78.1586 194.611 86.5776 191.325H97.05L97.666 194.405L101.362 192.557H110.602C112.656 191.941 116.763 191.079 116.763 192.557C112.451 199.333 89.6577 206.11 58.8566 217.198C11.5461 224.097 10.8069 196.253 16.3511 181.469Z" fill="#8B4500" stroke="black" stroke-width="1.23204"/>
<path d="M103.21 196.867C102.389 197.278 99.637 198.346 95.2017 199.331" stroke="black" stroke-width="1.23204"/>
<path d="M151.26 192.559C143.868 191.943 131.054 192.312 138.939 198.719C146.332 198.719 149.001 198.719 149.412 198.719L135.243 199.336C133.19 201.8 132.656 206.482 146.948 205.496C146.948 206.482 141.198 206.728 138.323 206.728C136.681 208.371 135.366 211.903 143.251 212.888C146.701 212.395 147.153 213.915 146.948 214.736H140.787C138.323 216.379 136.598 219.541 149.412 219.048" stroke="black" stroke-width="1.23204"/>
<path d="M77.9537 137.731C84.3604 135.76 85.1407 127.054 84.73 122.947L81.65 121.715L78.5699 123.563L76.7218 124.179V121.715H72.4096V124.179L67.4815 122.947V127.259C62.5533 129.23 65.4281 130.544 67.4815 130.955V147.588C70.9312 153.502 75.9004 150.873 77.9537 148.82V137.731Z" fill="#8B4500" stroke="black" stroke-width="1.23204"/>
<path d="M29.2873 333.625H60.7044C59.4723 340.196 57.0083 354.57 57.0083 359.498C66.3718 366.397 70.3554 371.818 71.1768 373.666H14.5027C16.9668 365.781 25.3858 360.935 29.2873 359.498V333.625Z" fill="#FF5613" stroke="black" stroke-width="1.23204"/>
<path d="M99.5137 333.625H139.555C139.555 335.268 139.802 340.771 140.787 349.642C142.019 360.73 147.563 361.962 153.724 361.962C162.102 361.469 167.892 369.149 169.74 373.05H107.522V355.802L99.5137 333.625Z" fill="#FF5613" stroke="black" stroke-width="1.23204"/>
<path d="M135.244 333.012C131.794 319.213 114.505 243.073 106.291 207.96C103.211 207.344 94.8331 207.344 85.9624 207.344C63.2928 216.707 44.8942 218.637 38.5287 218.432L30.5204 333.012H59.4734L71.1778 239.377L101.979 333.012H135.244Z" fill="#FFBA00" stroke="black" stroke-width="1.23204"/>
<path d="M106.906 207.959L105.674 200.566C103.21 201.552 91.5057 205.905 85.9615 207.959H106.906Z" fill="#409B81" stroke="black" stroke-width="1.23204"/>
<path d="M98.2812 194.406C97.0492 195.228 93.3531 196.87 88.4249 196.87" stroke="black" stroke-width="1.23204"/>
<path d="M50.8486 360.113C47.1525 359.497 38.7746 358.635 34.8321 360.113" stroke="black" stroke-width="1.23204"/>
<line x1="175" y1="208.5" x2="293" y2="208.5" stroke="black"/>
<path d="M361.44 108.623C354.174 112.775 361.873 117.273 366.63 119.003L374.414 120.951H381.551L384.794 126.79L382.848 129.385V133.277L381.551 135.224C381.983 136.089 383.627 138.467 386.741 141.062C403.608 141.711 401.013 131.331 401.013 120.951C397.899 108.496 390.633 109.274 387.389 111.22L386.741 116.41C385.011 115.544 380.642 112.775 377.009 108.623C372.468 103.433 363.386 107.325 361.44 108.623Z" fill="#0E16E5" stroke="black" stroke-width="1.29748"/>
<path d="M373.767 144.304L374.415 135.222C368.364 134.184 367.137 124.41 367.279 119.652H381.552V124.194C387.26 125.232 384.795 128.086 382.849 129.383V133.276C382.416 133.276 381.552 133.665 381.552 135.222C381.552 136.779 383.714 138.466 384.795 139.115C385.228 139.763 386.093 141.58 386.093 143.656C384.017 145.732 377.01 144.953 373.767 144.304Z" fill="#FBEFE3" stroke="black" stroke-width="1.29748"/>
<path d="M385.443 188.422L324.462 187.124V146.254H385.443V188.422Z" stroke="black" stroke-width="1.29748"/>
<path d="M344.573 207.234V199.449C347.168 199.449 361.657 204.639 368.577 207.234H344.573Z" fill="#FCBD21" stroke="black" stroke-width="1.29748"/>
<path d="M400.364 279.244C426.314 246.548 422.854 223.669 417.88 216.316C415.804 216.316 386.308 210.694 371.819 207.883H347.167C347.167 210.478 335.49 307.572 329.651 355.795H373.766L376.361 360.337L417.88 340.874L389.984 294.814C391.498 292.651 395.693 286.51 400.364 279.244Z" fill="#FF4200" stroke="black" stroke-width="1.29748"/>
<path d="M379.606 238.375L354.954 281.192C353.224 284.868 350.802 295.334 354.954 307.79C359.106 320.246 369.226 344.984 373.767 355.797" stroke="black" stroke-width="1.29748"/>
<path d="M383.497 182.58L366.63 189.067C393.228 198.149 412.042 196.203 412.042 194.906C410.485 193.349 409.23 179.985 408.798 173.497L412.042 176.741H439.289C416.583 137.817 388.687 144.304 385.443 144.304C383.886 146.899 378.307 147.548 375.712 147.548L383.497 182.58Z" fill="#FCBD21" stroke="black" stroke-width="1.29748"/>
<path d="M333.545 360.986V357.094H369.874C370.306 360.337 370.523 366.825 367.928 366.825C363.257 366.825 360.359 374.177 359.494 377.853H305C305.865 376.34 307.725 373.182 308.244 372.663C308.244 372.663 316.029 365.527 322.516 365.527C330.301 365.008 333.112 362.284 333.545 360.986Z" fill="#FCBD21" stroke="black" stroke-width="1.29748"/>
<path d="M368.577 367.472C379.475 367.472 381.768 360.985 381.551 357.741L413.989 343.469V346.712L418.53 353.849L421.773 363.58L388.687 384.988C378.091 384.556 361.815 384.988 359.494 384.988C359.494 384.988 354.953 367.472 368.577 367.472Z" fill="#FCBD21" stroke="black" stroke-width="1.29748"/>
<path d="M359.494 373.312H307.595L305 377.854H358.197L359.494 373.312Z" fill="#FFEEC3" stroke="black" stroke-width="1.29748"/>
<path d="M321.866 366.176C322.731 366.825 324.202 368.641 323.164 370.717" stroke="black" stroke-width="1.29748"/>
<path d="M387.39 380.447H358.846L359.494 384.989H388.039L421.773 363.58L419.827 359.039L387.39 380.447Z" fill="#FFEEC3" stroke="black" stroke-width="1.29748"/>
<path d="M319.921 206.584C332.377 224.229 341.978 209.178 345.222 199.447L338.086 187.123H325.111C327.274 176.527 332.247 153.389 334.842 145.604C333.545 136.522 327.706 139.766 325.111 141.71C321.219 135.222 317.326 141.71 317.326 144.306C309.542 139.765 310.839 150.144 310.839 153.387C306.168 149.235 306.298 155.117 306.946 158.577L315.38 172.2C315.164 178.039 315.769 193.09 319.921 206.584Z" fill="#FBEFE3" stroke="black" stroke-width="1.29748"/>
<path d="M325.111 141.711V146.901" stroke="black" stroke-width="1.29748"/>
<path d="M410.744 216.964C441.884 215.667 441.884 187.771 436.045 176.742H412.691C428.261 205.806 387.174 197.069 364.684 188.419H354.304C352.747 188.419 353.656 191.014 354.304 192.312L349.763 188.419H334.193C326.408 192.312 349.763 200.746 358.845 202.692C367.928 204.638 389.742 217.839 410.744 216.964Z" fill="#FBEFE3" stroke="black" stroke-width="1.29748"/>
<path d="M340.681 189.719C342.843 192.53 349.893 198.282 360.792 198.801" stroke="black" stroke-width="1.29748"/>
<path d="M310.839 153.391L314.731 160.527" stroke="black" stroke-width="1.29748"/>
<path d="M317.326 144.957L318.624 150.796" stroke="black" stroke-width="1.29748"/>
<path d="M325.111 145.602L317.975 151.44L375.064 152.089L376.361 187.77L385.443 183.877V145.602H325.111Z" fill="#B091F2" stroke="black" stroke-width="1.29748"/>
<path d="M375.712 151.438V187.767H317.325V151.438H375.712Z" fill="#6A4FA3" stroke="black" stroke-width="1.29748"/>
<path d="M375.712 152.093L384.794 146.254" stroke="black" stroke-width="1.29748"/>
<path d="M373.118 368.121C373.767 369.635 374.675 373.311 373.118 375.906" stroke="black" stroke-width="1.29748"/>
<path d="M353.654 191.664C355.817 193.827 361.699 197.503 367.927 194.908" stroke="black" stroke-width="1.29748"/>
<rect x="173.5" y="319.5" width="131" height="54" stroke="black"/>
<rect x="174" y="320" width="130" height="53" fill="#6A4FA3"/>
<rect x="208" y="320" width="61" height="14" fill="#CEB8FC"/>
<rect x="208" y="366" width="61" height="7" fill="#CEB8FC"/>
<rect x="189.5" y="277.5" width="99.1162" height="41.0012" stroke="black"/>
<rect x="190" y="278" width="98.1162" height="40.0012" fill="#6A4FA3"/>
<rect x="215.661" y="278" width="46.0391" height="10.5664" fill="#CEB8FC"/>
<rect x="215.661" y="312.719" width="46.0391" height="5.28318" fill="#CEB8FC"/>
<defs>
<clipPath id="clip0_63355_34133">
<rect x="174" y="10" width="120" height="228" rx="12" fill="white"/>
</clipPath>
<clipPath id="clip1_63355_34133">
<rect width="17" height="17" fill="white" transform="translate(185 83)"/>
</clipPath>
<clipPath id="clip2_63355_34133">
<rect width="17" height="17" fill="white" transform="matrix(-1 0 0 1 239 136)"/>
</clipPath>
</defs>
</svg>
