<svg width="15" height="15" viewBox="0 0 15 15" fill="none" xmlns="http://www.w3.org/2000/svg">
<path d="M6.88775 0C6.73469 0 6.58163 0.070471 6.42857 0.140942L0.382653 3.24167C0.153061 3.38261 0 3.59402 0 3.87591V10.2183C0 10.5002 0.153061 10.7116 0.382653 10.8525L6.42857 13.9533C6.58163 14.0237 6.73469 14.0942 6.88775 14.0942C7.04082 14.0942 7.19388 14.0237 7.34694 13.9533L8.03571 13.6009C7.80612 13.1781 7.72959 12.6848 7.65306 12.1915V7.46993L12.2449 5.07391V7.75181C12.7806 7.75181 13.3163 7.82228 13.7755 7.96322V3.87591C13.7755 3.59402 13.6224 3.38261 13.3929 3.24167L7.34694 0.140942C7.19388 0.070471 7.04082 0 6.88775 0ZM6.88775 1.55036L11.4796 3.87591L9.94898 4.65109L5.43367 2.25507L6.88775 1.55036ZM3.90306 3.03025L8.41837 5.49674L6.88775 6.27192L2.29592 3.87591L3.90306 3.03025ZM1.53061 5.07391L6.12245 7.46993V12.1915L1.53061 9.79547V5.07391ZM14.0051 9.725L11.25 12.262L10.0255 11.1344L9.18367 11.9801L11.3265 14.0942L15 10.7116L14.0051 9.725Z" fill="white"/>
</svg>
