<svg width="33" height="33" viewBox="0 0 33 33" fill="none" xmlns="http://www.w3.org/2000/svg">
<path d="M14.103 2.77386C14.4134 2.42714 14.7935 2.14979 15.2184 1.9599C15.6433 1.77002 16.1034 1.67188 16.5688 1.67188C17.0342 1.67188 17.4944 1.77002 17.9193 1.9599C18.3442 2.14979 18.7243 2.42714 19.0347 2.77386L20.1932 4.06804C20.5243 4.43791 20.9343 4.72858 21.393 4.91851C21.8516 5.10844 22.3471 5.19278 22.8428 5.16527L24.5805 5.06929C25.0453 5.04366 25.5102 5.11637 25.945 5.28265C26.3798 5.44893 26.7746 5.70504 27.1037 6.03427C27.4328 6.3635 27.6887 6.75844 27.8548 7.1933C28.0208 7.62816 28.0933 8.09316 28.0675 8.55793L27.9715 10.294C27.9442 10.7894 28.0287 11.2845 28.2186 11.7429C28.4085 12.2012 28.6991 12.611 29.0687 12.9419L30.3629 14.1004C30.7099 14.4108 30.9875 14.791 31.1775 15.2161C31.3676 15.6411 31.4658 16.1015 31.4658 16.5671C31.4658 17.0327 31.3676 17.4931 31.1775 17.9181C30.9875 18.3432 30.7099 18.7233 30.3629 19.0338L29.0687 20.1923C28.6988 20.5234 28.4082 20.9334 28.2182 21.3921C28.0283 21.8507 27.944 22.3462 27.9715 22.8419L28.0675 24.5796C28.0931 25.0443 28.0204 25.5093 27.8541 25.9441C27.6878 26.3789 27.4317 26.7737 27.1025 27.1028C26.7733 27.4318 26.3783 27.6878 25.9435 27.8538C25.5086 28.0199 25.0436 28.0924 24.5788 28.0665L22.8428 27.9706C22.3474 27.9433 21.8522 28.0278 21.3939 28.2177C20.9355 28.4076 20.5258 28.6981 20.1948 29.0678L19.0364 30.362C18.7259 30.709 18.3457 30.9866 17.9207 31.1766C17.4956 31.3666 17.0353 31.4649 16.5697 31.4649C16.1041 31.4649 15.6437 31.3666 15.2186 31.1766C14.7936 30.9866 14.4134 30.709 14.103 30.362L12.9445 29.0678C12.6134 28.6979 12.2033 28.4073 11.7447 28.2173C11.2861 28.0274 10.7906 27.9431 10.2949 27.9706L8.5572 28.0665C8.09242 28.0922 7.62745 28.0195 7.19267 27.8532C6.75789 27.6869 6.36307 27.4308 6.034 27.1016C5.70493 26.7723 5.449 26.3774 5.28292 25.9425C5.11685 25.5077 5.04437 25.0427 5.07021 24.5779L5.1662 22.8419C5.19345 22.3465 5.10899 21.8513 4.91907 21.393C4.72914 20.9346 4.43861 20.5248 4.06896 20.1939L2.77479 19.0355C2.42779 18.725 2.15021 18.3448 1.96016 17.9198C1.77011 17.4947 1.67187 17.0343 1.67188 16.5687C1.67188 16.1031 1.77011 15.6428 1.96016 15.2177C2.15021 14.7927 2.42779 14.4125 2.77479 14.102L4.06896 12.9436C4.43884 12.6125 4.7295 12.2024 4.91944 11.7438C5.10937 11.2851 5.1937 10.7896 5.1662 10.294L5.07021 8.55628C5.04483 8.09163 5.11771 7.62684 5.2841 7.19226C5.45049 6.75768 5.70664 6.36307 6.03584 6.03418C6.36505 5.70529 6.7599 5.44951 7.19464 5.28354C7.62938 5.11756 8.09423 5.04512 8.55886 5.07094L10.2949 5.16693C10.7903 5.19418 11.2855 5.10972 11.7438 4.9198C12.2021 4.72988 12.6119 4.43934 12.9428 4.06969L14.1013 2.77552L14.103 2.77386Z" stroke="black" stroke-width="2.38314"/>
<path d="M12.4316 12.4297H12.4482V12.4462H12.4316V12.4297ZM20.7064 20.7045H20.723V20.721H20.7064V20.7045Z" stroke="black" stroke-width="3.5747" stroke-linejoin="round"/>
<path d="M21.5332 11.6035L11.6035 21.5332" stroke="black" stroke-width="2.38314" stroke-linecap="round" stroke-linejoin="round"/>
</svg>
