<svg width="97" height="16" viewBox="0 0 97 16" fill="none" xmlns="http://www.w3.org/2000/svg">
<path d="M0 2.55319C0 1.1431 1.1431 0 2.55319 0H92.9681C94.8418 0 96.0772 1.95103 95.2761 3.64481L90.1239 14.5384C89.7018 15.4309 88.803 16 87.8158 16H2.55319C1.1431 16 0 14.8569 0 13.4468V2.55319Z" fill="#BD0041"/>
<g filter="url(#filter0_dd_1_2)">
<path d="M6.396 7.23581L5.16 11.5078H3.036L5.88 2.68781L8.472 7.78781L12.876 2.62781L12.66 11.5078H10.572L10.8 7.30781L8.016 10.7398L6.396 7.23581ZM15.1951 11.5078L15.4831 9.83981H19.6351L19.3471 11.5078H15.1951ZM16.3471 4.77581L16.6471 3.10781H20.7871L20.4871 4.77581H16.3471ZM15.8071 7.90781L16.0951 6.27581H20.0071L19.7191 7.90781H15.8071ZM15.3271 3.10781H17.2591L15.8071 11.5078H13.8991L15.3271 3.10781ZM23.7866 7.23581L22.5506 11.5078H20.4266L23.2706 2.68781L25.8626 7.78781L30.2666 2.62781L30.0506 11.5078H27.9626L28.1906 7.30781L25.4066 10.7398L23.7866 7.23581ZM33.4617 7.31981L33.6177 6.44381H34.8897C35.1057 6.44381 35.3017 6.40781 35.4777 6.33581C35.6617 6.26381 35.8137 6.15981 35.9337 6.02381C36.0617 5.88781 36.1377 5.72381 36.1617 5.53181C36.2177 5.25981 36.1617 5.05181 35.9937 4.90781C35.8257 4.75581 35.5897 4.67981 35.2857 4.67981H34.4577L33.5457 9.93581H34.4817C34.7377 9.92781 34.9777 9.88781 35.2017 9.81581C35.4257 9.74381 35.6137 9.62781 35.7657 9.46781C35.9257 9.30781 36.0257 9.10381 36.0657 8.85581C36.1057 8.62381 36.0777 8.43581 35.9817 8.29181C35.8857 8.13981 35.7457 8.03181 35.5617 7.96781C35.3777 7.89581 35.1697 7.85981 34.9377 7.85981H33.3777L33.5697 6.75581H35.2497C35.6257 6.75581 35.9937 6.80381 36.3537 6.89981C36.7137 6.98781 37.0337 7.13181 37.3137 7.33181C37.5937 7.52381 37.8057 7.77181 37.9497 8.07581C38.0937 8.37181 38.1377 8.72781 38.0817 9.14381C38.0017 9.69581 37.7937 10.1478 37.4577 10.4998C37.1217 10.8518 36.7017 11.1078 36.1977 11.2678C35.6937 11.4278 35.1457 11.5078 34.5537 11.5078H31.2777L32.7177 3.10781H35.6697C36.0457 3.10781 36.4017 3.15181 36.7377 3.23981C37.0737 3.32781 37.3657 3.45981 37.6137 3.63581C37.8697 3.81181 38.0577 4.03581 38.1777 4.30781C38.2977 4.57181 38.3297 4.88381 38.2737 5.24381C38.2097 5.71581 38.0177 6.10381 37.6977 6.40781C37.3857 6.71181 36.9977 6.93981 36.5337 7.09181C36.0777 7.24381 35.5897 7.31981 35.0697 7.31981H33.4617ZM40.3084 11.5078L40.5964 9.83981H44.7484L44.4604 11.5078H40.3084ZM41.4604 4.77581L41.7604 3.10781H45.9004L45.6004 4.77581H41.4604ZM40.9204 7.90781L41.2084 6.27581H45.1204L44.8324 7.90781H40.9204ZM40.4404 3.10781H42.3724L40.9204 11.5078H39.0124L40.4404 3.10781ZM48.7439 7.70381H50.7599L52.6439 11.5078H50.3759L48.7439 7.70381ZM47.4599 3.10781H49.4639L48.0119 11.5078H46.0319L47.4599 3.10781ZM48.4079 4.82381L48.6959 3.10781H50.3879C51.0199 3.10781 51.5519 3.22381 51.9839 3.45581C52.4239 3.67981 52.7479 3.99581 52.9559 4.40381C53.1719 4.81181 53.2439 5.29581 53.1719 5.85581C53.0919 6.40781 52.8879 6.89181 52.5599 7.30781C52.2399 7.72381 51.8239 8.04381 51.3119 8.26781C50.7999 8.48381 50.2199 8.59181 49.5719 8.59181H47.7479L48.0359 7.01981H49.5839C49.8399 7.01981 50.0719 6.97981 50.2799 6.89981C50.4959 6.81181 50.6759 6.68381 50.8199 6.51581C50.9639 6.34781 51.0559 6.14781 51.0959 5.91581C51.1359 5.69181 51.1159 5.49981 51.0359 5.33981C50.9639 5.17981 50.8399 5.05581 50.6639 4.96781C50.4959 4.87181 50.2919 4.82381 50.0519 4.82381H48.4079ZM58.6044 3.10781H60.6084L59.1564 11.5078H57.1764L58.6044 3.10781ZM59.5644 4.76381L59.8404 3.10781H61.3884C62.0204 3.11581 62.5524 3.22781 62.9844 3.44381C63.4244 3.65981 63.7444 3.97181 63.9444 4.37981C64.1524 4.78781 64.2244 5.27981 64.1604 5.85581C64.0964 6.42381 63.9044 6.91581 63.5844 7.33181C63.2644 7.73981 62.8444 8.05181 62.3244 8.26781C61.8124 8.48381 61.2284 8.59181 60.5724 8.59181H58.8924L59.1924 6.92381H60.7404C60.9884 6.92381 61.2204 6.88381 61.4364 6.80381C61.6524 6.71581 61.8284 6.59181 61.9644 6.43181C62.1084 6.27181 62.2004 6.07581 62.2404 5.84381C62.2884 5.61981 62.2724 5.42781 62.1924 5.26781C62.1124 5.10781 61.9884 4.98381 61.8204 4.89581C61.6524 4.80781 61.4484 4.76381 61.2084 4.76381H59.5644ZM67.1306 7.70381H69.1466L71.0306 11.5078H68.7626L67.1306 7.70381ZM65.8466 3.10781H67.8506L66.3986 11.5078H64.4186L65.8466 3.10781ZM66.7946 4.82381L67.0826 3.10781H68.7746C69.4066 3.10781 69.9386 3.22381 70.3706 3.45581C70.8106 3.67981 71.1346 3.99581 71.3426 4.40381C71.5586 4.81181 71.6306 5.29581 71.5586 5.85581C71.4786 6.40781 71.2746 6.89181 70.9466 7.30781C70.6266 7.72381 70.2106 8.04381 69.6986 8.26781C69.1866 8.48381 68.6066 8.59181 67.9586 8.59181H66.1346L66.4226 7.01981H67.9706C68.2266 7.01981 68.4586 6.97981 68.6666 6.89981C68.8826 6.81181 69.0626 6.68381 69.2066 6.51581C69.3506 6.34781 69.4426 6.14781 69.4826 5.91581C69.5226 5.69181 69.5026 5.49981 69.4226 5.33981C69.3506 5.17981 69.2266 5.05581 69.0506 4.96781C68.8826 4.87181 68.6786 4.82381 68.4386 4.82381H66.7946ZM73.3818 3.10781H75.4218L73.9818 11.5078H71.9538L73.3818 3.10781ZM78.0926 7.30781C78.0366 7.64381 78.0406 7.95981 78.1046 8.25581C78.1686 8.55181 78.2886 8.81181 78.4646 9.03581C78.6406 9.25981 78.8606 9.43581 79.1246 9.56381C79.3886 9.69181 79.6926 9.75581 80.0366 9.75581C80.5966 9.76381 81.0926 9.65581 81.5246 9.43181C81.9646 9.20781 82.3566 8.95581 82.7006 8.67581L82.3766 10.8478C82.0006 11.1038 81.6006 11.3118 81.1766 11.4718C80.7526 11.6238 80.2646 11.6998 79.7126 11.6998C79.0726 11.6998 78.4926 11.5878 77.9726 11.3638C77.4606 11.1398 77.0366 10.8278 76.7006 10.4278C76.3726 10.0198 76.1366 9.55181 75.9926 9.02381C75.8486 8.48781 75.8206 7.91581 75.9086 7.30781C76.0046 6.67581 76.2006 6.09181 76.4966 5.55581C76.8006 5.01981 77.1846 4.55581 77.6486 4.16381C78.1126 3.77181 78.6366 3.46781 79.2206 3.25181C79.8046 3.02781 80.4286 2.91581 81.0926 2.91581C81.6206 2.90781 82.0766 2.97981 82.4606 3.13181C82.8526 3.28381 83.2166 3.49581 83.5526 3.76781L83.2166 5.95181C82.9686 5.62381 82.6646 5.35981 82.3046 5.15981C81.9446 4.95181 81.5086 4.84781 80.9966 4.84781C80.6446 4.84781 80.3086 4.90781 79.9886 5.02781C79.6686 5.14781 79.3766 5.31981 79.1126 5.54381C78.8486 5.75981 78.6286 6.01981 78.4526 6.32381C78.2766 6.61981 78.1566 6.94781 78.0926 7.30781ZM85.1209 11.5078L85.4089 9.83981H89.5609L89.2729 11.5078H85.1209ZM86.2729 4.77581L86.5729 3.10781H90.7129L90.4129 4.77581H86.2729ZM85.7329 7.90781L86.0209 6.27581H89.9329L89.6449 7.90781H85.7329ZM85.2529 3.10781H87.1849L85.7329 11.5078H83.8249L85.2529 3.10781Z" fill="white"/>
</g>
<defs>
<filter id="filter0_dd_1_2" x="0.993446" y="1.0959" width="91.762" height="13.1571" filterUnits="userSpaceOnUse" color-interpolation-filters="sRGB">
<feFlood flood-opacity="0" result="BackgroundImageFix"/>
<feColorMatrix in="SourceAlpha" type="matrix" values="0 0 0 0 0 0 0 0 0 0 0 0 0 0 0 0 0 0 127 0" result="hardAlpha"/>
<feMorphology radius="0.510638" operator="dilate" in="SourceAlpha" result="effect1_dropShadow_1_2"/>
<feOffset dy="0.510638"/>
<feGaussianBlur stdDeviation="0.765957"/>
<feColorMatrix type="matrix" values="0 0 0 0 0 0 0 0 0 0 0 0 0 0 0 0 0 0 0.15 0"/>
<feBlend mode="normal" in2="BackgroundImageFix" result="effect1_dropShadow_1_2"/>
<feColorMatrix in="SourceAlpha" type="matrix" values="0 0 0 0 0 0 0 0 0 0 0 0 0 0 0 0 0 0 127 0" result="hardAlpha"/>
<feOffset dy="0.510638"/>
<feGaussianBlur stdDeviation="0.510638"/>
<feColorMatrix type="matrix" values="0 0 0 0 0 0 0 0 0 0 0 0 0 0 0 0 0 0 0.3 0"/>
<feBlend mode="normal" in2="effect1_dropShadow_1_2" result="effect2_dropShadow_1_2"/>
<feBlend mode="normal" in="SourceGraphic" in2="effect2_dropShadow_1_2" result="shape"/>
</filter>
</defs>
</svg>
