  <svg width="98" height="40" viewBox="0 0 98 40" fill="none" xmlns="http://www.w3.org/2000/svg">
        <g filter="url(#filter0_dd_59458_58072)">
        <mask id="path-1-outside-1_59458_58072" maskUnits="userSpaceOnUse" x="5" y="5" width="88" height="15" fill="black">
        <rect fill="white" x="5" y="5" width="88" height="15"/>
        <path d="M5.89897 8.73375V6.4144H15.446L9.2791 16.7526H14.8887V19H5.19777L11.2928 8.73375H5.89897ZM19.052 19V16.8245H25.3987V19H19.052ZM19.052 8.58991V6.4144H25.3987V8.58991H19.052ZM19.052 13.3904V11.2509H25.0392V13.3904H19.052ZM17.3979 6.4144H19.8791V19H17.3979V6.4144ZM37.2075 6.4144H39.6887V19.6293L30.7349 11.1969V19H28.2538V5.78512L37.2075 14.2175V6.4144ZM50.5232 12.7072C50.5232 13.5343 50.709 14.2594 51.0806 14.8827C51.4641 15.494 51.9615 15.9675 52.5728 16.3031C53.1841 16.6267 53.8494 16.7885 54.5686 16.7885C55.1679 16.7885 55.7013 16.7106 56.1687 16.5548C56.6362 16.399 57.0557 16.1892 57.4273 15.9255C57.8109 15.6618 58.1405 15.3741 58.4162 15.0625V17.9572C57.9008 18.3647 57.3374 18.6824 56.7261 18.9101C56.1268 19.1378 55.3657 19.2517 54.4427 19.2517C53.4838 19.2517 52.5908 19.0959 51.7638 18.7842C50.9487 18.4726 50.2355 18.0231 49.6242 17.4358C49.0249 16.8485 48.5574 16.1593 48.2218 15.3682C47.8982 14.5651 47.7364 13.6781 47.7364 12.7072C47.7364 11.7363 47.8982 10.8553 48.2218 10.0642C48.5574 9.26114 49.0249 8.56594 49.6242 7.97861C50.2355 7.39128 50.9487 6.9418 51.7638 6.63015C52.5908 6.31851 53.4838 6.16269 54.4427 6.16269C55.3657 6.16269 56.1268 6.27656 56.7261 6.5043C57.3374 6.73204 57.9008 7.04967 58.4162 7.45721V10.3519C58.1405 10.0403 57.8109 9.75258 57.4273 9.48888C57.0557 9.22518 56.6362 9.01542 56.1687 8.8596C55.7013 8.70378 55.1679 8.62587 54.5686 8.62587C53.8494 8.62587 53.1841 8.79368 52.5728 9.12929C51.9615 9.45292 51.4641 9.92039 51.0806 10.5317C50.709 11.143 50.5232 11.8682 50.5232 12.7072ZM61.2955 6.4144H63.8666V16.7526H68.8828V19H61.2955V6.4144ZM70.5866 6.4144H73.1577V14.7029C73.1577 15.4221 73.3435 16.0034 73.715 16.4469C74.0986 16.8784 74.662 17.0942 75.4051 17.0942C76.1483 17.0942 76.7056 16.8784 77.0772 16.4469C77.4607 16.0034 77.6525 15.4221 77.6525 14.7029V6.4144H80.2236V14.8647C80.2236 15.6079 80.1037 16.2611 79.864 16.8245C79.6243 17.3878 79.2827 17.8613 78.8392 18.2449C78.4077 18.6284 77.8982 18.9161 77.3109 19.1079C76.7236 19.3116 76.0883 19.4135 75.4051 19.4135C74.7099 19.4135 74.0686 19.3116 73.4813 19.1079C72.894 18.9161 72.3846 18.6284 71.953 18.2449C71.5215 17.8613 71.1859 17.3878 70.9462 16.8245C70.7065 16.2611 70.5866 15.6079 70.5866 14.8647V6.4144ZM85.0891 12.6173V11.4486H87.1208C87.4923 11.4486 87.816 11.3887 88.0917 11.2688C88.3673 11.149 88.5771 10.9752 88.7209 10.7474C88.8768 10.5197 88.9547 10.25 88.9547 9.93837C88.9547 9.45892 88.7869 9.09333 88.4512 8.84162C88.1276 8.58991 87.6841 8.46405 87.1208 8.46405H85.7363V16.9503H87.3905C87.822 16.9503 88.2115 16.8904 88.5591 16.7706C88.9067 16.6387 89.1764 16.4349 89.3682 16.1593C89.572 15.8836 89.6738 15.53 89.6738 15.0985C89.6738 14.7868 89.6139 14.5231 89.494 14.3074C89.3862 14.0796 89.2244 13.8938 89.0086 13.75C88.8048 13.5942 88.5651 13.4863 88.2894 13.4264C88.0137 13.3545 87.7141 13.3185 87.3905 13.3185H85.0891V11.9161H87.6242C88.2355 11.9161 88.8168 11.982 89.3682 12.1139C89.9315 12.2457 90.435 12.4555 90.8785 12.7432C91.322 13.0188 91.6696 13.3784 91.9213 13.8219C92.185 14.2654 92.3168 14.7988 92.3168 15.4221C92.3168 16.2491 92.119 16.9264 91.7235 17.4538C91.3399 17.9812 90.7946 18.3707 90.0874 18.6224C89.3802 18.8741 88.5591 19 87.6242 19H83.1653V6.4144H87.3545C88.1935 6.4144 88.9307 6.53426 89.566 6.77399C90.2012 7.00173 90.6987 7.34933 91.0583 7.81679C91.4178 8.28426 91.5976 8.87758 91.5976 9.59676C91.5976 10.232 91.4178 10.7774 91.0583 11.2329C90.6987 11.6884 90.2012 12.036 89.566 12.2757C88.9307 12.5034 88.1935 12.6173 87.3545 12.6173H85.0891Z"/>
        </mask>
        <path d="M5.89897 8.73375V6.4144H15.446L9.2791 16.7526H14.8887V19H5.19777L11.2928 8.73375H5.89897ZM19.052 19V16.8245H25.3987V19H19.052ZM19.052 8.58991V6.4144H25.3987V8.58991H19.052ZM19.052 13.3904V11.2509H25.0392V13.3904H19.052ZM17.3979 6.4144H19.8791V19H17.3979V6.4144ZM37.2075 6.4144H39.6887V19.6293L30.7349 11.1969V19H28.2538V5.78512L37.2075 14.2175V6.4144ZM50.5232 12.7072C50.5232 13.5343 50.709 14.2594 51.0806 14.8827C51.4641 15.494 51.9615 15.9675 52.5728 16.3031C53.1841 16.6267 53.8494 16.7885 54.5686 16.7885C55.1679 16.7885 55.7013 16.7106 56.1687 16.5548C56.6362 16.399 57.0557 16.1892 57.4273 15.9255C57.8109 15.6618 58.1405 15.3741 58.4162 15.0625V17.9572C57.9008 18.3647 57.3374 18.6824 56.7261 18.9101C56.1268 19.1378 55.3657 19.2517 54.4427 19.2517C53.4838 19.2517 52.5908 19.0959 51.7638 18.7842C50.9487 18.4726 50.2355 18.0231 49.6242 17.4358C49.0249 16.8485 48.5574 16.1593 48.2218 15.3682C47.8982 14.5651 47.7364 13.6781 47.7364 12.7072C47.7364 11.7363 47.8982 10.8553 48.2218 10.0642C48.5574 9.26114 49.0249 8.56594 49.6242 7.97861C50.2355 7.39128 50.9487 6.9418 51.7638 6.63015C52.5908 6.31851 53.4838 6.16269 54.4427 6.16269C55.3657 6.16269 56.1268 6.27656 56.7261 6.5043C57.3374 6.73204 57.9008 7.04967 58.4162 7.45721V10.3519C58.1405 10.0403 57.8109 9.75258 57.4273 9.48888C57.0557 9.22518 56.6362 9.01542 56.1687 8.8596C55.7013 8.70378 55.1679 8.62587 54.5686 8.62587C53.8494 8.62587 53.1841 8.79368 52.5728 9.12929C51.9615 9.45292 51.4641 9.92039 51.0806 10.5317C50.709 11.143 50.5232 11.8682 50.5232 12.7072ZM61.2955 6.4144H63.8666V16.7526H68.8828V19H61.2955V6.4144ZM70.5866 6.4144H73.1577V14.7029C73.1577 15.4221 73.3435 16.0034 73.715 16.4469C74.0986 16.8784 74.662 17.0942 75.4051 17.0942C76.1483 17.0942 76.7056 16.8784 77.0772 16.4469C77.4607 16.0034 77.6525 15.4221 77.6525 14.7029V6.4144H80.2236V14.8647C80.2236 15.6079 80.1037 16.2611 79.864 16.8245C79.6243 17.3878 79.2827 17.8613 78.8392 18.2449C78.4077 18.6284 77.8982 18.9161 77.3109 19.1079C76.7236 19.3116 76.0883 19.4135 75.4051 19.4135C74.7099 19.4135 74.0686 19.3116 73.4813 19.1079C72.894 18.9161 72.3846 18.6284 71.953 18.2449C71.5215 17.8613 71.1859 17.3878 70.9462 16.8245C70.7065 16.2611 70.5866 15.6079 70.5866 14.8647V6.4144ZM85.0891 12.6173V11.4486H87.1208C87.4923 11.4486 87.816 11.3887 88.0917 11.2688C88.3673 11.149 88.5771 10.9752 88.7209 10.7474C88.8768 10.5197 88.9547 10.25 88.9547 9.93837C88.9547 9.45892 88.7869 9.09333 88.4512 8.84162C88.1276 8.58991 87.6841 8.46405 87.1208 8.46405H85.7363V16.9503H87.3905C87.822 16.9503 88.2115 16.8904 88.5591 16.7706C88.9067 16.6387 89.1764 16.4349 89.3682 16.1593C89.572 15.8836 89.6738 15.53 89.6738 15.0985C89.6738 14.7868 89.6139 14.5231 89.494 14.3074C89.3862 14.0796 89.2244 13.8938 89.0086 13.75C88.8048 13.5942 88.5651 13.4863 88.2894 13.4264C88.0137 13.3545 87.7141 13.3185 87.3905 13.3185H85.0891V11.9161H87.6242C88.2355 11.9161 88.8168 11.982 89.3682 12.1139C89.9315 12.2457 90.435 12.4555 90.8785 12.7432C91.322 13.0188 91.6696 13.3784 91.9213 13.8219C92.185 14.2654 92.3168 14.7988 92.3168 15.4221C92.3168 16.2491 92.119 16.9264 91.7235 17.4538C91.3399 17.9812 90.7946 18.3707 90.0874 18.6224C89.3802 18.8741 88.5591 19 87.6242 19H83.1653V6.4144H87.3545C88.1935 6.4144 88.9307 6.53426 89.566 6.77399C90.2012 7.00173 90.6987 7.34933 91.0583 7.81679C91.4178 8.28426 91.5976 8.87758 91.5976 9.59676C91.5976 10.232 91.4178 10.7774 91.0583 11.2329C90.6987 11.6884 90.2012 12.036 89.566 12.2757C88.9307 12.5034 88.1935 12.6173 87.3545 12.6173H85.0891Z" fill="url(#paint0_linear_59458_58072)"/>
        <path d="M5.89897 8.73375H5.77055C5.77055 8.80467 5.82804 8.86217 5.89897 8.86217V8.73375ZM5.89897 6.4144V6.28597C5.82804 6.28597 5.77055 6.34347 5.77055 6.4144H5.89897ZM15.446 6.4144L15.5563 6.48019C15.58 6.44051 15.5805 6.39116 15.5577 6.35098C15.5349 6.3108 15.4923 6.28597 15.446 6.28597V6.4144ZM9.2791 16.7526L9.16881 16.6868C9.14514 16.7265 9.14461 16.7758 9.16743 16.816C9.19025 16.8562 9.2329 16.881 9.2791 16.881V16.7526ZM14.8887 16.7526H15.0171C15.0171 16.6816 14.9596 16.6241 14.8887 16.6241V16.7526ZM14.8887 19V19.1284C14.9596 19.1284 15.0171 19.0709 15.0171 19H14.8887ZM5.19777 19L5.08734 18.9344C5.06378 18.9741 5.06333 19.0234 5.08617 19.0635C5.109 19.1037 5.15161 19.1284 5.19777 19.1284V19ZM11.2928 8.73375L11.4032 8.79931C11.4268 8.75961 11.4272 8.71033 11.4044 8.67021C11.3816 8.63009 11.339 8.60532 11.2928 8.60532V8.73375ZM6.0274 8.73375V6.4144H5.77055V8.73375H6.0274ZM5.89897 6.54282H15.446V6.28597H5.89897V6.54282ZM15.3358 6.34861L9.16881 16.6868L9.3894 16.8184L15.5563 6.48019L15.3358 6.34861ZM9.2791 16.881H14.8887V16.6241H9.2791V16.881ZM14.7603 16.7526V19H15.0171V16.7526H14.7603ZM14.8887 18.8716H5.19777V19.1284H14.8887V18.8716ZM5.3082 19.0656L11.4032 8.79931L11.1824 8.66818L5.08734 18.9344L5.3082 19.0656ZM11.2928 8.60532H5.89897V8.86217H11.2928V8.60532ZM19.052 19H18.9236C18.9236 19.0709 18.9811 19.1284 19.052 19.1284V19ZM19.052 16.8245V16.6961C18.9811 16.6961 18.9236 16.7536 18.9236 16.8245H19.052ZM25.3987 16.8245H25.5272C25.5272 16.7536 25.4697 16.6961 25.3987 16.6961V16.8245ZM25.3987 19V19.1284C25.4697 19.1284 25.5272 19.0709 25.5272 19H25.3987ZM19.052 8.58991H18.9236C18.9236 8.66084 18.9811 8.71833 19.052 8.71833V8.58991ZM19.052 6.4144V6.28597C18.9811 6.28597 18.9236 6.34347 18.9236 6.4144H19.052ZM25.3987 6.4144H25.5272C25.5272 6.34347 25.4697 6.28597 25.3987 6.28597V6.4144ZM25.3987 8.58991V8.71833C25.4697 8.71833 25.5272 8.66084 25.5272 8.58991H25.3987ZM19.052 13.3904H18.9236C18.9236 13.4613 18.9811 13.5188 19.052 13.5188V13.3904ZM19.052 11.2509V11.1224C18.9811 11.1224 18.9236 11.1799 18.9236 11.2509H19.052ZM25.0392 11.2509H25.1676C25.1676 11.1799 25.1101 11.1224 25.0392 11.1224V11.2509ZM25.0392 13.3904V13.5188C25.1101 13.5188 25.1676 13.4613 25.1676 13.3904H25.0392ZM17.3979 6.4144V6.28597C17.327 6.28597 17.2695 6.34347 17.2695 6.4144H17.3979ZM19.8791 6.4144H20.0075C20.0075 6.34347 19.95 6.28597 19.8791 6.28597V6.4144ZM19.8791 19V19.1284C19.95 19.1284 20.0075 19.0709 20.0075 19H19.8791ZM17.3979 19H17.2695C17.2695 19.0709 17.327 19.1284 17.3979 19.1284V19ZM19.1804 19V16.8245H18.9236V19H19.1804ZM19.052 16.9529H25.3987V16.6961H19.052V16.9529ZM25.2703 16.8245V19H25.5272V16.8245H25.2703ZM25.3987 18.8716H19.052V19.1284H25.3987V18.8716ZM19.1804 8.58991V6.4144H18.9236V8.58991H19.1804ZM19.052 6.54282H25.3987V6.28597H19.052V6.54282ZM25.2703 6.4144V8.58991H25.5272V6.4144H25.2703ZM25.3987 8.46148H19.052V8.71833H25.3987V8.46148ZM19.1804 13.3904V11.2509H18.9236V13.3904H19.1804ZM19.052 11.3793H25.0392V11.1224H19.052V11.3793ZM24.9107 11.2509V13.3904H25.1676V11.2509H24.9107ZM25.0392 13.262H19.052V13.5188H25.0392V13.262ZM17.3979 6.54282H19.8791V6.28597H17.3979V6.54282ZM19.7506 6.4144V19H20.0075V6.4144H19.7506ZM19.8791 18.8716H17.3979V19.1284H19.8791V18.8716ZM17.5263 19V6.4144H17.2695V19H17.5263ZM37.2075 6.4144V6.28597C37.1366 6.28597 37.0791 6.34347 37.0791 6.4144H37.2075ZM39.6887 6.4144H39.8171C39.8171 6.34347 39.7596 6.28597 39.6887 6.28597V6.4144ZM39.6887 19.6293L39.6007 19.7228C39.638 19.7579 39.6926 19.7675 39.7396 19.7472C39.7867 19.7269 39.8171 19.6805 39.8171 19.6293H39.6887ZM30.7349 11.1969L30.823 11.1034C30.7857 11.0683 30.7311 11.0587 30.684 11.079C30.637 11.0993 30.6065 11.1457 30.6065 11.1969H30.7349ZM30.7349 19V19.1284C30.8059 19.1284 30.8634 19.0709 30.8634 19H30.7349ZM28.2538 19H28.1254C28.1254 19.0709 28.1829 19.1284 28.2538 19.1284V19ZM28.2538 5.78512L28.3418 5.69163C28.3045 5.6565 28.2499 5.6469 28.2029 5.66722C28.1558 5.68754 28.1254 5.73388 28.1254 5.78512H28.2538ZM37.2075 14.2175L37.1195 14.311C37.1568 14.3461 37.2114 14.3557 37.2585 14.3354C37.3055 14.3151 37.336 14.2687 37.336 14.2175H37.2075ZM37.2075 6.54282H39.6887V6.28597H37.2075V6.54282ZM39.5603 6.4144V19.6293H39.8171V6.4144H39.5603ZM39.7767 19.5358L30.823 11.1034L30.6469 11.2904L39.6007 19.7228L39.7767 19.5358ZM30.6065 11.1969V19H30.8634V11.1969H30.6065ZM30.7349 18.8716H28.2538V19.1284H30.7349V18.8716ZM28.3822 19V5.78512H28.1254V19H28.3822ZM28.1657 5.87861L37.1195 14.311L37.2956 14.124L28.3418 5.69163L28.1657 5.87861ZM37.336 14.2175V6.4144H37.0791V14.2175H37.336ZM51.0806 14.8827L50.9702 14.9485L50.9718 14.951L51.0806 14.8827ZM52.5728 16.3031L52.511 16.4157L52.5128 16.4166L52.5728 16.3031ZM56.1687 16.5548L56.1281 16.433L56.1687 16.5548ZM57.4273 15.9255L57.3545 15.8197L57.353 15.8208L57.4273 15.9255ZM58.4162 15.0625H58.5446C58.5446 15.0091 58.5116 14.9613 58.4617 14.9424C58.4117 14.9235 58.3553 14.9374 58.32 14.9774L58.4162 15.0625ZM58.4162 17.9572L58.4958 18.0579C58.5266 18.0336 58.5446 17.9965 58.5446 17.9572H58.4162ZM56.7261 18.9101L56.6813 18.7898L56.6805 18.7901L56.7261 18.9101ZM51.7638 18.7842L51.7179 18.9042L51.7185 18.9044L51.7638 18.7842ZM49.6242 17.4358L49.5343 17.5275L49.5352 17.5284L49.6242 17.4358ZM48.2218 15.3682L48.1027 15.4162L48.1036 15.4183L48.2218 15.3682ZM48.2218 10.0642L48.1033 10.0147L48.103 10.0156L48.2218 10.0642ZM49.6242 7.97861L49.5352 7.886L49.5343 7.88689L49.6242 7.97861ZM51.7638 6.63015L51.7185 6.50997L51.7179 6.5102L51.7638 6.63015ZM56.7261 6.5043L56.6805 6.62435L56.6813 6.62464L56.7261 6.5043ZM58.4162 7.45721H58.5446C58.5446 7.41794 58.5266 7.38082 58.4958 7.35647L58.4162 7.45721ZM58.4162 10.3519L58.32 10.437C58.3553 10.477 58.4117 10.4909 58.4617 10.472C58.5116 10.4531 58.5446 10.4053 58.5446 10.3519H58.4162ZM57.4273 9.48888L57.353 9.59362L57.3545 9.59471L57.4273 9.48888ZM56.1687 8.8596L56.1281 8.98144L56.1687 8.8596ZM52.5728 9.12929L52.6329 9.24281L52.6347 9.24187L52.5728 9.12929ZM51.0806 10.5317L50.9718 10.4634L50.9708 10.465L51.0806 10.5317ZM50.3948 12.7072C50.3948 13.5541 50.5852 14.3026 50.9702 14.9485L51.1909 14.8169C50.8327 14.2162 50.6516 13.5144 50.6516 12.7072H50.3948ZM50.9718 14.951C51.3665 15.5801 51.8799 16.0691 52.511 16.4157L52.6347 16.1905C52.0432 15.8658 51.5617 15.4079 51.1893 14.8145L50.9718 14.951ZM52.5128 16.4166C53.1433 16.7504 53.8293 16.917 54.5686 16.917V16.6601C53.8695 16.6601 53.225 16.503 52.6329 16.1896L52.5128 16.4166ZM54.5686 16.917C55.1788 16.917 55.7263 16.8376 56.2093 16.6766L56.1281 16.433C55.6762 16.5836 55.157 16.6601 54.5686 16.6601V16.917ZM56.2093 16.6766C56.6879 16.5171 57.1189 16.3019 57.5016 16.0302L57.353 15.8208C56.9925 16.0766 56.5845 16.2808 56.1281 16.433L56.2093 16.6766ZM57.5001 16.0313C57.8912 15.7624 58.229 15.4679 58.5124 15.1476L58.32 14.9774C58.052 15.2804 57.7305 15.5612 57.3545 15.8197L57.5001 16.0313ZM58.2877 15.0625V17.9572H58.5446V15.0625H58.2877ZM58.3365 17.8565C57.8315 18.2557 57.2799 18.5667 56.6813 18.7898L56.7709 19.0304C57.3949 18.798 57.97 18.4737 58.4958 18.0579L58.3365 17.8565ZM56.6805 18.7901C56.1006 19.0104 55.3563 19.1233 54.4427 19.1233V19.3801C55.375 19.3801 56.1529 19.2653 56.7717 19.0302L56.6805 18.7901ZM54.4427 19.1233C53.498 19.1233 52.6205 18.9698 51.8091 18.6641L51.7185 18.9044C52.5612 19.222 53.4697 19.3801 54.4427 19.3801V19.1233ZM51.8096 18.6643C51.0101 18.3586 50.3117 17.9182 49.7132 17.3432L49.5352 17.5284C50.1593 18.128 50.8873 18.5866 51.7179 18.9042L51.8096 18.6643ZM49.7141 17.3441C49.1272 16.7689 48.6692 16.0939 48.3401 15.318L48.1036 15.4183C48.4457 16.2246 48.9226 16.928 49.5343 17.5275L49.7141 17.3441ZM48.3409 15.3202C48.0242 14.5341 47.8648 13.6636 47.8648 12.7072H47.608C47.608 13.6925 47.7722 14.5961 48.1027 15.4162L48.3409 15.3202ZM47.8648 12.7072C47.8648 11.7507 48.0242 10.8866 48.3407 10.1128L48.103 10.0156C47.7722 10.8241 47.608 11.7219 47.608 12.7072H47.8648ZM48.3403 10.1137C48.6696 9.3259 49.1275 8.6452 49.7141 8.07033L49.5343 7.88689C48.9223 8.48668 48.4453 9.19639 48.1033 10.0147L48.3403 10.1137ZM49.7132 8.07122C50.3117 7.49615 51.0101 7.0558 51.8096 6.75011L51.7179 6.5102C50.8873 6.82779 50.1593 7.28641 49.5352 7.886L49.7132 8.07122ZM51.8091 6.75033C52.6205 6.44458 53.498 6.29111 54.4427 6.29111V6.03426C53.4697 6.03426 52.5612 6.19243 51.7185 6.50998L51.8091 6.75033ZM54.4427 6.29111C55.3563 6.29111 56.1006 6.404 56.6805 6.62434L56.7717 6.38425C56.1529 6.14911 55.375 6.03426 54.4427 6.03426V6.29111ZM56.6813 6.62464C57.2799 6.84767 57.8315 7.15866 58.3365 7.55794L58.4958 7.35647C57.97 6.94068 57.3949 6.6164 56.7709 6.38395L56.6813 6.62464ZM58.2877 7.45721V10.3519H58.5446V7.45721H58.2877ZM58.5124 10.2668C58.229 9.94646 57.8912 9.65199 57.5001 9.38305L57.3545 9.59471C57.7305 9.85317 58.052 10.134 58.32 10.437L58.5124 10.2668ZM57.5016 9.38415C57.1189 9.11255 56.6879 8.89727 56.2093 8.73777L56.1281 8.98144C56.5845 9.13358 56.9925 9.33782 57.353 9.59361L57.5016 9.38415ZM56.2093 8.73777C55.7263 8.57675 55.1788 8.49744 54.5686 8.49744V8.75429C55.157 8.75429 55.6762 8.8308 56.1281 8.98144L56.2093 8.73777ZM54.5686 8.49744C53.8285 8.49744 53.1419 8.67037 52.511 9.01672L52.6347 9.24187C53.2264 8.91698 53.8703 8.75429 54.5686 8.75429V8.49744ZM52.5128 9.01579C51.8807 9.35044 51.3668 9.8339 50.9718 10.4634L51.1893 10.5999C51.5615 10.0069 52.0424 9.55541 52.6329 9.24279L52.5128 9.01579ZM50.9708 10.465C50.585 11.0996 50.3948 11.8488 50.3948 12.7072H50.6516C50.6516 11.8876 50.8329 11.1863 51.1903 10.5984L50.9708 10.465ZM61.2955 6.4144V6.28597C61.2246 6.28597 61.1671 6.34347 61.1671 6.4144H61.2955ZM63.8666 6.4144H63.995C63.995 6.34347 63.9375 6.28597 63.8666 6.28597V6.4144ZM63.8666 16.7526H63.7381C63.7381 16.8235 63.7956 16.881 63.8666 16.881V16.7526ZM68.8828 16.7526H69.0112C69.0112 16.6816 68.9537 16.6241 68.8828 16.6241V16.7526ZM68.8828 19V19.1284C68.9537 19.1284 69.0112 19.0709 69.0112 19H68.8828ZM61.2955 19H61.1671C61.1671 19.0709 61.2246 19.1284 61.2955 19.1284V19ZM61.2955 6.54282H63.8666V6.28597H61.2955V6.54282ZM63.7381 6.4144V16.7526H63.995V6.4144H63.7381ZM63.8666 16.881H68.8828V16.6241H63.8666V16.881ZM68.7544 16.7526V19H69.0112V16.7526H68.7544ZM68.8828 18.8716H61.2955V19.1284H68.8828V18.8716ZM61.4239 19V6.4144H61.1671V19H61.4239ZM70.5866 6.4144V6.28597C70.5157 6.28597 70.4582 6.34347 70.4582 6.4144H70.5866ZM73.1577 6.4144H73.2861C73.2861 6.34347 73.2286 6.28597 73.1577 6.28597V6.4144ZM73.715 16.4469L73.6166 16.5294L73.619 16.5322L73.715 16.4469ZM77.0772 16.4469L76.98 16.3629L76.9799 16.3631L77.0772 16.4469ZM77.6525 6.4144V6.28597C77.5816 6.28597 77.5241 6.34347 77.5241 6.4144H77.6525ZM80.2236 6.4144H80.352C80.352 6.34347 80.2945 6.28597 80.2236 6.28597V6.4144ZM79.864 16.8245L79.7458 16.7742L79.864 16.8245ZM78.8392 18.2449L78.7552 18.1477L78.7539 18.1489L78.8392 18.2449ZM77.3109 19.1079L77.271 18.9858L77.2688 18.9865L77.3109 19.1079ZM73.4813 19.1079L73.5234 18.9865L73.5212 18.9858L73.4813 19.1079ZM71.953 18.2449L71.8677 18.3408L71.953 18.2449ZM70.5866 6.54282H73.1577V6.28597H70.5866V6.54282ZM73.0293 6.4144V14.7029H73.2861V6.4144H73.0293ZM73.0293 14.7029C73.0293 15.4447 73.2213 16.0576 73.6166 16.5294L73.8135 16.3644C73.4656 15.9493 73.2861 15.3995 73.2861 14.7029H73.0293ZM73.619 16.5322C74.0336 16.9986 74.6365 17.2226 75.4051 17.2226V16.9658C74.6874 16.9658 74.1636 16.7583 73.811 16.3616L73.619 16.5322ZM75.4051 17.2226C76.1735 17.2226 76.7716 16.9986 77.1745 16.5307L76.9799 16.3631C76.6396 16.7582 76.123 16.9658 75.4051 16.9658V17.2226ZM77.1743 16.5309C77.5824 16.0591 77.781 15.4457 77.781 14.7029H77.5241C77.5241 15.3985 77.3391 15.9477 76.98 16.3629L77.1743 16.5309ZM77.781 14.7029V6.4144H77.5241V14.7029H77.781ZM77.6525 6.54282H80.2236V6.28597H77.6525V6.54282ZM80.0952 6.4144V14.8647H80.352V6.4144H80.0952ZM80.0952 14.8647C80.0952 15.5942 79.9775 16.2298 79.7458 16.7742L79.9822 16.8748C80.2299 16.2925 80.352 15.6216 80.352 14.8647H80.0952ZM79.7458 16.7742C79.5134 17.3204 79.1832 17.7775 78.7552 18.1477L78.9232 18.342C79.3821 17.9451 79.7351 17.4553 79.9822 16.8748L79.7458 16.7742ZM78.7539 18.1489C78.3364 18.5199 77.8428 18.7991 77.2711 18.9858L77.3508 19.23C77.9537 19.0331 78.4789 18.7369 78.9245 18.3408L78.7539 18.1489ZM77.2688 18.9865C76.6963 19.1852 76.0754 19.2851 75.4051 19.2851V19.542C76.1012 19.542 76.7509 19.4381 77.353 19.2292L77.2688 18.9865ZM75.4051 19.2851C74.7225 19.2851 74.0957 19.1851 73.5234 18.9865L73.4392 19.2292C74.0416 19.4382 74.6973 19.542 75.4051 19.542V19.2851ZM73.5212 18.9858C72.9494 18.7991 72.4558 18.5199 72.0384 18.1489L71.8677 18.3408C72.3133 18.7369 72.8385 19.0331 73.4414 19.23L73.5212 18.9858ZM72.0384 18.1489C71.6219 17.7787 71.2971 17.3212 71.0644 16.7742L70.828 16.8748C71.0747 17.4545 71.4212 17.9439 71.8677 18.3408L72.0384 18.1489ZM71.0644 16.7742C70.8327 16.2298 70.715 15.5942 70.715 14.8647H70.4582C70.4582 15.6216 70.5803 16.2925 70.828 16.8748L71.0644 16.7742ZM70.715 14.8647V6.4144H70.4582V14.8647H70.715ZM85.0891 12.6173H84.9607C84.9607 12.6882 85.0182 12.7457 85.0891 12.7457V12.6173ZM85.0891 11.4486V11.3202C85.0182 11.3202 84.9607 11.3777 84.9607 11.4486H85.0891ZM88.0917 11.2688L88.1429 11.3866L88.0917 11.2688ZM88.7209 10.7474L88.6149 10.6749L88.6124 10.6789L88.7209 10.7474ZM88.4512 8.84162L88.3724 8.94301L88.3742 8.94436L88.4512 8.84162ZM85.7363 8.46405V8.33563C85.6654 8.33563 85.6079 8.39313 85.6079 8.46405H85.7363ZM85.7363 16.9503H85.6079C85.6079 17.0213 85.6654 17.0788 85.7363 17.0788V16.9503ZM88.5591 16.7705L88.601 16.892L88.6047 16.8906L88.5591 16.7705ZM89.3682 16.1593L89.2649 16.0829L89.2628 16.0859L89.3682 16.1593ZM89.494 14.3074L89.3777 14.3625L89.3818 14.3697L89.494 14.3074ZM89.0086 13.75L88.9304 13.8522L88.9374 13.8569L89.0086 13.75ZM88.2894 13.4264L88.257 13.5507L88.2621 13.5519L88.2894 13.4264ZM85.0891 13.3185H84.9607C84.9607 13.3894 85.0182 13.4469 85.0891 13.4469V13.3185ZM85.0891 11.9161V11.7877C85.0182 11.7877 84.9607 11.8452 84.9607 11.9161H85.0891ZM89.3682 12.1139L89.3383 12.2388L89.3389 12.2389L89.3682 12.1139ZM90.8785 12.7432L90.8086 12.8509L90.8107 12.8522L90.8785 12.7432ZM91.9213 13.8219L91.8096 13.8853L91.8109 13.8876L91.9213 13.8219ZM91.7235 17.4538L91.6207 17.3767L91.6196 17.3782L91.7235 17.4538ZM83.1653 19H83.0369C83.0369 19.0709 83.0944 19.1284 83.1653 19.1284V19ZM83.1653 6.4144V6.28597C83.0944 6.28597 83.0369 6.34347 83.0369 6.4144H83.1653ZM89.566 6.77399L89.5206 6.89416L89.5226 6.89488L89.566 6.77399ZM91.0583 7.81679L91.16 7.73849L91.0583 7.81679ZM91.0583 11.2329L91.1591 11.3125L91.0583 11.2329ZM89.566 12.2757L89.6093 12.3966L89.6113 12.3958L89.566 12.2757ZM85.2175 12.6173V11.4486H84.9607V12.6173H85.2175ZM85.0891 11.5771H87.1208V11.3202H85.0891V11.5771ZM87.1208 11.5771C87.5059 11.5771 87.8477 11.515 88.1429 11.3866L88.0404 11.1511C87.7843 11.2625 87.4788 11.3202 87.1208 11.3202V11.5771ZM88.1429 11.3866C88.4393 11.2577 88.6703 11.068 88.8295 10.816L88.6124 10.6789C88.4838 10.8823 88.2954 11.0402 88.0404 11.1511L88.1429 11.3866ZM88.8269 10.82C88.9992 10.5682 89.0831 10.2724 89.0831 9.93837H88.8262C88.8262 10.2276 88.7543 10.4712 88.6149 10.6749L88.8269 10.82ZM89.0831 9.93837C89.0831 9.42508 88.9012 9.01855 88.5283 8.73888L88.3742 8.94436C88.6725 9.16812 88.8262 9.49275 88.8262 9.93837H89.0831ZM88.5301 8.74025C88.1768 8.46548 87.7021 8.33563 87.1208 8.33563V8.59248C87.6661 8.59248 88.0784 8.71434 88.3724 8.943L88.5301 8.74025ZM87.1208 8.33563H85.7363V8.59248H87.1208V8.33563ZM85.6079 8.46405V16.9503H85.8648V8.46405H85.6079ZM85.7363 17.0788H87.3905V16.8219H85.7363V17.0788ZM87.3905 17.0788C87.8338 17.0788 88.2378 17.0172 88.601 16.892L88.5173 16.6491C88.1852 16.7636 87.8101 16.8219 87.3905 16.8219V17.0788ZM88.6047 16.8906C88.9738 16.7506 89.2655 16.5318 89.4736 16.2326L89.2628 16.0859C89.0873 16.3381 88.8397 16.5268 88.5136 16.6505L88.6047 16.8906ZM89.4715 16.2356C89.6954 15.9326 89.8023 15.5503 89.8023 15.0985H89.5454C89.5454 15.5097 89.4485 15.8345 89.2649 16.0829L89.4715 16.2356ZM89.8023 15.0985C89.8023 14.7706 89.7392 14.4842 89.6063 14.245L89.3818 14.3697C89.4886 14.562 89.5454 14.803 89.5454 15.0985H89.8023ZM89.6101 14.2524C89.492 14.003 89.3144 13.7995 89.0798 13.6432L88.9374 13.8569C89.1343 13.9882 89.2804 14.1563 89.378 14.3623L89.6101 14.2524ZM89.0866 13.648C88.8664 13.4796 88.609 13.3644 88.3167 13.3009L88.2621 13.5519C88.5213 13.6082 88.7432 13.7088 88.9306 13.852L89.0866 13.648ZM88.3218 13.3021C88.0343 13.2271 87.7236 13.1901 87.3905 13.1901V13.4469C87.7046 13.4469 87.9932 13.4818 88.257 13.5506L88.3218 13.3021ZM87.3905 13.1901H85.0891V13.4469H87.3905V13.1901ZM85.2175 13.3185V11.9161H84.9607V13.3185H85.2175ZM85.0891 12.0445H87.6242V11.7877H85.0891V12.0445ZM87.6242 12.0445C88.2262 12.0445 88.7975 12.1094 89.3383 12.2388L89.3981 11.989C88.8362 11.8546 88.2448 11.7877 87.6242 11.7877V12.0445ZM89.3389 12.2389C89.8892 12.3677 90.3786 12.572 90.8086 12.8509L90.9483 12.6354C90.4913 12.3389 89.9739 12.1237 89.3975 11.9888L89.3389 12.2389ZM90.8107 12.8522C91.2364 13.1169 91.5687 13.4609 91.8096 13.8853L92.033 13.7585C91.7704 13.2959 91.4075 12.9208 90.9463 12.6341L90.8107 12.8522ZM91.8109 13.8876C92.0605 14.3074 92.1884 14.8171 92.1884 15.4221H92.4452C92.4452 14.7805 92.3094 14.2234 92.0317 13.7563L91.8109 13.8876ZM92.1884 15.4221C92.1884 16.2285 91.9958 16.8767 91.6208 17.3767L91.8262 17.5308C92.2423 16.9761 92.4452 16.2698 92.4452 15.4221H92.1884ZM91.6196 17.3782C91.2535 17.8817 90.7309 18.2571 90.0443 18.5014L90.1304 18.7434C90.8582 18.4844 91.4264 18.0807 91.8274 17.5293L91.6196 17.3782ZM90.0443 18.5014C89.3539 18.7472 88.5479 18.8716 87.6242 18.8716V19.1284C88.5703 19.1284 89.4065 19.0011 90.1304 18.7434L90.0443 18.5014ZM87.6242 18.8716H83.1653V19.1284H87.6242V18.8716ZM83.2937 19V6.4144H83.0369V19H83.2937ZM83.1653 6.54282H87.3545V6.28597H83.1653V6.54282ZM87.3545 6.54282C88.1816 6.54282 88.9028 6.661 89.5206 6.89414L89.6113 6.65383C88.9586 6.40752 88.2055 6.28597 87.3545 6.28597V6.54282ZM89.5226 6.89488C90.1382 7.11554 90.614 7.44983 90.9565 7.8951L91.16 7.73849C90.7834 7.24883 90.2643 6.88791 89.6093 6.6531L89.5226 6.89488ZM90.9565 7.8951C91.2953 8.33553 91.4692 8.89953 91.4692 9.59676H91.7261C91.7261 8.85564 91.5404 8.23299 91.16 7.73849L90.9565 7.8951ZM91.4692 9.59676C91.4692 10.2061 91.2974 10.7227 90.9575 11.1533L91.1591 11.3125C91.5383 10.8321 91.7261 10.258 91.7261 9.59676H91.4692ZM90.9575 11.1533C90.6146 11.5876 90.1378 11.9226 89.5206 12.1555L89.6113 12.3958C90.2646 12.1493 90.7827 11.7892 91.1591 11.3125L90.9575 11.1533ZM89.5226 12.1548C88.9042 12.3765 88.1822 12.4889 87.3545 12.4889V12.7457C88.2049 12.7457 88.9572 12.6304 89.6093 12.3966L89.5226 12.1548ZM87.3545 12.4889H85.0891V12.7457H87.3545V12.4889Z" fill="url(#paint1_linear_59458_58072)" mask="url(#path-1-outside-1_59458_58072)"/>
        <mask id="path-3-outside-2_59458_58072" maskUnits="userSpaceOnUse" x="5" y="25.2637" width="89" height="7" fill="black">
        <rect fill="white" x="5" y="25.2637" width="89" height="7"/>
        <path d="M6.60274 27.9811L6.23288 31.2637H5.29281L6.03253 25.6002L8.244 29.2602L10.4632 25.6002L11.2029 31.2637H10.2628L9.88527 27.9811L8.244 30.7628L6.60274 27.9811ZM17.1448 31.2637V30.4623H19.8649V31.2637H17.1448ZM17.1448 26.6712V25.8698H19.8649V26.6712H17.1448ZM17.1448 28.7671V27.9811H19.7107V28.7671H17.1448ZM16.5823 25.8698H17.4762V31.2637H16.5823V25.8698ZM26.4809 27.9811L26.1111 31.2637H25.171L25.9107 25.6002L28.1222 29.2602L30.3414 25.6002L31.0811 31.2637H30.141L29.7635 27.9811L28.1222 30.7628L26.4809 27.9811ZM37.154 28.482V28.0351H38.0247C38.1943 28.0351 38.3432 28.0068 38.4717 27.9503C38.6001 27.8938 38.7003 27.8142 38.7722 27.7114C38.8441 27.6036 38.88 27.4751 38.88 27.3262C38.88 27.1001 38.8004 26.9255 38.6412 26.8022C38.4819 26.6789 38.2765 26.6173 38.0247 26.6173H37.3698V30.5162H38.1249C38.3304 30.5162 38.5128 30.4829 38.672 30.4161C38.8312 30.3493 38.9571 30.2491 39.0496 30.1156C39.142 29.982 39.1883 29.815 39.1883 29.6147C39.1883 29.4709 39.16 29.345 39.1035 29.2371C39.0521 29.1241 38.9777 29.0317 38.88 28.9597C38.7876 28.8827 38.6771 28.8287 38.5487 28.7979C38.4203 28.762 38.279 28.744 38.1249 28.744H37.154V28.2431H38.1789C38.4408 28.2431 38.6874 28.2714 38.9186 28.3279C39.1497 28.3844 39.3552 28.4717 39.535 28.5899C39.7199 28.708 39.8638 28.8596 39.9665 29.0445C40.0693 29.2294 40.1206 29.4503 40.1206 29.7072C40.1206 30.0616 40.0359 30.3544 39.8663 30.5856C39.702 30.8168 39.4734 30.9888 39.1806 31.1019C38.8929 31.2097 38.559 31.2637 38.1789 31.2637H36.4605V25.8698H38.0864C38.4254 25.8698 38.7234 25.9186 38.9802 26.0162C39.2422 26.1138 39.4451 26.2628 39.589 26.4632C39.7379 26.6635 39.8124 26.9178 39.8124 27.226C39.8124 27.4931 39.7379 27.7217 39.589 27.9118C39.4451 28.0967 39.2422 28.238 38.9802 28.3356C38.7234 28.4332 38.4254 28.482 38.0864 28.482H37.154ZM46.1382 31.2637V30.4623H48.8582V31.2637H46.1382ZM46.1382 26.6712V25.8698H48.8582V26.6712H46.1382ZM46.1382 28.7671V27.9811H48.7041V28.7671H46.1382ZM45.5757 25.8698H46.4695V31.2637H45.5757V25.8698ZM55.5822 28.69H56.5685L58.3947 31.2637H57.3005L55.5822 28.69ZM54.4726 25.8698H55.3818V31.2637H54.4726V25.8698ZM55.012 26.6558V25.8698H56.137C56.5274 25.8698 56.8664 25.9392 57.1541 26.0779C57.4469 26.2166 57.6729 26.4118 57.8322 26.6635C57.9914 26.9101 58.071 27.2029 58.071 27.5419C58.071 27.881 57.9914 28.1763 57.8322 28.4281C57.6729 28.6798 57.4469 28.875 57.1541 29.0137C56.8664 29.1524 56.5274 29.2217 56.137 29.2217H55.012V28.4743H56.0984C56.3039 28.4743 56.4837 28.4383 56.6378 28.3664C56.7971 28.2945 56.9203 28.1918 57.0077 28.0582C57.095 27.9195 57.1387 27.7551 57.1387 27.565C57.1387 27.3698 57.095 27.2055 57.0077 27.0719C56.9203 26.9383 56.7971 26.8356 56.6378 26.7637C56.4837 26.6918 56.3039 26.6558 56.0984 26.6558H55.012ZM63.9045 29.5299C64.0227 29.7354 64.1485 29.9178 64.2821 30.077C64.4208 30.2311 64.5723 30.3519 64.7367 30.4392C64.9011 30.5214 65.086 30.5625 65.2915 30.5625C65.5381 30.5625 65.7384 30.4957 65.8925 30.3621C66.0466 30.2286 66.1237 30.0565 66.1237 29.8459C66.1237 29.6455 66.0749 29.4863 65.9773 29.3681C65.8797 29.2448 65.7436 29.1421 65.5689 29.0599C65.3994 28.9726 65.2016 28.8878 64.9756 28.8056C64.842 28.7594 64.6931 28.6978 64.5287 28.6207C64.3643 28.5385 64.2076 28.4383 64.0586 28.3202C63.9097 28.1969 63.7864 28.0479 63.6888 27.8733C63.5912 27.6935 63.5424 27.4777 63.5424 27.226C63.5424 26.9383 63.6169 26.6866 63.7658 26.4709C63.9148 26.25 64.1151 26.0805 64.3669 25.9623C64.6237 25.839 64.9139 25.7774 65.2376 25.7774C65.5561 25.7774 65.8335 25.8339 66.0698 25.9469C66.3061 26.0599 66.5038 26.2037 66.6631 26.3784C66.8275 26.5531 66.9559 26.7354 67.0484 26.9255L66.3086 27.3416C66.2419 27.208 66.1571 27.0847 66.0544 26.9717C65.9516 26.8536 65.8309 26.7611 65.6922 26.6943C65.5586 26.6224 65.402 26.5865 65.2222 26.5865C64.9704 26.5865 64.7855 26.6455 64.6674 26.7637C64.5492 26.8767 64.4901 27.0103 64.4901 27.1644C64.4901 27.3031 64.5312 27.4289 64.6134 27.5419C64.7008 27.6498 64.8343 27.7525 65.0141 27.8501C65.1939 27.9478 65.4276 28.0479 65.7153 28.1507C65.8746 28.2072 66.0338 28.2791 66.1931 28.3664C66.3574 28.4537 66.5064 28.5642 66.64 28.6978C66.7735 28.8262 66.8788 28.9777 66.9559 29.1524C67.0381 29.327 67.0792 29.5325 67.0792 29.7688C67.0792 30.0205 67.0304 30.2465 66.9328 30.4469C66.8352 30.6472 66.7016 30.8168 66.5321 30.9555C66.3626 31.089 66.1699 31.1918 65.9542 31.2637C65.7436 31.3407 65.5227 31.3793 65.2915 31.3793C64.973 31.3793 64.6776 31.3176 64.4054 31.1943C64.1383 31.0659 63.9045 30.8964 63.7042 30.6858C63.5038 30.4751 63.3446 30.2465 63.2264 30L63.9045 29.5299ZM72.8693 28.7902V27.9503H76.7144V28.7902H72.8693ZM76.1287 25.8698H77.038V31.2637H76.1287V25.8698ZM72.5072 25.8698H73.4164V31.2637H72.5072V25.8698ZM82.736 25.8698H83.6529V31.2637H82.736V25.8698ZM89.3529 25.8698H90.2621V31.2637H89.3529V25.8698ZM89.8922 26.6712V25.8698H90.9787C91.3691 25.8698 91.7082 25.9392 91.9958 26.0779C92.2886 26.2115 92.5147 26.4041 92.6739 26.6558C92.8332 26.9024 92.9128 27.1978 92.9128 27.5419C92.9128 27.8861 92.8332 28.1841 92.6739 28.4358C92.5147 28.6875 92.2886 28.8827 91.9958 29.0214C91.7082 29.1549 91.3691 29.2217 90.9787 29.2217H89.8922V28.4204H90.9787C91.2921 28.4204 91.5438 28.3459 91.7339 28.1969C91.9239 28.0479 92.019 27.8296 92.019 27.5419C92.019 27.2543 91.9239 27.0385 91.7339 26.8947C91.5438 26.7457 91.2921 26.6712 90.9787 26.6712H89.8922Z"/>
        </mask>
        <path d="M6.60274 27.9811L6.23288 31.2637H5.29281L6.03253 25.6002L8.244 29.2602L10.4632 25.6002L11.2029 31.2637H10.2628L9.88527 27.9811L8.244 30.7628L6.60274 27.9811ZM17.1448 31.2637V30.4623H19.8649V31.2637H17.1448ZM17.1448 26.6712V25.8698H19.8649V26.6712H17.1448ZM17.1448 28.7671V27.9811H19.7107V28.7671H17.1448ZM16.5823 25.8698H17.4762V31.2637H16.5823V25.8698ZM26.4809 27.9811L26.1111 31.2637H25.171L25.9107 25.6002L28.1222 29.2602L30.3414 25.6002L31.0811 31.2637H30.141L29.7635 27.9811L28.1222 30.7628L26.4809 27.9811ZM37.154 28.482V28.0351H38.0247C38.1943 28.0351 38.3432 28.0068 38.4717 27.9503C38.6001 27.8938 38.7003 27.8142 38.7722 27.7114C38.8441 27.6036 38.88 27.4751 38.88 27.3262C38.88 27.1001 38.8004 26.9255 38.6412 26.8022C38.4819 26.6789 38.2765 26.6173 38.0247 26.6173H37.3698V30.5162H38.1249C38.3304 30.5162 38.5128 30.4829 38.672 30.4161C38.8312 30.3493 38.9571 30.2491 39.0496 30.1156C39.142 29.982 39.1883 29.815 39.1883 29.6147C39.1883 29.4709 39.16 29.345 39.1035 29.2371C39.0521 29.1241 38.9777 29.0317 38.88 28.9597C38.7876 28.8827 38.6771 28.8287 38.5487 28.7979C38.4203 28.762 38.279 28.744 38.1249 28.744H37.154V28.2431H38.1789C38.4408 28.2431 38.6874 28.2714 38.9186 28.3279C39.1497 28.3844 39.3552 28.4717 39.535 28.5899C39.7199 28.708 39.8638 28.8596 39.9665 29.0445C40.0693 29.2294 40.1206 29.4503 40.1206 29.7072C40.1206 30.0616 40.0359 30.3544 39.8663 30.5856C39.702 30.8168 39.4734 30.9888 39.1806 31.1019C38.8929 31.2097 38.559 31.2637 38.1789 31.2637H36.4605V25.8698H38.0864C38.4254 25.8698 38.7234 25.9186 38.9802 26.0162C39.2422 26.1138 39.4451 26.2628 39.589 26.4632C39.7379 26.6635 39.8124 26.9178 39.8124 27.226C39.8124 27.4931 39.7379 27.7217 39.589 27.9118C39.4451 28.0967 39.2422 28.238 38.9802 28.3356C38.7234 28.4332 38.4254 28.482 38.0864 28.482H37.154ZM46.1382 31.2637V30.4623H48.8582V31.2637H46.1382ZM46.1382 26.6712V25.8698H48.8582V26.6712H46.1382ZM46.1382 28.7671V27.9811H48.7041V28.7671H46.1382ZM45.5757 25.8698H46.4695V31.2637H45.5757V25.8698ZM55.5822 28.69H56.5685L58.3947 31.2637H57.3005L55.5822 28.69ZM54.4726 25.8698H55.3818V31.2637H54.4726V25.8698ZM55.012 26.6558V25.8698H56.137C56.5274 25.8698 56.8664 25.9392 57.1541 26.0779C57.4469 26.2166 57.6729 26.4118 57.8322 26.6635C57.9914 26.9101 58.071 27.2029 58.071 27.5419C58.071 27.881 57.9914 28.1763 57.8322 28.4281C57.6729 28.6798 57.4469 28.875 57.1541 29.0137C56.8664 29.1524 56.5274 29.2217 56.137 29.2217H55.012V28.4743H56.0984C56.3039 28.4743 56.4837 28.4383 56.6378 28.3664C56.7971 28.2945 56.9203 28.1918 57.0077 28.0582C57.095 27.9195 57.1387 27.7551 57.1387 27.565C57.1387 27.3698 57.095 27.2055 57.0077 27.0719C56.9203 26.9383 56.7971 26.8356 56.6378 26.7637C56.4837 26.6918 56.3039 26.6558 56.0984 26.6558H55.012ZM63.9045 29.5299C64.0227 29.7354 64.1485 29.9178 64.2821 30.077C64.4208 30.2311 64.5723 30.3519 64.7367 30.4392C64.9011 30.5214 65.086 30.5625 65.2915 30.5625C65.5381 30.5625 65.7384 30.4957 65.8925 30.3621C66.0466 30.2286 66.1237 30.0565 66.1237 29.8459C66.1237 29.6455 66.0749 29.4863 65.9773 29.3681C65.8797 29.2448 65.7436 29.1421 65.5689 29.0599C65.3994 28.9726 65.2016 28.8878 64.9756 28.8056C64.842 28.7594 64.6931 28.6978 64.5287 28.6207C64.3643 28.5385 64.2076 28.4383 64.0586 28.3202C63.9097 28.1969 63.7864 28.0479 63.6888 27.8733C63.5912 27.6935 63.5424 27.4777 63.5424 27.226C63.5424 26.9383 63.6169 26.6866 63.7658 26.4709C63.9148 26.25 64.1151 26.0805 64.3669 25.9623C64.6237 25.839 64.9139 25.7774 65.2376 25.7774C65.5561 25.7774 65.8335 25.8339 66.0698 25.9469C66.3061 26.0599 66.5038 26.2037 66.6631 26.3784C66.8275 26.5531 66.9559 26.7354 67.0484 26.9255L66.3086 27.3416C66.2419 27.208 66.1571 27.0847 66.0544 26.9717C65.9516 26.8536 65.8309 26.7611 65.6922 26.6943C65.5586 26.6224 65.402 26.5865 65.2222 26.5865C64.9704 26.5865 64.7855 26.6455 64.6674 26.7637C64.5492 26.8767 64.4901 27.0103 64.4901 27.1644C64.4901 27.3031 64.5312 27.4289 64.6134 27.5419C64.7008 27.6498 64.8343 27.7525 65.0141 27.8501C65.1939 27.9478 65.4276 28.0479 65.7153 28.1507C65.8746 28.2072 66.0338 28.2791 66.1931 28.3664C66.3574 28.4537 66.5064 28.5642 66.64 28.6978C66.7735 28.8262 66.8788 28.9777 66.9559 29.1524C67.0381 29.327 67.0792 29.5325 67.0792 29.7688C67.0792 30.0205 67.0304 30.2465 66.9328 30.4469C66.8352 30.6472 66.7016 30.8168 66.5321 30.9555C66.3626 31.089 66.1699 31.1918 65.9542 31.2637C65.7436 31.3407 65.5227 31.3793 65.2915 31.3793C64.973 31.3793 64.6776 31.3176 64.4054 31.1943C64.1383 31.0659 63.9045 30.8964 63.7042 30.6858C63.5038 30.4751 63.3446 30.2465 63.2264 30L63.9045 29.5299ZM72.8693 28.7902V27.9503H76.7144V28.7902H72.8693ZM76.1287 25.8698H77.038V31.2637H76.1287V25.8698ZM72.5072 25.8698H73.4164V31.2637H72.5072V25.8698ZM82.736 25.8698H83.6529V31.2637H82.736V25.8698ZM89.3529 25.8698H90.2621V31.2637H89.3529V25.8698ZM89.8922 26.6712V25.8698H90.9787C91.3691 25.8698 91.7082 25.9392 91.9958 26.0779C92.2886 26.2115 92.5147 26.4041 92.6739 26.6558C92.8332 26.9024 92.9128 27.1978 92.9128 27.5419C92.9128 27.8861 92.8332 28.1841 92.6739 28.4358C92.5147 28.6875 92.2886 28.8827 91.9958 29.0214C91.7082 29.1549 91.3691 29.2217 90.9787 29.2217H89.8922V28.4204H90.9787C91.2921 28.4204 91.5438 28.3459 91.7339 28.1969C91.9239 28.0479 92.019 27.8296 92.019 27.5419C92.019 27.2543 91.9239 27.0385 91.7339 26.8947C91.5438 26.7457 91.2921 26.6712 90.9787 26.6712H89.8922Z" fill="url(#paint2_linear_59458_58072)"/>
        <path d="M6.60274 27.9811L6.71334 27.9159C6.68528 27.8683 6.62993 27.844 6.57591 27.8555C6.5219 27.8671 6.48131 27.9119 6.47512 27.9668L6.60274 27.9811ZM6.23288 31.2637V31.3921C6.29824 31.3921 6.35317 31.343 6.36049 31.2781L6.23288 31.2637ZM5.29281 31.2637L5.16546 31.247C5.16068 31.2837 5.17191 31.3206 5.1963 31.3484C5.22068 31.3762 5.25585 31.3921 5.29281 31.3921V31.2637ZM6.03253 25.6002L6.14245 25.5337C6.11423 25.487 6.05957 25.4633 6.00616 25.4745C5.95275 25.4857 5.91226 25.5294 5.90519 25.5835L6.03253 25.6002ZM8.244 29.2602L8.13408 29.3267C8.15732 29.3651 8.19897 29.3886 8.2439 29.3887C8.28884 29.3887 8.33052 29.3653 8.35382 29.3268L8.244 29.2602ZM10.4632 25.6002L10.5905 25.5835C10.5835 25.5294 10.543 25.4857 10.4896 25.4745C10.4363 25.4632 10.3816 25.4869 10.3534 25.5336L10.4632 25.6002ZM11.2029 31.2637V31.3921C11.2399 31.3921 11.275 31.3762 11.2994 31.3484C11.3238 31.3206 11.335 31.2837 11.3302 31.247L11.2029 31.2637ZM10.2628 31.2637L10.1353 31.2783C10.1427 31.3432 10.1976 31.3921 10.2628 31.3921V31.2637ZM9.88527 27.9811L10.0129 27.9665C10.0065 27.9116 9.96593 27.867 9.91195 27.8555C9.85797 27.8441 9.8027 27.8684 9.77466 27.9159L9.88527 27.9811ZM8.244 30.7628L8.1334 30.8281C8.15649 30.8672 8.19855 30.8912 8.244 30.8912C8.28945 30.8912 8.33151 30.8672 8.35461 30.8281L8.244 30.7628ZM6.47512 27.9668L6.10526 31.2493L6.36049 31.2781L6.73035 27.9955L6.47512 27.9668ZM6.23288 31.1352H5.29281V31.3921H6.23288V31.1352ZM5.42015 31.2803L6.15988 25.6168L5.90519 25.5835L5.16546 31.247L5.42015 31.2803ZM5.92261 25.6666L8.13408 29.3267L8.35392 29.1938L6.14245 25.5337L5.92261 25.6666ZM8.35382 29.3268L10.573 25.6667L10.3534 25.5336L8.13419 29.1937L8.35382 29.3268ZM10.3358 25.6168L11.0756 31.2803L11.3302 31.247L10.5905 25.5835L10.3358 25.6168ZM11.2029 31.1352H10.2628V31.3921H11.2029V31.1352ZM10.3904 31.249L10.0129 27.9665L9.75768 27.9958L10.1353 31.2783L10.3904 31.249ZM9.77466 27.9159L8.1334 30.6976L8.35461 30.8281L9.99587 28.0464L9.77466 27.9159ZM8.35461 30.6976L6.71334 27.9159L6.49213 28.0464L8.1334 30.8281L8.35461 30.6976ZM17.1448 31.2637H17.0164C17.0164 31.3346 17.0739 31.3921 17.1448 31.3921V31.2637ZM17.1448 30.4623V30.3339C17.0739 30.3339 17.0164 30.3914 17.0164 30.4623H17.1448ZM19.8649 30.4623H19.9933C19.9933 30.3914 19.9358 30.3339 19.8649 30.3339V30.4623ZM19.8649 31.2637V31.3921C19.9358 31.3921 19.9933 31.3346 19.9933 31.2637H19.8649ZM17.1448 26.6712H17.0164C17.0164 26.7421 17.0739 26.7996 17.1448 26.7996V26.6712ZM17.1448 25.8698V25.7414C17.0739 25.7414 17.0164 25.7989 17.0164 25.8698H17.1448ZM19.8649 25.8698H19.9933C19.9933 25.7989 19.9358 25.7414 19.8649 25.7414V25.8698ZM19.8649 26.6712V26.7996C19.9358 26.7996 19.9933 26.7421 19.9933 26.6712H19.8649ZM17.1448 28.7671H17.0164C17.0164 28.838 17.0739 28.8955 17.1448 28.8955V28.7671ZM17.1448 27.9811V27.8527C17.0739 27.8527 17.0164 27.9102 17.0164 27.9811H17.1448ZM19.7107 27.9811H19.8392C19.8392 27.9102 19.7817 27.8527 19.7107 27.8527V27.9811ZM19.7107 28.7671V28.8955C19.7817 28.8955 19.8392 28.838 19.8392 28.7671H19.7107ZM16.5823 25.8698V25.7414C16.5114 25.7414 16.4539 25.7989 16.4539 25.8698H16.5823ZM17.4762 25.8698H17.6046C17.6046 25.7989 17.5471 25.7414 17.4762 25.7414V25.8698ZM17.4762 31.2637V31.3921C17.5471 31.3921 17.6046 31.3346 17.6046 31.2637H17.4762ZM16.5823 31.2637H16.4539C16.4539 31.3346 16.5114 31.3921 16.5823 31.3921V31.2637ZM17.2732 31.2637V30.4623H17.0164V31.2637H17.2732ZM17.1448 30.5907H19.8649V30.3339H17.1448V30.5907ZM19.7364 30.4623V31.2637H19.9933V30.4623H19.7364ZM19.8649 31.1352H17.1448V31.3921H19.8649V31.1352ZM17.2732 26.6712V25.8698H17.0164V26.6712H17.2732ZM17.1448 25.9983H19.8649V25.7414H17.1448V25.9983ZM19.7364 25.8698V26.6712H19.9933V25.8698H19.7364ZM19.8649 26.5428H17.1448V26.7996H19.8649V26.5428ZM17.2732 28.7671V27.9811H17.0164V28.7671H17.2732ZM17.1448 28.1096H19.7107V27.8527H17.1448V28.1096ZM19.5823 27.9811V28.7671H19.8392V27.9811H19.5823ZM19.7107 28.6387H17.1448V28.8955H19.7107V28.6387ZM16.5823 25.9983H17.4762V25.7414H16.5823V25.9983ZM17.3477 25.8698V31.2637H17.6046V25.8698H17.3477ZM17.4762 31.1352H16.5823V31.3921H17.4762V31.1352ZM16.7107 31.2637V25.8698H16.4539V31.2637H16.7107ZM26.4809 27.9811L26.5916 27.9159C26.5635 27.8683 26.5081 27.844 26.4541 27.8555C26.4001 27.8671 26.3595 27.9119 26.3533 27.9668L26.4809 27.9811ZM26.1111 31.2637V31.3921C26.1764 31.3921 26.2314 31.343 26.2387 31.2781L26.1111 31.2637ZM25.171 31.2637L25.0437 31.247C25.0389 31.2837 25.0501 31.3206 25.0745 31.3484C25.0989 31.3762 25.1341 31.3921 25.171 31.3921V31.2637ZM25.9107 25.6002L26.0207 25.5337C25.9924 25.487 25.9378 25.4633 25.8844 25.4745C25.831 25.4857 25.7905 25.5294 25.7834 25.5835L25.9107 25.6002ZM28.1222 29.2602L28.0123 29.3267C28.0355 29.3651 28.0772 29.3886 28.1221 29.3887C28.167 29.3887 28.2087 29.3653 28.232 29.3268L28.1222 29.2602ZM30.3414 25.6002L30.4687 25.5835C30.4617 25.5294 30.4212 25.4857 30.3679 25.4745C30.3145 25.4632 30.2598 25.4869 30.2316 25.5336L30.3414 25.6002ZM31.0811 31.2637V31.3921C31.1181 31.3921 31.1532 31.3762 31.1776 31.3484C31.202 31.3206 31.2132 31.2837 31.2085 31.247L31.0811 31.2637ZM30.141 31.2637L30.0135 31.2783C30.0209 31.3432 30.0758 31.3921 30.141 31.3921V31.2637ZM29.7635 27.9811L29.8911 27.9665C29.8848 27.9116 29.8441 27.867 29.7902 27.8555C29.7362 27.8441 29.6809 27.8684 29.6529 27.9159L29.7635 27.9811ZM28.1222 30.7628L28.0116 30.8281C28.0347 30.8672 28.0768 30.8912 28.1222 30.8912C28.1677 30.8912 28.2097 30.8672 28.2328 30.8281L28.1222 30.7628ZM26.3533 27.9668L25.9835 31.2493L26.2387 31.2781L26.6086 27.9955L26.3533 27.9668ZM26.1111 31.1352H25.171V31.3921H26.1111V31.1352ZM25.2984 31.2803L26.0381 25.6168L25.7834 25.5835L25.0437 31.247L25.2984 31.2803ZM25.8008 25.6666L28.0123 29.3267L28.2321 29.1938L26.0207 25.5337L25.8008 25.6666ZM28.232 29.3268L30.4512 25.6667L30.2316 25.5336L28.0124 29.1937L28.232 29.3268ZM30.214 25.6168L30.9538 31.2803L31.2085 31.247L30.4687 25.5835L30.214 25.6168ZM31.0811 31.1352H30.141V31.3921H31.0811V31.1352ZM30.2686 31.249L29.8911 27.9665L29.6359 27.9958L30.0135 31.2783L30.2686 31.249ZM29.6529 27.9159L28.0116 30.6976L28.2328 30.8281L29.8741 28.0464L29.6529 27.9159ZM28.2328 30.6976L26.5916 27.9159L26.3703 28.0464L28.0116 30.8281L28.2328 30.6976ZM37.154 28.482H37.0256C37.0256 28.5529 37.0831 28.6104 37.154 28.6104V28.482ZM37.154 28.0351V27.9067C37.0831 27.9067 37.0256 27.9642 37.0256 28.0351H37.154ZM38.4717 27.9503L38.5234 28.0679L38.4717 27.9503ZM38.7722 27.7114L38.8774 27.7851L38.879 27.7827L38.7722 27.7114ZM38.6412 26.8022L38.7198 26.7007L38.6412 26.8022ZM37.3698 26.6173V26.4888C37.2989 26.4888 37.2414 26.5463 37.2414 26.6173H37.3698ZM37.3698 30.5162H37.2414C37.2414 30.5872 37.2989 30.6447 37.3698 30.6447V30.5162ZM38.672 30.4161L38.6223 30.2976L38.672 30.4161ZM39.0496 30.1156L39.1552 30.1887V30.1887L39.0496 30.1156ZM39.1035 29.2371L38.9864 29.2904L38.9897 29.2967L39.1035 29.2371ZM38.8801 28.9597L38.7977 29.0586L38.8039 29.0631L38.8801 28.9597ZM38.5487 28.7979L38.5141 28.9217L38.5187 28.9228L38.5487 28.7979ZM37.154 28.744H37.0256C37.0256 28.8149 37.0831 28.8724 37.154 28.8724V28.744ZM37.154 28.2431V28.1147C37.0831 28.1147 37.0256 28.1722 37.0256 28.2431H37.154ZM38.9186 28.3279L38.8881 28.4526V28.4526L38.9186 28.3279ZM39.535 28.5899L39.4645 28.6972L39.4659 28.6981L39.535 28.5899ZM39.9665 29.0445L40.0788 28.9821L39.9665 29.0445ZM39.8663 30.5856L39.7628 30.5096L39.7617 30.5112L39.8663 30.5856ZM39.1806 31.1019L39.2257 31.2221L39.2268 31.2217L39.1806 31.1019ZM36.4605 31.2637H36.3321C36.3321 31.3346 36.3896 31.3921 36.4605 31.3921V31.2637ZM36.4605 25.8698V25.7414C36.3896 25.7414 36.3321 25.7989 36.3321 25.8698H36.4605ZM38.9802 26.0162L38.9346 26.1363L38.9354 26.1366L38.9802 26.0162ZM39.589 26.4632L39.4846 26.5381L39.4859 26.5398L39.589 26.4632ZM39.589 27.9118L39.4879 27.8326L39.4876 27.8329L39.589 27.9118ZM38.9802 28.3356L38.9354 28.2152L38.9346 28.2155L38.9802 28.3356ZM37.2824 28.482V28.0351H37.0256V28.482H37.2824ZM37.154 28.1635H38.0247V27.9067H37.154V28.1635ZM38.0247 28.1635C38.2084 28.1635 38.3756 28.1329 38.5234 28.0679L38.4199 27.8328C38.3108 27.8808 38.1801 27.9067 38.0247 27.9067V28.1635ZM38.5234 28.0679C38.6707 28.0031 38.7904 27.9093 38.8774 27.7851L38.667 27.6378C38.6101 27.7191 38.5295 27.7846 38.4199 27.8328L38.5234 28.0679ZM38.879 27.7827C38.967 27.6507 39.0085 27.4966 39.0085 27.3262H38.7516C38.7516 27.4537 38.7212 27.5564 38.6653 27.6402L38.879 27.7827ZM39.0085 27.3262C39.0085 27.066 38.9146 26.8515 38.7198 26.7007L38.5626 26.9038C38.6863 26.9995 38.7516 27.1343 38.7516 27.3262H39.0085ZM38.7198 26.7007C38.5329 26.556 38.2977 26.4888 38.0247 26.4888V26.7457C38.2552 26.7457 38.4309 26.8019 38.5626 26.9038L38.7198 26.7007ZM38.0247 26.4888H37.3698V26.7457H38.0247V26.4888ZM37.2414 26.6173V30.5162H37.4982V26.6173H37.2414ZM37.3698 30.6447H38.1249V30.3878H37.3698V30.6447ZM38.1249 30.6447C38.3443 30.6447 38.544 30.609 38.7217 30.5345L38.6223 30.2976C38.4815 30.3567 38.3165 30.3878 38.1249 30.3878V30.6447ZM38.7217 30.5345C38.902 30.4589 39.0479 30.3436 39.1552 30.1887L38.944 30.0425C38.8663 30.1546 38.7605 30.2397 38.6223 30.2976L38.7217 30.5345ZM39.1552 30.1887C39.2657 30.0291 39.3167 29.835 39.3167 29.6147H39.0598C39.0598 29.7951 39.0184 29.9349 38.944 30.0425L39.1552 30.1887ZM39.3167 29.6147C39.3167 29.4539 39.285 29.3069 39.2173 29.1775L38.9897 29.2967C39.035 29.3832 39.0598 29.4879 39.0598 29.6147H39.3167ZM39.2204 29.184C39.1602 29.0515 39.0719 28.9416 38.9562 28.8563L38.8039 29.0631C38.8834 29.1217 38.9441 29.1967 38.9866 29.2903L39.2204 29.184ZM38.9623 28.8611C38.8532 28.7702 38.7244 28.708 38.5787 28.673L38.5187 28.9228C38.6299 28.9495 38.722 28.9952 38.7978 29.0584L38.9623 28.8611ZM38.5833 28.6743C38.4421 28.6347 38.289 28.6156 38.1249 28.6156V28.8724C38.2691 28.8724 38.3985 28.8892 38.5141 28.9216L38.5833 28.6743ZM38.1249 28.6156H37.154V28.8724H38.1249V28.6156ZM37.2824 28.744V28.2431H37.0256V28.744H37.2824ZM37.154 28.3716H38.1789V28.1147H37.154V28.3716ZM38.1789 28.3716C38.4316 28.3716 38.6678 28.3988 38.8881 28.4526L38.9491 28.2031C38.707 28.144 38.4501 28.1147 38.1789 28.1147V28.3716ZM38.8881 28.4526C39.1065 28.506 39.2982 28.5879 39.4645 28.6972L39.6055 28.4825C39.4123 28.3555 39.193 28.2628 38.9491 28.2031L38.8881 28.4526ZM39.4659 28.6981C39.6335 28.8052 39.7623 28.9413 39.8543 29.1069L40.0788 28.9821C39.9653 28.7779 39.8063 28.6108 39.6042 28.4817L39.4659 28.6981ZM39.8543 29.1069C39.9444 29.269 39.9922 29.4675 39.9922 29.7072H40.2491C40.2491 29.4331 40.1942 29.1898 40.0788 28.9821L39.8543 29.1069ZM39.9922 29.7072C39.9922 30.0409 39.9127 30.3053 39.7628 30.5096L39.9699 30.6615C40.1591 30.4036 40.2491 30.0824 40.2491 29.7072H39.9922ZM39.7617 30.5112C39.6134 30.7196 39.4062 30.8771 39.1343 30.982L39.2268 31.2217C39.5405 31.1006 39.7905 30.9139 39.971 30.66L39.7617 30.5112ZM39.1355 30.9816C38.8652 31.083 38.5471 31.1352 38.1789 31.1352V31.3921C38.5709 31.3921 38.9206 31.3365 39.2257 31.2221L39.1355 30.9816ZM38.1789 31.1352H36.4605V31.3921H38.1789V31.1352ZM36.589 31.2637V25.8698H36.3321V31.2637H36.589ZM36.4605 25.9983H38.0864V25.7414H36.4605V25.9983ZM38.0864 25.9983C38.4134 25.9983 38.6953 26.0454 38.9346 26.1363L39.0258 25.8962C38.7515 25.7919 38.4375 25.7414 38.0864 25.7414V25.9983ZM38.9354 26.1366C39.1768 26.2265 39.3576 26.3611 39.4846 26.5381L39.6933 26.3883C39.5326 26.1645 39.3076 26.0012 39.0251 25.8959L38.9354 26.1366ZM39.4859 26.5398C39.6149 26.7132 39.684 26.9388 39.684 27.226H39.9408C39.9408 26.8968 39.861 26.6138 39.692 26.3865L39.4859 26.5398ZM39.684 27.226C39.684 27.4676 39.6172 27.6675 39.4879 27.8326L39.69 27.991C39.8586 27.7759 39.9408 27.5186 39.9408 27.226H39.684ZM39.4876 27.8329C39.361 27.9957 39.1794 28.1243 38.9354 28.2152L39.0251 28.4559C39.305 28.3516 39.5292 28.1977 39.6903 27.9906L39.4876 27.8329ZM38.9346 28.2155C38.6953 28.3065 38.4134 28.3536 38.0864 28.3536V28.6104C38.4375 28.6104 38.7515 28.5599 39.0258 28.4556L38.9346 28.2155ZM38.0864 28.3536H37.154V28.6104H38.0864V28.3536ZM46.1382 31.2637H46.0097C46.0097 31.3346 46.0672 31.3921 46.1382 31.3921V31.2637ZM46.1382 30.4623V30.3339C46.0672 30.3339 46.0097 30.3914 46.0097 30.4623H46.1382ZM48.8582 30.4623H48.9866C48.9866 30.3914 48.9291 30.3339 48.8582 30.3339V30.4623ZM48.8582 31.2637V31.3921C48.9291 31.3921 48.9866 31.3346 48.9866 31.2637H48.8582ZM46.1382 26.6712H46.0097C46.0097 26.7421 46.0672 26.7996 46.1382 26.7996V26.6712ZM46.1382 25.8698V25.7414C46.0672 25.7414 46.0097 25.7989 46.0097 25.8698H46.1382ZM48.8582 25.8698H48.9866C48.9866 25.7989 48.9291 25.7414 48.8582 25.7414V25.8698ZM48.8582 26.6712V26.7996C48.9291 26.7996 48.9866 26.7421 48.9866 26.6712H48.8582ZM46.1382 28.7671H46.0097C46.0097 28.838 46.0672 28.8955 46.1382 28.8955V28.7671ZM46.1382 27.9811V27.8527C46.0672 27.8527 46.0097 27.9102 46.0097 27.9811H46.1382ZM48.7041 27.9811H48.8325C48.8325 27.9102 48.775 27.8527 48.7041 27.8527V27.9811ZM48.7041 28.7671V28.8955C48.775 28.8955 48.8325 28.838 48.8325 28.7671H48.7041ZM45.5757 25.8698V25.7414C45.5047 25.7414 45.4472 25.7989 45.4472 25.8698H45.5757ZM46.4695 25.8698H46.5979C46.5979 25.7989 46.5404 25.7414 46.4695 25.7414V25.8698ZM46.4695 31.2637V31.3921C46.5404 31.3921 46.5979 31.3346 46.5979 31.2637H46.4695ZM45.5757 31.2637H45.4472C45.4472 31.3346 45.5047 31.3921 45.5757 31.3921V31.2637ZM46.2666 31.2637V30.4623H46.0097V31.2637H46.2666ZM46.1382 30.5907H48.8582V30.3339H46.1382V30.5907ZM48.7298 30.4623V31.2637H48.9866V30.4623H48.7298ZM48.8582 31.1352H46.1382V31.3921H48.8582V31.1352ZM46.2666 26.6712V25.8698H46.0097V26.6712H46.2666ZM46.1382 25.9983H48.8582V25.7414H46.1382V25.9983ZM48.7298 25.8698V26.6712H48.9866V25.8698H48.7298ZM48.8582 26.5428H46.1382V26.7996H48.8582V26.5428ZM46.2666 28.7671V27.9811H46.0097V28.7671H46.2666ZM46.1382 28.1096H48.7041V27.8527H46.1382V28.1096ZM48.5757 27.9811V28.7671H48.8325V27.9811H48.5757ZM48.7041 28.6387H46.1382V28.8955H48.7041V28.6387ZM45.5757 25.9983H46.4695V25.7414H45.5757V25.9983ZM46.3411 25.8698V31.2637H46.5979V25.8698H46.3411ZM46.4695 31.1352H45.5757V31.3921H46.4695V31.1352ZM45.7041 31.2637V25.8698H45.4472V31.2637H45.7041ZM55.5822 28.69V28.5616C55.5348 28.5616 55.4912 28.5877 55.4689 28.6295C55.4466 28.6713 55.449 28.722 55.4754 28.7614L55.5822 28.69ZM56.5685 28.69L56.6732 28.6157C56.6491 28.5818 56.6101 28.5616 56.5685 28.5616V28.69ZM58.3947 31.2637V31.3921C58.4427 31.3921 58.4867 31.3653 58.5088 31.3226C58.5308 31.2799 58.5272 31.2285 58.4994 31.1894L58.3947 31.2637ZM57.3005 31.2637L57.1937 31.335C57.2175 31.3707 57.2576 31.3921 57.3005 31.3921V31.2637ZM54.4726 25.8698V25.7414C54.4016 25.7414 54.3441 25.7989 54.3441 25.8698H54.4726ZM55.3818 25.8698H55.5102C55.5102 25.7989 55.4527 25.7414 55.3818 25.7414V25.8698ZM55.3818 31.2637V31.3921C55.4527 31.3921 55.5102 31.3346 55.5102 31.2637H55.3818ZM54.4726 31.2637H54.3441C54.3441 31.3346 54.4016 31.3921 54.4726 31.3921V31.2637ZM55.012 26.6558H54.8835C54.8835 26.7267 54.941 26.7842 55.012 26.7842V26.6558ZM55.012 25.8698V25.7414C54.941 25.7414 54.8835 25.7989 54.8835 25.8698H55.012ZM57.1541 26.0779L57.0983 26.1936L57.0991 26.194L57.1541 26.0779ZM57.8322 26.6635L57.7236 26.7322L57.7243 26.7332L57.8322 26.6635ZM57.8322 28.4281L57.7236 28.3594L57.8322 28.4281ZM57.1541 29.0137L57.0991 28.8976L57.0983 28.898L57.1541 29.0137ZM55.012 29.2217H54.8835C54.8835 29.2926 54.941 29.3501 55.012 29.3501V29.2217ZM55.012 28.4743V28.3459C54.941 28.3459 54.8835 28.4034 54.8835 28.4743H55.012ZM56.6378 28.3664L56.5849 28.2494L56.5835 28.25L56.6378 28.3664ZM57.0077 28.0582L57.1152 28.1285L57.1163 28.1266L57.0077 28.0582ZM57.0077 27.0719L56.9002 27.1422V27.1422L57.0077 27.0719ZM56.6378 26.7637L56.5835 26.8801L56.5849 26.8807L56.6378 26.7637ZM55.5822 28.8185H56.5685V28.5616H55.5822V28.8185ZM56.4637 28.7644L58.2899 31.338L58.4994 31.1894L56.6732 28.6157L56.4637 28.7644ZM58.3947 31.1352H57.3005V31.3921H58.3947V31.1352ZM57.4073 31.1924L55.689 28.6187L55.4754 28.7614L57.1937 31.335L57.4073 31.1924ZM54.4726 25.9983H55.3818V25.7414H54.4726V25.9983ZM55.2534 25.8698V31.2637H55.5102V25.8698H55.2534ZM55.3818 31.1352H54.4726V31.3921H55.3818V31.1352ZM54.601 31.2637V25.8698H54.3441V31.2637H54.601ZM55.1404 26.6558V25.8698H54.8835V26.6558H55.1404ZM55.012 25.9983H56.137V25.7414H55.012V25.9983ZM56.137 25.9983C56.5123 25.9983 56.8315 26.0649 57.0983 26.1936L57.2099 25.9622C56.9013 25.8135 56.5425 25.7414 56.137 25.7414V25.9983ZM57.0991 26.194C57.3719 26.3232 57.5785 26.5028 57.7236 26.7322L57.9407 26.5948C57.7673 26.3208 57.5218 26.11 57.2091 25.9618L57.0991 26.194ZM57.7243 26.7332C57.8681 26.9559 57.9426 27.2237 57.9426 27.5419H58.1995C58.1995 27.1821 58.1147 26.8642 57.94 26.5938L57.7243 26.7332ZM57.9426 27.5419C57.9426 27.8601 57.8681 28.131 57.7236 28.3594L57.9407 28.4967C58.1147 28.2217 58.1995 27.9018 58.1995 27.5419H57.9426ZM57.7236 28.3594C57.5785 28.5888 57.3719 28.7684 57.0991 28.8976L57.209 29.1297C57.5218 28.9816 57.7673 28.7708 57.9407 28.4967L57.7236 28.3594ZM57.0983 28.898C56.8315 29.0266 56.5123 29.0933 56.137 29.0933V29.3501C56.5425 29.3501 56.9013 29.2781 57.2099 29.1294L57.0983 28.898ZM56.137 29.0933H55.012V29.3501H56.137V29.0933ZM55.1404 29.2217V28.4743H54.8835V29.2217H55.1404ZM55.012 28.6027H56.0984V28.3459H55.012V28.6027ZM56.0984 28.6027C56.3188 28.6027 56.5178 28.5641 56.6921 28.4828L56.5835 28.25C56.4496 28.3125 56.289 28.3459 56.0984 28.3459V28.6027ZM56.6907 28.4835C56.87 28.4025 57.0132 28.2844 57.1152 28.1285L56.9002 27.9879C56.8275 28.0991 56.7241 28.1865 56.5849 28.2494L56.6907 28.4835ZM57.1163 28.1266C57.2185 27.9643 57.2671 27.7754 57.2671 27.565H57.0102C57.0102 27.7348 56.9715 27.8747 56.899 27.9898L57.1163 28.1266ZM57.2671 27.565C57.2671 27.3505 57.2189 27.1603 57.1152 27.0016L56.9002 27.1422C56.9711 27.2506 57.0102 27.3892 57.0102 27.565H57.2671ZM57.1152 27.0016C57.0132 26.8457 56.87 26.7276 56.6907 26.6466L56.5849 26.8807C56.7241 26.9436 56.8275 27.031 56.9002 27.1422L57.1152 27.0016ZM56.6921 26.6473C56.5178 26.566 56.3188 26.5274 56.0984 26.5274V26.7842C56.289 26.7842 56.4496 26.8175 56.5835 26.8801L56.6921 26.6473ZM56.0984 26.5274H55.012V26.7842H56.0984V26.5274ZM63.9045 29.5299L64.0159 29.4659C63.9979 29.4348 63.9678 29.4125 63.9327 29.4047C63.8977 29.3968 63.8609 29.4039 63.8314 29.4244L63.9045 29.5299ZM64.2821 30.077L64.1836 30.1596L64.1866 30.1629L64.2821 30.077ZM64.7367 30.4392L64.6764 30.5526L64.6793 30.5541L64.7367 30.4392ZM65.9773 29.3681L65.8766 29.4479L65.8783 29.4499L65.9773 29.3681ZM65.5689 29.0599L65.5101 29.1741L65.5142 29.1761L65.5689 29.0599ZM64.9756 28.8056L65.0195 28.6849L65.0176 28.6843L64.9756 28.8056ZM64.5287 28.6207L64.4712 28.7356L64.4742 28.737L64.5287 28.6207ZM64.0586 28.3202L63.9767 28.4191L63.9788 28.4208L64.0586 28.3202ZM63.6888 27.8733L63.5759 27.9345L63.5767 27.9359L63.6888 27.8733ZM63.7658 26.4709L63.8715 26.5438L63.8723 26.5427L63.7658 26.4709ZM64.3669 25.9623L64.4214 26.0786L64.4224 26.0781L64.3669 25.9623ZM66.0698 25.9469L66.1252 25.831L66.0698 25.9469ZM66.6631 26.3784L66.5682 26.4649L66.5696 26.4664L66.6631 26.3784ZM67.0484 26.9255L67.1113 27.0374C67.1705 27.0041 67.1936 26.9304 67.1638 26.8693L67.0484 26.9255ZM66.3086 27.3416L66.1938 27.399C66.2095 27.4305 66.2374 27.4541 66.271 27.4644C66.3046 27.4747 66.341 27.4707 66.3716 27.4535L66.3086 27.3416ZM66.0544 26.9717L65.9574 27.056L65.9593 27.0581L66.0544 26.9717ZM65.6922 26.6943L65.6312 26.8075L65.6365 26.81L65.6922 26.6943ZM64.6674 26.7637L64.7562 26.8565L64.7582 26.8545L64.6674 26.7637ZM64.6134 27.5419L64.5094 27.6176L64.5136 27.6227L64.6134 27.5419ZM65.7153 28.1507L65.6721 28.2716L65.6724 28.2717L65.7153 28.1507ZM66.1931 28.3664L66.1313 28.479L66.1328 28.4798L66.1931 28.3664ZM66.64 28.6978L66.5491 28.7886L66.551 28.7903L66.64 28.6978ZM66.9559 29.1524L66.8384 29.2042L66.8397 29.2071L66.9559 29.1524ZM66.9328 30.4469L67.0482 30.5031L66.9328 30.4469ZM66.5321 30.9555L66.6116 31.0563L66.6134 31.0548L66.5321 30.9555ZM65.9542 31.2637L65.9136 31.1418L65.9101 31.1431L65.9542 31.2637ZM64.4054 31.1943L64.3497 31.3101L64.3524 31.3113L64.4054 31.1943ZM63.7042 30.6858L63.6111 30.7743L63.7042 30.6858ZM63.2264 30L63.1533 29.8944C63.1015 29.9304 63.0834 29.9986 63.1106 30.0555L63.2264 30ZM63.7932 29.594C63.9146 29.8051 64.0447 29.9938 64.1837 30.1596L64.3805 29.9945C64.2524 29.8418 64.1308 29.6658 64.0159 29.4659L63.7932 29.594ZM64.1866 30.1629C64.3342 30.3269 64.4974 30.4575 64.6765 30.5526L64.797 30.3258C64.6473 30.2462 64.5073 30.1353 64.3776 29.9911L64.1866 30.1629ZM64.6793 30.5541C64.8635 30.6462 65.0685 30.6909 65.2915 30.6909V30.434C65.1036 30.434 64.9387 30.3966 64.7942 30.3243L64.6793 30.5541ZM65.2915 30.6909C65.5622 30.6909 65.7945 30.617 65.9766 30.4592L65.8084 30.2651C65.6823 30.3744 65.5139 30.434 65.2915 30.434V30.6909ZM65.9766 30.4592C66.1599 30.3003 66.2521 30.0923 66.2521 29.8459H65.9953C65.9953 30.0206 65.9334 30.1568 65.8084 30.2651L65.9766 30.4592ZM66.2521 29.8459C66.2521 29.625 66.1981 29.4338 66.0763 29.2863L65.8783 29.4499C65.9517 29.5388 65.9953 29.6661 65.9953 29.8459H66.2521ZM66.078 29.2884C65.9656 29.1464 65.8122 29.0325 65.6236 28.9437L65.5142 29.1761C65.6749 29.2517 65.7938 29.3432 65.8766 29.4478L66.078 29.2884ZM65.6277 28.9457C65.4523 28.8554 65.2494 28.7685 65.0195 28.6849L64.9317 28.9263C65.1539 29.0071 65.3465 29.0898 65.5101 29.1741L65.6277 28.9457ZM65.0176 28.6843C64.8893 28.6399 64.7446 28.5801 64.5832 28.5044L64.4742 28.737C64.6415 28.8154 64.7948 28.8789 64.9336 28.927L65.0176 28.6843ZM64.5861 28.5058C64.4299 28.4277 64.2807 28.3324 64.1384 28.2196L63.9788 28.4208C64.1345 28.5443 64.2987 28.6493 64.4712 28.7356L64.5861 28.5058ZM64.1405 28.2212C64.0042 28.1084 63.891 27.9719 63.8009 27.8106L63.5767 27.9359C63.6817 28.1239 63.8151 28.2854 63.9768 28.4191L64.1405 28.2212ZM63.8016 27.812C63.7163 27.6549 63.6708 27.4612 63.6708 27.226H63.4139C63.4139 27.4942 63.466 27.7321 63.5759 27.9345L63.8016 27.812ZM63.6708 27.226C63.6708 26.9618 63.7388 26.7361 63.8715 26.5438L63.6601 26.3979C63.4949 26.6372 63.4139 26.9149 63.4139 27.226H63.6708ZM63.8723 26.5427C64.0077 26.3419 64.1898 26.1873 64.4214 26.0786L64.3123 25.8461C64.0405 25.9736 63.8219 26.1581 63.6594 26.3991L63.8723 26.5427ZM64.4224 26.0781C64.6597 25.9642 64.9306 25.9058 65.2376 25.9058V25.649C64.8973 25.649 64.5877 25.7139 64.3113 25.8465L64.4224 26.0781ZM65.2376 25.9058C65.541 25.9058 65.7987 25.9596 66.0144 26.0628L66.1252 25.831C65.8682 25.7082 65.5712 25.649 65.2376 25.649V25.9058ZM66.0144 26.0628C66.2373 26.1694 66.4212 26.3038 66.5682 26.4649L66.758 26.2919C66.5864 26.1037 66.3748 25.9504 66.1252 25.831L66.0144 26.0628ZM66.5696 26.4664C66.7262 26.6329 66.8468 26.8047 66.9329 26.9817L67.1638 26.8693C67.065 26.6661 66.9287 26.4732 66.7566 26.2904L66.5696 26.4664ZM66.9854 26.8136L66.2457 27.2297L66.3716 27.4535L67.1113 27.0374L66.9854 26.8136ZM66.4235 27.2842C66.3513 27.1398 66.2598 27.0068 66.1494 26.8853L65.9593 27.0581C66.0543 27.1626 66.1324 27.2762 66.1938 27.399L66.4235 27.2842ZM66.1513 26.8875C66.0373 26.7564 65.9026 26.6531 65.7479 26.5786L65.6365 26.81C65.7592 26.8691 65.866 26.9508 65.9574 27.056L66.1513 26.8875ZM65.7531 26.5813C65.5976 26.4975 65.4193 26.458 65.2222 26.458V26.7149C65.3846 26.7149 65.5196 26.7473 65.6313 26.8074L65.7531 26.5813ZM65.2222 26.458C64.9534 26.458 64.7286 26.5208 64.5766 26.6729L64.7582 26.8545C64.8424 26.7702 64.9875 26.7149 65.2222 26.7149V26.458ZM64.5786 26.6709C64.4368 26.8065 64.3617 26.9729 64.3617 27.1644H64.6186C64.6186 27.0476 64.6616 26.9469 64.7561 26.8565L64.5786 26.6709ZM64.3617 27.1644C64.3617 27.3304 64.4115 27.4827 64.5096 27.6175L64.7173 27.4664C64.6509 27.3752 64.6186 27.2757 64.6186 27.1644H64.3617ZM64.5136 27.6227C64.6153 27.7484 64.7646 27.8608 64.9528 27.963L65.0754 27.7373C64.904 27.6443 64.7862 27.5512 64.7132 27.4611L64.5136 27.6227ZM64.9528 27.963C65.1405 28.0649 65.3809 28.1676 65.6721 28.2716L65.7585 28.0297C65.4743 27.9282 65.2473 27.8306 65.0754 27.7373L64.9528 27.963ZM65.6724 28.2717C65.8247 28.3257 65.9776 28.3948 66.1313 28.479L66.2548 28.2538C66.09 28.1634 65.9244 28.0886 65.7583 28.0296L65.6724 28.2717ZM66.1328 28.4798C66.2858 28.5611 66.4245 28.6639 66.5492 28.7886L66.7308 28.6069C66.5883 28.4645 66.4291 28.3464 66.2533 28.253L66.1328 28.4798ZM66.551 28.7903C66.6721 28.9068 66.7679 29.0444 66.8384 29.2042L67.0734 29.1005C66.9898 28.911 66.875 28.7455 66.729 28.6052L66.551 28.7903ZM66.8397 29.2071C66.9122 29.3612 66.9508 29.5473 66.9508 29.7688H67.2076C67.2076 29.5178 67.1639 29.2928 67.0721 29.0977L66.8397 29.2071ZM66.9508 29.7688C66.9508 30.0036 66.9053 30.21 66.8173 30.3906L67.0482 30.5031C67.1554 30.2831 67.2076 30.0375 67.2076 29.7688H66.9508ZM66.8173 30.3906C66.7277 30.5746 66.6057 30.7293 66.4508 30.8561L66.6134 31.0548C66.7976 30.9042 66.9426 30.7199 67.0482 30.5031L66.8173 30.3906ZM66.4526 30.8546C66.2954 30.9785 66.116 31.0744 65.9136 31.1418L65.9948 31.3855C66.2239 31.3092 66.4298 31.1996 66.6116 31.0563L66.4526 30.8546ZM65.9101 31.1431C65.714 31.2148 65.5081 31.2508 65.2915 31.2508V31.5077C65.5373 31.5077 65.7731 31.4667 65.9983 31.3843L65.9101 31.1431ZM65.2915 31.2508C64.9901 31.2508 64.7129 31.1926 64.4584 31.0773L64.3524 31.3113C64.6424 31.4426 64.956 31.5077 65.2915 31.5077V31.2508ZM64.461 31.0786C64.2076 30.9568 63.9866 30.7964 63.7972 30.5972L63.6111 30.7743C63.8224 30.9964 64.0689 31.175 64.3497 31.3101L64.461 31.0786ZM63.7972 30.5972C63.6056 30.3958 63.4542 30.1782 63.3423 29.9445L63.1106 30.0555C63.2349 30.3149 63.4021 30.5545 63.6111 30.7743L63.7972 30.5972ZM63.2996 30.1055L63.9777 29.6355L63.8314 29.4244L63.1533 29.8944L63.2996 30.1055ZM72.8693 28.7902H72.7409C72.7409 28.8611 72.7984 28.9186 72.8693 28.9186V28.7902ZM72.8693 27.9503V27.8219C72.7984 27.8219 72.7409 27.8794 72.7409 27.9503H72.8693ZM76.7144 27.9503H76.8428C76.8428 27.8794 76.7853 27.8219 76.7144 27.8219V27.9503ZM76.7144 28.7902V28.9186C76.7853 28.9186 76.8428 28.8611 76.8428 28.7902H76.7144ZM76.1287 25.8698V25.7414C76.0578 25.7414 76.0003 25.7989 76.0003 25.8698H76.1287ZM77.038 25.8698H77.1664C77.1664 25.7989 77.1089 25.7414 77.038 25.7414V25.8698ZM77.038 31.2637V31.3921C77.1089 31.3921 77.1664 31.3346 77.1664 31.2637H77.038ZM76.1287 31.2637H76.0003C76.0003 31.3346 76.0578 31.3921 76.1287 31.3921V31.2637ZM72.5072 25.8698V25.7414C72.4362 25.7414 72.3788 25.7989 72.3788 25.8698H72.5072ZM73.4164 25.8698H73.5448C73.5448 25.7989 73.4874 25.7414 73.4164 25.7414V25.8698ZM73.4164 31.2637V31.3921C73.4874 31.3921 73.5448 31.3346 73.5448 31.2637H73.4164ZM72.5072 31.2637H72.3788C72.3788 31.3346 72.4362 31.3921 72.5072 31.3921V31.2637ZM72.9978 28.7902V27.9503H72.7409V28.7902H72.9978ZM72.8693 28.0787H76.7144V27.8219H72.8693V28.0787ZM76.5859 27.9503V28.7902H76.8428V27.9503H76.5859ZM76.7144 28.6618H72.8693V28.9186H76.7144V28.6618ZM76.1287 25.9983H77.038V25.7414H76.1287V25.9983ZM76.9096 25.8698V31.2637H77.1664V25.8698H76.9096ZM77.038 31.1352H76.1287V31.3921H77.038V31.1352ZM76.2572 31.2637V25.8698H76.0003V31.2637H76.2572ZM72.5072 25.9983H73.4164V25.7414H72.5072V25.9983ZM73.288 25.8698V31.2637H73.5448V25.8698H73.288ZM73.4164 31.1352H72.5072V31.3921H73.4164V31.1352ZM72.6356 31.2637V25.8698H72.3788V31.2637H72.6356ZM82.736 25.8698V25.7414C82.6651 25.7414 82.6076 25.7989 82.6076 25.8698H82.736ZM83.6529 25.8698H83.7814C83.7814 25.7989 83.7239 25.7414 83.6529 25.7414V25.8698ZM83.6529 31.2637V31.3921C83.7239 31.3921 83.7814 31.3346 83.7814 31.2637H83.6529ZM82.736 31.2637H82.6076C82.6076 31.3346 82.6651 31.3921 82.736 31.3921V31.2637ZM82.736 25.9983H83.6529V25.7414H82.736V25.9983ZM83.5245 25.8698V31.2637H83.7814V25.8698H83.5245ZM83.6529 31.1352H82.736V31.3921H83.6529V31.1352ZM82.8644 31.2637V25.8698H82.6076V31.2637H82.8644ZM89.3529 25.8698V25.7414C89.2819 25.7414 89.2244 25.7989 89.2244 25.8698H89.3529ZM90.2621 25.8698H90.3905C90.3905 25.7989 90.333 25.7414 90.2621 25.7414V25.8698ZM90.2621 31.2637V31.3921C90.333 31.3921 90.3905 31.3346 90.3905 31.2637H90.2621ZM89.3529 31.2637H89.2244C89.2244 31.3346 89.2819 31.3921 89.3529 31.3921V31.2637ZM89.8923 26.6712H89.7638C89.7638 26.7421 89.8213 26.7996 89.8923 26.7996V26.6712ZM89.8923 25.8698V25.7414C89.8213 25.7414 89.7638 25.7989 89.7638 25.8698H89.8923ZM91.9958 26.0779L91.9401 26.1936L91.9425 26.1947L91.9958 26.0779ZM92.6739 26.6558L92.5654 26.7245L92.566 26.7255L92.6739 26.6558ZM92.6739 28.4358L92.5654 28.3671L92.6739 28.4358ZM91.9958 29.0214L92.0499 29.1379L92.0508 29.1374L91.9958 29.0214ZM89.8923 29.2217H89.7638C89.7638 29.2926 89.8213 29.3501 89.8923 29.3501V29.2217ZM89.8923 28.4204V28.2919C89.8213 28.2919 89.7638 28.3494 89.7638 28.4204H89.8923ZM91.7339 28.1969L91.6546 28.0958L91.7339 28.1969ZM91.7339 26.8947L91.6546 26.9958L91.6564 26.9971L91.7339 26.8947ZM89.3529 25.9983H90.2621V25.7414H89.3529V25.9983ZM90.1337 25.8698V31.2637H90.3905V25.8698H90.1337ZM90.2621 31.1352H89.3529V31.3921H90.2621V31.1352ZM89.4813 31.2637V25.8698H89.2244V31.2637H89.4813ZM90.0207 26.6712V25.8698H89.7638V26.6712H90.0207ZM89.8923 25.9983H90.9787V25.7414H89.8923V25.9983ZM90.9787 25.9983C91.354 25.9983 91.6732 26.0649 91.9401 26.1936L92.0516 25.9622C91.7431 25.8135 91.3842 25.7414 90.9787 25.7414V25.9983ZM91.9425 26.1947C92.2146 26.3188 92.4206 26.4955 92.5654 26.7245L92.7825 26.5871C92.6088 26.3126 92.3627 26.1041 92.0491 25.961L91.9425 26.1947ZM92.566 26.7255C92.7097 26.9479 92.7844 27.2181 92.7844 27.5419H93.0412C93.0412 27.1774 92.9566 26.8568 92.7818 26.5861L92.566 26.7255ZM92.7844 27.5419C92.7844 27.8657 92.7097 28.139 92.5654 28.3671L92.7825 28.5044C92.9566 28.2291 93.0412 27.9066 93.0412 27.5419H92.7844ZM92.5654 28.3671C92.4203 28.5965 92.2137 28.7761 91.9409 28.9053L92.0508 29.1374C92.3636 28.9893 92.6091 28.7785 92.7825 28.5044L92.5654 28.3671ZM91.9418 28.9049C91.6745 29.029 91.3547 29.0933 90.9787 29.0933V29.3501C91.3836 29.3501 91.7419 29.2809 92.0499 29.1379L91.9418 28.9049ZM90.9787 29.0933H89.8923V29.3501H90.9787V29.0933ZM90.0207 29.2217V28.4204H89.7638V29.2217H90.0207ZM89.8923 28.5488H90.9787V28.2919H89.8923V28.5488ZM90.9787 28.5488C91.3122 28.5488 91.5945 28.4693 91.8131 28.298L91.6546 28.0958C91.4931 28.2224 91.272 28.2919 90.9787 28.2919V28.5488ZM91.8131 28.298C92.0403 28.1199 92.1474 27.8606 92.1474 27.5419H91.8905C91.8905 27.7986 91.8076 27.976 91.6546 28.0958L91.8131 28.298ZM92.1474 27.5419C92.1474 27.2234 92.0403 26.9655 91.8114 26.7923L91.6564 26.9971C91.8076 27.1115 91.8905 27.2852 91.8905 27.5419H92.1474ZM91.8131 26.7936C91.5944 26.6222 91.3122 26.5428 90.9787 26.5428V26.7996C91.272 26.7996 91.4931 26.8692 91.6546 26.9957L91.8131 26.7936ZM90.9787 26.5428H89.8923V26.7996H90.9787V26.5428Z" fill="url(#paint3_linear_59458_58072)" mask="url(#path-3-outside-2_59458_58072)"/>
        <path d="M5 21.6162L93.6129 21.6162" stroke="url(#paint4_linear_59458_58072)" stroke-width="0.256849" stroke-linecap="round"/>
        <path d="M5 34.4587L93.6129 34.4587" stroke="url(#paint5_linear_59458_58072)" stroke-width="0.256849" stroke-linecap="round"/>
        </g>
        <defs>
        <filter id="filter0_dd_59458_58072" x="0.871582" y="-3" width="96.8696" height="47.8115" filterUnits="userSpaceOnUse" color-interpolation-filters="sRGB">
        <feFlood flood-opacity="0" result="BackgroundImageFix"/>
        <feColorMatrix in="SourceAlpha" type="matrix" values="0 0 0 0 0 0 0 0 0 0 0 0 0 0 0 0 0 0 127 0" result="hardAlpha"/>
        <feMorphology radius="1" operator="dilate" in="SourceAlpha" result="effect1_dropShadow_59458_58072"/>
        <feOffset dy="1"/>
        <feGaussianBlur stdDeviation="1.5"/>
        <feColorMatrix type="matrix" values="0 0 0 0 0 0 0 0 0 0 0 0 0 0 0 0 0 0 0.15 0"/>
        <feBlend mode="normal" in2="BackgroundImageFix" result="effect1_dropShadow_59458_58072"/>
        <feColorMatrix in="SourceAlpha" type="matrix" values="0 0 0 0 0 0 0 0 0 0 0 0 0 0 0 0 0 0 127 0" result="hardAlpha"/>
        <feOffset dy="1"/>
        <feGaussianBlur stdDeviation="1"/>
        <feColorMatrix type="matrix" values="0 0 0 0 0 0 0 0 0 0 0 0 0 0 0 0 0 0 0.3 0"/>
        <feBlend mode="normal" in2="effect1_dropShadow_59458_58072" result="effect2_dropShadow_59458_58072"/>
        <feBlend mode="normal" in="SourceGraphic" in2="effect2_dropShadow_59458_58072" result="shape"/>
        </filter>
        <linearGradient id="paint0_linear_59458_58072" x1="7.67" y1="13.8125" x2="93.1082" y2="12.8376" gradientUnits="userSpaceOnUse">
        <stop stop-color="#B57F12"/>
        <stop offset="0.347487" stop-color="#E2BF59"/>
        <stop offset="0.751919" stop-color="#FEF2A0"/>
        <stop offset="1" stop-color="#CA9A2E"/>
        </linearGradient>
        <linearGradient id="paint1_linear_59458_58072" x1="5" y1="5.89062" x2="93.0022" y2="16.0753" gradientUnits="userSpaceOnUse">
        <stop stop-color="#E9DB9A"/>
        <stop offset="0.4375" stop-color="#846E22"/>
        <stop offset="1" stop-color="#FFE993"/>
        </linearGradient>
        <linearGradient id="paint2_linear_59458_58072" x1="7.67" y1="29.4199" x2="93.1022" y2="28.213" gradientUnits="userSpaceOnUse">
        <stop stop-color="#B57F12"/>
        <stop offset="0.347487" stop-color="#E2BF59"/>
        <stop offset="0.751919" stop-color="#FEF2A0"/>
        <stop offset="1" stop-color="#CA9A2E"/>
        </linearGradient>
        <linearGradient id="paint3_linear_59458_58072" x1="5" y1="23.0215" x2="92.3867" y2="35.5429" gradientUnits="userSpaceOnUse">
        <stop stop-color="#E9DB9A"/>
        <stop offset="0.4375" stop-color="#846E22"/>
        <stop offset="1" stop-color="#FFE993"/>
        </linearGradient>
        <linearGradient id="paint4_linear_59458_58072" x1="7.65839" y1="22.1475" x2="85.9088" y2="-0.965963" gradientUnits="userSpaceOnUse">
        <stop stop-color="#B57F12"/>
        <stop offset="0.347487" stop-color="#E2BF59"/>
        <stop offset="0.751919" stop-color="#FEF2A0"/>
        <stop offset="1" stop-color="#CA9A2E"/>
        </linearGradient>
        <linearGradient id="paint5_linear_59458_58072" x1="7.65839" y1="34.99" x2="85.9088" y2="11.8766" gradientUnits="userSpaceOnUse">
        <stop stop-color="#B57F12"/>
        <stop offset="0.347487" stop-color="#E2BF59"/>
        <stop offset="0.751919" stop-color="#FEF2A0"/>
        <stop offset="1" stop-color="#CA9A2E"/>
        </linearGradient>
        </defs>
        </svg>