<svg width="72" height="36" viewBox="0 0 72 36" fill="none" xmlns="http://www.w3.org/2000/svg">
<g filter="url(#filter0_dd_64525_24092)">
<mask id="path-1-outside-1_64525_24092" maskUnits="userSpaceOnUse" x="10" y="7" width="51" height="11" fill="black">
<rect fill="white" x="10" y="7" width="51" height="11"/>
<path d="M10.6594 9.46942V7.76812H17.6625L13.1388 15.3514H17.2536V17H10.1451L14.6159 9.46942H10.6594ZM19.9013 12.3841C19.9013 12.9731 20.0244 13.4963 20.2705 13.9535C20.5167 14.4107 20.8552 14.7712 21.2861 15.0349C21.7169 15.2987 22.218 15.4306 22.7895 15.4306C23.361 15.4306 23.8622 15.2987 24.293 15.0349C24.7238 14.7712 25.0579 14.4107 25.2953 13.9535C25.5415 13.4963 25.6646 12.9731 25.6646 12.3841C25.6646 11.795 25.5459 11.2718 25.3085 10.8146C25.0711 10.3574 24.737 9.99696 24.3062 9.73319C23.8754 9.46942 23.3698 9.33754 22.7895 9.33754C22.218 9.33754 21.7169 9.46942 21.2861 9.73319C20.8552 9.99696 20.5167 10.3574 20.2705 10.8146C20.0244 11.2718 19.9013 11.795 19.9013 12.3841ZM17.9098 12.3841C17.9098 11.6807 18.0329 11.0388 18.2791 10.4586C18.5253 9.86947 18.8682 9.35952 19.3078 8.9287C19.7474 8.49787 20.2618 8.16816 20.8508 7.93957C21.4487 7.70217 22.0949 7.58348 22.7895 7.58348C23.4929 7.58348 24.1391 7.70217 24.7282 7.93957C25.3173 8.16816 25.8317 8.49787 26.2713 8.9287C26.7197 9.35952 27.0626 9.86947 27.3 10.4586C27.5461 11.0388 27.6692 11.6807 27.6692 12.3841C27.6692 13.0786 27.5461 13.7249 27.3 14.3228C27.0626 14.9118 26.7241 15.4262 26.2845 15.8658C25.8536 16.3054 25.3393 16.6483 24.7414 16.8945C24.1523 17.1319 23.5017 17.2506 22.7895 17.2506C22.0774 17.2506 21.4223 17.1319 20.8245 16.8945C20.2354 16.6483 19.721 16.3054 19.2814 15.8658C18.8418 15.4262 18.5033 14.9118 18.2659 14.3228C18.0285 13.7249 17.9098 13.0786 17.9098 12.3841ZM30.8266 12.3841C30.8266 12.9731 30.9497 13.4963 31.1959 13.9535C31.4421 14.4107 31.7806 14.7712 32.2114 15.0349C32.6422 15.2987 33.1434 15.4306 33.7149 15.4306C34.2864 15.4306 34.7875 15.2987 35.2183 15.0349C35.6492 14.7712 35.9833 14.4107 36.2207 13.9535C36.4668 13.4963 36.5899 12.9731 36.5899 12.3841C36.5899 11.795 36.4712 11.2718 36.2338 10.8146C35.9965 10.3574 35.6623 9.99696 35.2315 9.73319C34.8007 9.46942 34.2951 9.33754 33.7149 9.33754C33.1434 9.33754 32.6422 9.46942 32.2114 9.73319C31.7806 9.99696 31.4421 10.3574 31.1959 10.8146C30.9497 11.2718 30.8266 11.795 30.8266 12.3841ZM28.8351 12.3841C28.8351 11.6807 28.9582 11.0388 29.2044 10.4586C29.4506 9.86947 29.7935 9.35952 30.2331 8.9287C30.6727 8.49787 31.1871 8.16816 31.7762 7.93957C32.374 7.70217 33.0203 7.58348 33.7149 7.58348C34.4182 7.58348 35.0645 7.70217 35.6536 7.93957C36.2426 8.16816 36.757 8.49787 37.1966 8.9287C37.645 9.35952 37.9879 9.86947 38.2253 10.4586C38.4715 11.0388 38.5946 11.6807 38.5946 12.3841C38.5946 13.0786 38.4715 13.7249 38.2253 14.3228C37.9879 14.9118 37.6494 15.4262 37.2098 15.8658C36.779 16.3054 36.2646 16.6483 35.6667 16.8945C35.0777 17.1319 34.427 17.2506 33.7149 17.2506C33.0027 17.2506 32.3477 17.1319 31.7498 16.8945C31.1607 16.6483 30.6464 16.3054 30.2067 15.8658C29.7671 15.4262 29.4286 14.9118 29.1912 14.3228C28.9538 13.7249 28.8351 13.0786 28.8351 12.3841ZM39.5459 9.46942V7.76812H46.5489L42.0253 15.3514H46.1401V17H39.0315L43.5024 9.46942H39.5459ZM47.9806 7.76812H49.8666V15.3514H53.5461V17H47.9806V7.76812ZM56.0752 17V15.4042H60.7307V17H56.0752ZM56.0752 9.36391V7.76812H60.7307V9.36391H56.0752ZM56.0752 12.8852V11.3158H60.4669V12.8852H56.0752ZM54.8619 7.76812H56.6819V17H54.8619V7.76812Z"/>
</mask>
<path d="M10.6594 9.46942V7.76812H17.6625L13.1388 15.3514H17.2536V17H10.1451L14.6159 9.46942H10.6594ZM19.9013 12.3841C19.9013 12.9731 20.0244 13.4963 20.2705 13.9535C20.5167 14.4107 20.8552 14.7712 21.2861 15.0349C21.7169 15.2987 22.218 15.4306 22.7895 15.4306C23.361 15.4306 23.8622 15.2987 24.293 15.0349C24.7238 14.7712 25.0579 14.4107 25.2953 13.9535C25.5415 13.4963 25.6646 12.9731 25.6646 12.3841C25.6646 11.795 25.5459 11.2718 25.3085 10.8146C25.0711 10.3574 24.737 9.99696 24.3062 9.73319C23.8754 9.46942 23.3698 9.33754 22.7895 9.33754C22.218 9.33754 21.7169 9.46942 21.2861 9.73319C20.8552 9.99696 20.5167 10.3574 20.2705 10.8146C20.0244 11.2718 19.9013 11.795 19.9013 12.3841ZM17.9098 12.3841C17.9098 11.6807 18.0329 11.0388 18.2791 10.4586C18.5253 9.86947 18.8682 9.35952 19.3078 8.9287C19.7474 8.49787 20.2618 8.16816 20.8508 7.93957C21.4487 7.70217 22.0949 7.58348 22.7895 7.58348C23.4929 7.58348 24.1391 7.70217 24.7282 7.93957C25.3173 8.16816 25.8317 8.49787 26.2713 8.9287C26.7197 9.35952 27.0626 9.86947 27.3 10.4586C27.5461 11.0388 27.6692 11.6807 27.6692 12.3841C27.6692 13.0786 27.5461 13.7249 27.3 14.3228C27.0626 14.9118 26.7241 15.4262 26.2845 15.8658C25.8536 16.3054 25.3393 16.6483 24.7414 16.8945C24.1523 17.1319 23.5017 17.2506 22.7895 17.2506C22.0774 17.2506 21.4223 17.1319 20.8245 16.8945C20.2354 16.6483 19.721 16.3054 19.2814 15.8658C18.8418 15.4262 18.5033 14.9118 18.2659 14.3228C18.0285 13.7249 17.9098 13.0786 17.9098 12.3841ZM30.8266 12.3841C30.8266 12.9731 30.9497 13.4963 31.1959 13.9535C31.4421 14.4107 31.7806 14.7712 32.2114 15.0349C32.6422 15.2987 33.1434 15.4306 33.7149 15.4306C34.2864 15.4306 34.7875 15.2987 35.2183 15.0349C35.6492 14.7712 35.9833 14.4107 36.2207 13.9535C36.4668 13.4963 36.5899 12.9731 36.5899 12.3841C36.5899 11.795 36.4712 11.2718 36.2338 10.8146C35.9965 10.3574 35.6623 9.99696 35.2315 9.73319C34.8007 9.46942 34.2951 9.33754 33.7149 9.33754C33.1434 9.33754 32.6422 9.46942 32.2114 9.73319C31.7806 9.99696 31.4421 10.3574 31.1959 10.8146C30.9497 11.2718 30.8266 11.795 30.8266 12.3841ZM28.8351 12.3841C28.8351 11.6807 28.9582 11.0388 29.2044 10.4586C29.4506 9.86947 29.7935 9.35952 30.2331 8.9287C30.6727 8.49787 31.1871 8.16816 31.7762 7.93957C32.374 7.70217 33.0203 7.58348 33.7149 7.58348C34.4182 7.58348 35.0645 7.70217 35.6536 7.93957C36.2426 8.16816 36.757 8.49787 37.1966 8.9287C37.645 9.35952 37.9879 9.86947 38.2253 10.4586C38.4715 11.0388 38.5946 11.6807 38.5946 12.3841C38.5946 13.0786 38.4715 13.7249 38.2253 14.3228C37.9879 14.9118 37.6494 15.4262 37.2098 15.8658C36.779 16.3054 36.2646 16.6483 35.6667 16.8945C35.0777 17.1319 34.427 17.2506 33.7149 17.2506C33.0027 17.2506 32.3477 17.1319 31.7498 16.8945C31.1607 16.6483 30.6464 16.3054 30.2067 15.8658C29.7671 15.4262 29.4286 14.9118 29.1912 14.3228C28.9538 13.7249 28.8351 13.0786 28.8351 12.3841ZM39.5459 9.46942V7.76812H46.5489L42.0253 15.3514H46.1401V17H39.0315L43.5024 9.46942H39.5459ZM47.9806 7.76812H49.8666V15.3514H53.5461V17H47.9806V7.76812ZM56.0752 17V15.4042H60.7307V17H56.0752ZM56.0752 9.36391V7.76812H60.7307V9.36391H56.0752ZM56.0752 12.8852V11.3158H60.4669V12.8852H56.0752ZM54.8619 7.76812H56.6819V17H54.8619V7.76812Z" fill="url(#paint0_linear_64525_24092)"/>
<path d="M10.6594 9.46942H10.5652C10.5652 9.52145 10.6074 9.56362 10.6594 9.56362V9.46942ZM10.6594 7.76812V7.67391C10.6074 7.67391 10.5652 7.71609 10.5652 7.76812H10.6594ZM17.6625 7.76812L17.7434 7.81638C17.7607 7.78727 17.7611 7.75107 17.7444 7.7216C17.7276 7.69212 17.6964 7.67391 17.6625 7.67391V7.76812ZM13.1388 15.3514L13.0579 15.3032C13.0406 15.3323 13.0402 15.3685 13.0569 15.398C13.0737 15.4274 13.1049 15.4457 13.1388 15.4457V15.3514ZM17.2536 15.3514H17.3478C17.3478 15.2994 17.3056 15.2572 17.2536 15.2572V15.3514ZM17.2536 17V17.0942C17.3056 17.0942 17.3478 17.052 17.3478 17H17.2536ZM10.1451 17L10.0641 16.9519C10.0468 16.981 10.0465 17.0172 10.0632 17.0466C10.08 17.076 10.1112 17.0942 10.1451 17.0942V17ZM14.6159 9.46942L14.6969 9.51751C14.7142 9.4884 14.7146 9.45224 14.6978 9.42282C14.6811 9.39339 14.6498 9.37522 14.6159 9.37522V9.46942ZM10.7536 9.46942V7.76812H10.5652V9.46942H10.7536ZM10.6594 7.86232H17.6625V7.67391H10.6594V7.86232ZM17.5816 7.71986L13.0579 15.3032L13.2197 15.3997L17.7434 7.81638L17.5816 7.71986ZM13.1388 15.4457H17.2536V15.2572H13.1388V15.4457ZM17.1594 15.3514V17H17.3478V15.3514H17.1594ZM17.2536 16.9058H10.1451V17.0942H17.2536V16.9058ZM10.2261 17.0481L14.6969 9.51751L14.5349 9.42133L10.0641 16.9519L10.2261 17.0481ZM14.6159 9.37522H10.6594V9.56362H14.6159V9.37522ZM20.2705 13.9535L20.1876 13.9981L20.2705 13.9535ZM21.2861 15.0349L21.3352 14.9546L21.2861 15.0349ZM24.293 15.0349L24.3422 15.1153L24.293 15.0349ZM25.2953 13.9535L25.2124 13.9088L25.2117 13.9101L25.2953 13.9535ZM25.3085 10.8146L25.2249 10.858L25.3085 10.8146ZM24.3062 9.73319L24.257 9.81353L24.3062 9.73319ZM21.2861 9.73319L21.3352 9.81353L21.2861 9.73319ZM20.2705 10.8146L20.3535 10.8593L20.2705 10.8146ZM18.2791 10.4586L18.3658 10.4953L18.366 10.4949L18.2791 10.4586ZM19.3078 8.9287L19.2419 8.86141L19.3078 8.9287ZM20.8508 7.93957L20.8849 8.02739L20.8856 8.02712L20.8508 7.93957ZM24.7282 7.93957L24.693 8.02695L24.6941 8.02739L24.7282 7.93957ZM26.2713 8.9287L26.2053 8.99598L26.206 8.99663L26.2713 8.9287ZM27.3 10.4586L27.2126 10.4938L27.2132 10.4953L27.3 10.4586ZM27.3 14.3228L27.2129 14.2869L27.2126 14.2875L27.3 14.3228ZM26.2845 15.8658L26.2178 15.7992L26.2172 15.7999L26.2845 15.8658ZM24.7414 16.8945L24.7766 16.9819L24.7773 16.9816L24.7414 16.8945ZM20.8245 16.8945L20.7881 16.9814L20.7897 16.982L20.8245 16.8945ZM19.2814 15.8658L19.2148 15.9324L19.2814 15.8658ZM18.2659 14.3228L18.1784 14.3575L18.1785 14.358L18.2659 14.3228ZM19.8071 12.3841C19.8071 12.9866 19.9331 13.5255 20.1876 13.9981L20.3535 13.9088C20.1156 13.4671 19.9955 12.9597 19.9955 12.3841H19.8071ZM20.1876 13.9981C20.4415 14.4696 20.7914 14.8426 21.2369 15.1153L21.3352 14.9546C20.919 14.6998 20.592 14.3518 20.3535 13.9088L20.1876 13.9981ZM21.2369 15.1153C21.6844 15.3892 22.203 15.5248 22.7895 15.5248V15.3364C22.2331 15.3364 21.7494 15.2081 21.3352 14.9546L21.2369 15.1153ZM22.7895 15.5248C23.3761 15.5248 23.8947 15.3892 24.3422 15.1153L24.2438 14.9546C23.8297 15.2081 23.346 15.3364 22.7895 15.3364V15.5248ZM24.3422 15.1153C24.7879 14.8424 25.1338 14.469 25.3789 13.9969L25.2117 13.9101C24.9821 14.3524 24.6597 14.7 24.2438 14.9546L24.3422 15.1153ZM25.3783 13.9981C25.6328 13.5255 25.7588 12.9866 25.7588 12.3841H25.5704C25.5704 12.9597 25.4502 13.4671 25.2124 13.9088L25.3783 13.9981ZM25.7588 12.3841C25.7588 11.782 25.6374 11.2436 25.3921 10.7712L25.2249 10.858C25.4544 11.3 25.5704 11.8079 25.5704 12.3841H25.7588ZM25.3921 10.7712C25.147 10.2991 24.8011 9.92575 24.3554 9.65285L24.257 9.81353C24.6729 10.0682 24.9953 10.4157 25.2249 10.858L25.3921 10.7712ZM24.3554 9.65285C23.9077 9.37873 23.3845 9.24333 22.7895 9.24333V9.43174C23.3551 9.43174 23.8431 9.56011 24.257 9.81353L24.3554 9.65285ZM22.7895 9.24333C22.203 9.24333 21.6844 9.37887 21.2369 9.65285L21.3352 9.81353C21.7494 9.55997 22.2331 9.43174 22.7895 9.43174V9.24333ZM21.2369 9.65285C20.7914 9.92557 20.4415 10.2985 20.1876 10.77L20.3535 10.8593C20.592 10.4163 20.919 10.0683 21.3352 9.81353L21.2369 9.65285ZM20.1876 10.77C19.9331 11.2427 19.8071 11.7815 19.8071 12.3841H19.9955C19.9955 11.8084 20.1156 11.301 20.3535 10.8593L20.1876 10.77ZM18.004 12.3841C18.004 11.6919 18.1251 11.0627 18.3658 10.4953L18.1924 10.4218C17.9407 11.015 17.8156 11.6695 17.8156 12.3841H18.004ZM18.366 10.4949C18.6075 9.91697 18.9434 9.41766 19.3737 8.99598L19.2419 8.86141C18.7929 9.30138 18.443 9.82197 18.1922 10.4222L18.366 10.4949ZM19.3737 8.99598C19.804 8.57433 20.3074 8.25149 20.8849 8.02739L20.8168 7.85174C20.2161 8.08483 19.6908 8.42142 19.2419 8.86141L19.3737 8.99598ZM20.8856 8.02712C21.4716 7.79446 22.1059 7.67768 22.7895 7.67768V7.48928C22.084 7.48928 21.4259 7.60989 20.8161 7.85201L20.8856 8.02712ZM22.7895 7.67768C23.4821 7.67768 24.1163 7.79452 24.693 8.02694L24.7634 7.85219C24.162 7.60983 23.5037 7.48928 22.7895 7.48928V7.67768ZM24.6941 8.02739C25.2717 8.25149 25.7751 8.57433 26.2053 8.99598L26.3372 8.86141C25.8882 8.42142 25.363 8.08483 24.7623 7.85174L24.6941 8.02739ZM26.206 8.99663C26.6446 9.41802 26.9801 9.91675 27.2126 10.4938L27.3873 10.4233C27.1451 9.82218 26.7947 9.30101 26.3365 8.86077L26.206 8.99663ZM27.2132 10.4953C27.4539 11.0627 27.575 11.6919 27.575 12.3841H27.7634C27.7634 11.6695 27.6383 11.015 27.3867 10.4218L27.2132 10.4953ZM27.575 12.3841C27.575 13.0673 27.454 13.7012 27.2129 14.2869L27.3871 14.3586C27.6383 13.7485 27.7634 13.09 27.7634 12.3841H27.575ZM27.2126 14.2875C26.9798 14.8651 26.6483 15.3687 26.2178 15.7992L26.3511 15.9324C26.7998 15.4836 27.1453 14.9585 27.3873 14.358L27.2126 14.2875ZM26.2172 15.7999C25.7957 16.2299 25.2922 16.5658 24.7055 16.8074L24.7773 16.9816C25.3863 16.7308 25.9115 16.3809 26.3517 15.9317L26.2172 15.7999ZM24.7062 16.8071C24.1296 17.0395 23.4911 17.1564 22.7895 17.1564V17.3448C23.5123 17.3448 24.1751 17.2243 24.7766 16.9819L24.7062 16.8071ZM22.7895 17.1564C22.088 17.1564 21.4449 17.0395 20.8592 16.8069L20.7897 16.982C21.3998 17.2243 22.0667 17.3448 22.7895 17.3448V17.1564ZM20.8608 16.8076C20.2827 16.566 19.7787 16.2299 19.348 15.7992L19.2148 15.9324C19.6633 16.3809 20.188 16.7306 20.7881 16.9814L20.8608 16.8076ZM19.348 15.7992C18.9176 15.3687 18.586 14.8651 18.3533 14.2875L18.1785 14.358C18.4206 14.9585 18.766 15.4836 19.2148 15.9324L19.348 15.7992ZM18.3535 14.288C18.1208 13.702 18.004 13.0677 18.004 12.3841H17.8156C17.8156 13.0896 17.9362 13.7477 18.1784 14.3575L18.3535 14.288ZM31.1959 13.9535L31.1129 13.9981L31.1959 13.9535ZM32.2114 15.0349L32.2606 14.9546L32.2114 15.0349ZM35.2183 15.0349L35.2675 15.1153L35.2183 15.0349ZM36.2207 13.9535L36.1377 13.9088L36.1371 13.9101L36.2207 13.9535ZM36.2338 10.8146L36.1502 10.858L36.2338 10.8146ZM35.2315 9.73319L35.1823 9.81353L35.2315 9.73319ZM32.2114 9.73319L32.2606 9.81353L32.2114 9.73319ZM31.1959 10.8146L31.2788 10.8593L31.1959 10.8146ZM29.2044 10.4586L29.2911 10.4953L29.2913 10.4949L29.2044 10.4586ZM30.2331 8.9287L30.1672 8.86141L30.2331 8.9287ZM31.7762 7.93957L31.8102 8.02739L31.8109 8.02712L31.7762 7.93957ZM35.6536 7.93957L35.6183 8.02695L35.6195 8.02739L35.6536 7.93957ZM37.1966 8.9287L37.1307 8.99598L37.1313 8.99663L37.1966 8.9287ZM38.2253 10.4586L38.1379 10.4938L38.1386 10.4953L38.2253 10.4586ZM38.2253 14.3228L38.1382 14.2869L38.1379 14.2875L38.2253 14.3228ZM37.2098 15.8658L37.1432 15.7992L37.1425 15.7999L37.2098 15.8658ZM35.6667 16.8945L35.702 16.9819L35.7026 16.9816L35.6667 16.8945ZM31.7498 16.8945L31.7135 16.9814L31.715 16.982L31.7498 16.8945ZM30.2067 15.8658L30.1401 15.9324L30.2067 15.8658ZM29.1912 14.3228L29.1037 14.3575L29.1039 14.358L29.1912 14.3228ZM30.7324 12.3841C30.7324 12.9866 30.8584 13.5255 31.1129 13.9981L31.2788 13.9088C31.041 13.4671 30.9208 12.9597 30.9208 12.3841H30.7324ZM31.1129 13.9981C31.3668 14.4696 31.7168 14.8426 32.1622 15.1153L32.2606 14.9546C31.8444 14.6998 31.5173 14.3518 31.2788 13.9088L31.1129 13.9981ZM32.1622 15.1153C32.6097 15.3892 33.1283 15.5248 33.7149 15.5248V15.3364C33.1584 15.3364 32.6747 15.2081 32.2606 14.9546L32.1622 15.1153ZM33.7149 15.5248C34.3014 15.5248 34.82 15.3892 35.2675 15.1153L35.1691 14.9546C34.755 15.2081 34.2713 15.3364 33.7149 15.3364V15.5248ZM35.2675 15.1153C35.7133 14.8424 36.0591 14.469 36.3043 13.9969L36.1371 13.9101C35.9074 14.3524 35.585 14.7 35.1691 14.9546L35.2675 15.1153ZM36.3036 13.9981C36.5581 13.5255 36.6841 12.9866 36.6841 12.3841H36.4957C36.4957 12.9597 36.3756 13.4671 36.1377 13.9088L36.3036 13.9981ZM36.6841 12.3841C36.6841 11.782 36.5627 11.2436 36.3174 10.7712L36.1502 10.858C36.3797 11.3 36.4957 11.8079 36.4957 12.3841H36.6841ZM36.3174 10.7712C36.0723 10.2991 35.7265 9.92575 35.2807 9.65285L35.1823 9.81353C35.5982 10.0682 35.9206 10.4157 36.1502 10.858L36.3174 10.7712ZM35.2807 9.65285C34.833 9.37873 34.3099 9.24333 33.7149 9.24333V9.43174C34.2804 9.43174 34.7684 9.56011 35.1823 9.81353L35.2807 9.65285ZM33.7149 9.24333C33.1283 9.24333 32.6097 9.37887 32.1622 9.65285L32.2606 9.81353C32.6747 9.55997 33.1584 9.43174 33.7149 9.43174V9.24333ZM32.1622 9.65285C31.7168 9.92557 31.3668 10.2985 31.1129 10.77L31.2788 10.8593C31.5173 10.4163 31.8444 10.0683 32.2606 9.81353L32.1622 9.65285ZM31.1129 10.77C30.8584 11.2427 30.7324 11.7815 30.7324 12.3841H30.9208C30.9208 11.8084 31.041 11.301 31.2788 10.8593L31.1129 10.77ZM28.9293 12.3841C28.9293 11.6919 29.0504 11.0627 29.2911 10.4953L29.1177 10.4218C28.866 11.015 28.7409 11.6695 28.7409 12.3841H28.9293ZM29.2913 10.4949C29.5329 9.91697 29.8688 9.41766 30.2991 8.99598L30.1672 8.86141C29.7182 9.30138 29.3684 9.82197 29.1175 10.4222L29.2913 10.4949ZM30.2991 8.99598C30.7293 8.57433 31.2327 8.25149 31.8102 8.02739L31.7421 7.85174C31.1414 8.08483 30.6162 8.42142 30.1672 8.86141L30.2991 8.99598ZM31.8109 8.02712C32.3969 7.79446 33.0312 7.67768 33.7149 7.67768V7.48928C33.0093 7.48928 32.3512 7.60989 31.7414 7.85201L31.8109 8.02712ZM33.7149 7.67768C34.4075 7.67768 35.0416 7.79452 35.6183 8.02694L35.6888 7.85219C35.0873 7.60983 34.429 7.48928 33.7149 7.48928V7.67768ZM35.6195 8.02739C36.197 8.25149 36.7004 8.57433 37.1307 8.99598L37.2625 8.86141C36.8136 8.42142 36.2883 8.08483 35.6876 7.85174L35.6195 8.02739ZM37.1313 8.99663C37.5699 9.41802 37.9054 9.91675 38.1379 10.4938L38.3127 10.4233C38.0704 9.82218 37.7201 9.30101 37.2619 8.86077L37.1313 8.99663ZM38.1386 10.4953C38.3793 11.0627 38.5004 11.6919 38.5004 12.3841H38.6888C38.6888 11.6695 38.5637 11.015 38.312 10.4218L38.1386 10.4953ZM38.5004 12.3841C38.5004 13.0673 38.3793 13.7012 38.1382 14.2869L38.3124 14.3586C38.5636 13.7485 38.6888 13.09 38.6888 12.3841H38.5004ZM38.1379 14.2875C37.9052 14.8651 37.5736 15.3687 37.1432 15.7992L37.2764 15.9324C37.7252 15.4836 38.0706 14.9585 38.3127 14.358L38.1379 14.2875ZM37.1425 15.7999C36.7211 16.2299 36.2176 16.5658 35.6309 16.8074L35.7026 16.9816C36.3117 16.7308 36.8369 16.3809 37.2771 15.9317L37.1425 15.7999ZM35.6315 16.8071C35.0549 17.0395 34.4164 17.1564 33.7149 17.1564V17.3448C34.4376 17.3448 35.1004 17.2243 35.702 16.9819L35.6315 16.8071ZM33.7149 17.1564C33.0133 17.1564 32.3702 17.0395 31.7845 16.8069L31.715 16.982C32.3251 17.2243 32.9921 17.3448 33.7149 17.3448V17.1564ZM31.7861 16.8076C31.208 16.566 30.7041 16.2299 30.2734 15.7992L30.1401 15.9324C30.5887 16.3809 31.1134 16.7306 31.7135 16.9814L31.7861 16.8076ZM30.2734 15.7992C29.8429 15.3687 29.5114 14.8651 29.2786 14.2875L29.1039 14.358C29.3459 14.9585 29.6914 15.4836 30.1401 15.9324L30.2734 15.7992ZM29.2788 14.288C29.0461 13.702 28.9293 13.0677 28.9293 12.3841H28.7409C28.7409 13.0896 28.8616 13.7477 29.1037 14.3575L29.2788 14.288ZM39.5459 9.46942H39.4517C39.4517 9.52145 39.4938 9.56362 39.5459 9.56362V9.46942ZM39.5459 7.76812V7.67391C39.4938 7.67391 39.4517 7.71609 39.4517 7.76812H39.5459ZM46.5489 7.76812L46.6298 7.81638C46.6472 7.78727 46.6475 7.75107 46.6308 7.7216C46.6141 7.69212 46.5828 7.67391 46.5489 7.67391V7.76812ZM42.0253 15.3514L41.9444 15.3032C41.927 15.3323 41.9266 15.3685 41.9434 15.398C41.9601 15.4274 41.9914 15.4457 42.0253 15.4457V15.3514ZM46.1401 15.3514H46.2343C46.2343 15.2994 46.1921 15.2572 46.1401 15.2572V15.3514ZM46.1401 17V17.0942C46.1921 17.0942 46.2343 17.052 46.2343 17H46.1401ZM39.0315 17L38.9505 16.9519C38.9332 16.981 38.9329 17.0172 38.9496 17.0466C38.9664 17.076 38.9976 17.0942 39.0315 17.0942V17ZM43.5024 9.46942L43.5834 9.51751C43.6007 9.4884 43.601 9.45224 43.5842 9.42282C43.5675 9.39339 43.5362 9.37522 43.5024 9.37522V9.46942ZM39.6401 9.46942V7.76812H39.4517V9.46942H39.6401ZM39.5459 7.86232H46.5489V7.67391H39.5459V7.86232ZM46.468 7.71986L41.9444 15.3032L42.1062 15.3997L46.6298 7.81638L46.468 7.71986ZM42.0253 15.4457H46.1401V15.2572H42.0253V15.4457ZM46.0459 15.3514V17H46.2343V15.3514H46.0459ZM46.1401 16.9058H39.0315V17.0942H46.1401V16.9058ZM39.1125 17.0481L43.5834 9.51751L43.4214 9.42133L38.9505 16.9519L39.1125 17.0481ZM43.5024 9.37522H39.5459V9.56362H43.5024V9.37522ZM47.9806 7.76812V7.67391C47.9286 7.67391 47.8864 7.71609 47.8864 7.76812H47.9806ZM49.8666 7.76812H49.9608C49.9608 7.71609 49.9186 7.67391 49.8666 7.67391V7.76812ZM49.8666 15.3514H49.7724C49.7724 15.4035 49.8145 15.4457 49.8666 15.4457V15.3514ZM53.5461 15.3514H53.6403C53.6403 15.2994 53.5982 15.2572 53.5461 15.2572V15.3514ZM53.5461 17V17.0942C53.5982 17.0942 53.6403 17.052 53.6403 17H53.5461ZM47.9806 17H47.8864C47.8864 17.052 47.9286 17.0942 47.9806 17.0942V17ZM47.9806 7.86232H49.8666V7.67391H47.9806V7.86232ZM49.7724 7.76812V15.3514H49.9608V7.76812H49.7724ZM49.8666 15.4457H53.5461V15.2572H49.8666V15.4457ZM53.4519 15.3514V17H53.6403V15.3514H53.4519ZM53.5461 16.9058H47.9806V17.0942H53.5461V16.9058ZM48.0748 17V7.76812H47.8864V17H48.0748ZM56.0752 17H55.981C55.981 17.052 56.0232 17.0942 56.0752 17.0942V17ZM56.0752 15.4042V15.31C56.0232 15.31 55.981 15.3522 55.981 15.4042H56.0752ZM60.7307 15.4042H60.8249C60.8249 15.3522 60.7827 15.31 60.7307 15.31V15.4042ZM60.7307 17V17.0942C60.7827 17.0942 60.8249 17.052 60.8249 17H60.7307ZM56.0752 9.36391H55.981C55.981 9.41594 56.0232 9.45812 56.0752 9.45812V9.36391ZM56.0752 7.76812V7.67391C56.0232 7.67391 55.981 7.71609 55.981 7.76812H56.0752ZM60.7307 7.76812H60.8249C60.8249 7.71609 60.7827 7.67391 60.7307 7.67391V7.76812ZM60.7307 9.36391V9.45812C60.7827 9.45812 60.8249 9.41594 60.8249 9.36391H60.7307ZM56.0752 12.8852H55.981C55.981 12.9372 56.0232 12.9794 56.0752 12.9794V12.8852ZM56.0752 11.3158V11.2216C56.0232 11.2216 55.981 11.2638 55.981 11.3158H56.0752ZM60.4669 11.3158H60.5611C60.5611 11.2638 60.519 11.2216 60.4669 11.2216V11.3158ZM60.4669 12.8852V12.9794C60.519 12.9794 60.5611 12.9372 60.5611 12.8852H60.4669ZM54.8619 7.76812V7.67391C54.8098 7.67391 54.7677 7.71609 54.7677 7.76812H54.8619ZM56.6819 7.76812H56.7761C56.7761 7.71609 56.7339 7.67391 56.6819 7.67391V7.76812ZM56.6819 17V17.0942C56.7339 17.0942 56.7761 17.052 56.7761 17H56.6819ZM54.8619 17H54.7677C54.7677 17.052 54.8098 17.0942 54.8619 17.0942V17ZM56.1694 17V15.4042H55.981V17H56.1694ZM56.0752 15.4984H60.7307V15.31H56.0752V15.4984ZM60.6365 15.4042V17H60.8249V15.4042H60.6365ZM60.7307 16.9058H56.0752V17.0942H60.7307V16.9058ZM56.1694 9.36391V7.76812H55.981V9.36391H56.1694ZM56.0752 7.86232H60.7307V7.67391H56.0752V7.86232ZM60.6365 7.76812V9.36391H60.8249V7.76812H60.6365ZM60.7307 9.26971H56.0752V9.45812H60.7307V9.26971ZM56.1694 12.8852V11.3158H55.981V12.8852H56.1694ZM56.0752 11.41H60.4669V11.2216H56.0752V11.41ZM60.3727 11.3158V12.8852H60.5611V11.3158H60.3727ZM60.4669 12.791H56.0752V12.9794H60.4669V12.791ZM54.8619 7.86232H56.6819V7.67391H54.8619V7.86232ZM56.5877 7.76812V17H56.7761V7.76812H56.5877ZM56.6819 16.9058H54.8619V17.0942H56.6819V16.9058ZM54.9561 17V7.76812H54.7677V17H54.9561Z" fill="url(#paint1_linear_64525_24092)" mask="url(#path-1-outside-1_64525_24092)"/>
<mask id="path-3-outside-2_64525_24092" maskUnits="userSpaceOnUse" x="9" y="21" width="54" height="6" fill="black">
<rect fill="white" x="9" y="21" width="54" height="6"/>
<path d="M10.5355 23.9822L10.2982 26H9.29207L9.93077 21.8457L11.6151 24.2591L13.3051 21.8457L13.9438 26H12.9377L12.7003 23.9822L11.6151 25.6326L10.5355 23.9822ZM16.9852 26V25.2143H18.9804V26H16.9852ZM16.9852 22.8291V22.0435H18.9804V22.8291H16.9852ZM16.9852 24.3043V23.5357H18.8673V24.3043H16.9852ZM16.3521 22.0435H17.2678V26H16.3521V22.0435ZM22.5752 23.9822L22.3378 26H21.3317L21.9704 21.8457L23.6547 24.2591L25.3447 21.8457L25.9834 26H24.9773L24.74 23.9822L23.6547 25.6326L22.5752 23.9822ZM29.1039 24.033V23.6148H29.7426C29.8519 23.6148 29.9442 23.5978 30.0196 23.5639C30.0987 23.53 30.159 23.4829 30.2004 23.4226C30.2419 23.3586 30.2626 23.2813 30.2626 23.1909C30.2626 23.0552 30.2174 22.9535 30.127 22.8857C30.0365 22.8178 29.9084 22.7839 29.7426 22.7839H29.347V25.2596H29.8331C29.9574 25.2596 30.0686 25.2445 30.1665 25.2143C30.2645 25.1804 30.3417 25.1277 30.3983 25.0561C30.4586 24.9807 30.4887 24.879 30.4887 24.7509C30.4887 24.668 30.4717 24.5964 30.4378 24.5361C30.4039 24.4758 30.3568 24.4268 30.2965 24.3891C30.2362 24.3514 30.1665 24.3251 30.0874 24.31C30.012 24.2912 29.9273 24.2817 29.8331 24.2817H29.1039V23.7617H29.9404C30.1326 23.7617 30.3191 23.7825 30.5 23.8239C30.6809 23.8654 30.8448 23.9332 30.9917 24.0274C31.1387 24.1178 31.2555 24.2346 31.3422 24.3778C31.4326 24.5172 31.4778 24.6868 31.4778 24.8865C31.4778 25.1503 31.4138 25.3632 31.2857 25.5252C31.1613 25.6872 30.9842 25.8078 30.7544 25.887C30.5245 25.9623 30.2532 26 29.9404 26H28.3917V22.0435H29.8444C30.1194 22.0435 30.3606 22.0812 30.5678 22.1565C30.7789 22.2281 30.9446 22.3393 31.0652 22.49C31.1896 22.637 31.2517 22.8235 31.2517 23.0496C31.2517 23.2568 31.1896 23.4339 31.0652 23.5809C30.9446 23.7278 30.7789 23.8409 30.5678 23.92C30.3606 23.9954 30.1194 24.033 29.8444 24.033H29.1039ZM34.5782 26V25.2143H36.5734V26H34.5782ZM34.5782 22.8291V22.0435H36.5734V22.8291H34.5782ZM34.5782 24.3043V23.5357H36.4604V24.3043H34.5782ZM33.9451 22.0435H34.8608V26H33.9451V22.0435ZM40.1399 24.2083H41.1291L42.3669 26H41.2478L40.1399 24.2083ZM39.1508 22.0435H40.106V26H39.1508V22.0435ZM39.7499 22.8517V22.0435H40.5921C40.9312 22.0435 41.2138 22.0981 41.4399 22.2074C41.666 22.3167 41.8375 22.4693 41.9543 22.6652C42.0711 22.8574 42.1295 23.0816 42.1295 23.3378C42.1295 23.5903 42.0711 23.8145 41.9543 24.0104C41.8375 24.2026 41.666 24.3533 41.4399 24.4626C41.2138 24.5719 40.9312 24.6265 40.5921 24.6265H39.7499V23.8861H40.5243C40.6524 23.8861 40.7617 23.8672 40.8521 23.8296C40.9463 23.7881 41.0179 23.7297 41.0669 23.6543C41.1159 23.5752 41.1404 23.481 41.1404 23.3717C41.1404 23.2625 41.1159 23.1701 41.0669 23.0948C41.0179 23.0157 40.9463 22.9554 40.8521 22.9139C40.7617 22.8725 40.6524 22.8517 40.5243 22.8517H39.7499ZM45.0456 24.6096C45.1247 24.7528 45.2133 24.8771 45.3112 24.9826C45.413 25.0881 45.5222 25.1691 45.6391 25.2257C45.7596 25.2822 45.8859 25.3104 46.0178 25.3104C46.1572 25.3104 46.2721 25.2765 46.3625 25.2087C46.453 25.1371 46.4982 25.041 46.4982 24.9204C46.4982 24.8187 46.4718 24.7377 46.4191 24.6774C46.3663 24.6133 46.2815 24.553 46.1647 24.4965C46.0479 24.44 45.8934 24.3759 45.7012 24.3043C45.607 24.2704 45.4978 24.2233 45.3734 24.163C45.2528 24.1028 45.1379 24.0255 45.0286 23.9313C44.9193 23.8333 44.8289 23.7165 44.7573 23.5809C44.6857 23.4414 44.6499 23.2738 44.6499 23.0778C44.6499 22.8442 44.7102 22.6426 44.8308 22.473C44.9551 22.3035 45.1209 22.1754 45.3282 22.0887C45.5392 21.9983 45.7728 21.953 46.0291 21.953C46.2928 21.953 46.5208 21.9964 46.713 22.083C46.9089 22.1697 47.0709 22.279 47.1991 22.4109C47.3272 22.5428 47.4251 22.6765 47.493 22.8122L46.7638 23.2191C46.7073 23.1249 46.6414 23.0439 46.566 22.9761C46.4944 22.9045 46.4134 22.8499 46.323 22.8122C46.2363 22.7707 46.1421 22.75 46.0404 22.75C45.9047 22.75 45.8011 22.7801 45.7295 22.8404C45.6579 22.897 45.6221 22.9686 45.6221 23.0552C45.6221 23.1457 45.656 23.2248 45.7238 23.2926C45.7954 23.3604 45.8953 23.4226 46.0234 23.4791C46.1553 23.5357 46.3136 23.5959 46.4982 23.66C46.6376 23.7128 46.7676 23.7749 46.8882 23.8465C47.0088 23.9143 47.1143 23.9972 47.2047 24.0952C47.2989 24.1932 47.3724 24.3062 47.4251 24.4343C47.4779 24.5625 47.5043 24.7094 47.5043 24.8752C47.5043 25.0749 47.4628 25.2539 47.3799 25.4122C47.3008 25.5667 47.1915 25.6967 47.0521 25.8022C46.9164 25.9077 46.7601 25.9868 46.583 26.0396C46.4096 26.0961 46.2307 26.1243 46.046 26.1243C45.7898 26.1243 45.5505 26.0791 45.3282 25.9887C45.1096 25.8945 44.9193 25.7683 44.7573 25.61C44.5953 25.4517 44.4691 25.2784 44.3786 25.09L45.0456 24.6096ZM50.2086 24.3439V23.4848H53.2043V24.3439H50.2086ZM52.5995 22.0435H53.5547V26H52.5995V22.0435ZM49.943 22.0435H50.8982V26H49.943V22.0435ZM56.1863 22.0435H57.1585V26H56.1863V22.0435ZM59.7968 22.0435H60.752V26H59.7968V22.0435ZM60.3959 22.8291V22.0435H61.1703C61.5056 22.0435 61.7864 22.0962 62.0124 22.2017C62.2423 22.3035 62.4156 22.4504 62.5324 22.6426C62.6493 22.8348 62.7077 23.0665 62.7077 23.3378C62.7077 23.6016 62.6493 23.8314 62.5324 24.0274C62.4156 24.2196 62.2423 24.3684 62.0124 24.4739C61.7864 24.5757 61.5056 24.6265 61.1703 24.6265H60.3959V23.8409H61.1703C61.3624 23.8409 61.5132 23.7975 61.6224 23.7109C61.7317 23.6242 61.7864 23.4999 61.7864 23.3378C61.7864 23.172 61.7317 23.0458 61.6224 22.9591C61.5132 22.8725 61.3624 22.8291 61.1703 22.8291H60.3959Z"/>
</mask>
<path d="M10.5355 23.9822L10.2982 26H9.29207L9.93077 21.8457L11.6151 24.2591L13.3051 21.8457L13.9438 26H12.9377L12.7003 23.9822L11.6151 25.6326L10.5355 23.9822ZM16.9852 26V25.2143H18.9804V26H16.9852ZM16.9852 22.8291V22.0435H18.9804V22.8291H16.9852ZM16.9852 24.3043V23.5357H18.8673V24.3043H16.9852ZM16.3521 22.0435H17.2678V26H16.3521V22.0435ZM22.5752 23.9822L22.3378 26H21.3317L21.9704 21.8457L23.6547 24.2591L25.3447 21.8457L25.9834 26H24.9773L24.74 23.9822L23.6547 25.6326L22.5752 23.9822ZM29.1039 24.033V23.6148H29.7426C29.8519 23.6148 29.9442 23.5978 30.0196 23.5639C30.0987 23.53 30.159 23.4829 30.2004 23.4226C30.2419 23.3586 30.2626 23.2813 30.2626 23.1909C30.2626 23.0552 30.2174 22.9535 30.127 22.8857C30.0365 22.8178 29.9084 22.7839 29.7426 22.7839H29.347V25.2596H29.8331C29.9574 25.2596 30.0686 25.2445 30.1665 25.2143C30.2645 25.1804 30.3417 25.1277 30.3983 25.0561C30.4586 24.9807 30.4887 24.879 30.4887 24.7509C30.4887 24.668 30.4717 24.5964 30.4378 24.5361C30.4039 24.4758 30.3568 24.4268 30.2965 24.3891C30.2362 24.3514 30.1665 24.3251 30.0874 24.31C30.012 24.2912 29.9273 24.2817 29.8331 24.2817H29.1039V23.7617H29.9404C30.1326 23.7617 30.3191 23.7825 30.5 23.8239C30.6809 23.8654 30.8448 23.9332 30.9917 24.0274C31.1387 24.1178 31.2555 24.2346 31.3422 24.3778C31.4326 24.5172 31.4778 24.6868 31.4778 24.8865C31.4778 25.1503 31.4138 25.3632 31.2857 25.5252C31.1613 25.6872 30.9842 25.8078 30.7544 25.887C30.5245 25.9623 30.2532 26 29.9404 26H28.3917V22.0435H29.8444C30.1194 22.0435 30.3606 22.0812 30.5678 22.1565C30.7789 22.2281 30.9446 22.3393 31.0652 22.49C31.1896 22.637 31.2517 22.8235 31.2517 23.0496C31.2517 23.2568 31.1896 23.4339 31.0652 23.5809C30.9446 23.7278 30.7789 23.8409 30.5678 23.92C30.3606 23.9954 30.1194 24.033 29.8444 24.033H29.1039ZM34.5782 26V25.2143H36.5734V26H34.5782ZM34.5782 22.8291V22.0435H36.5734V22.8291H34.5782ZM34.5782 24.3043V23.5357H36.4604V24.3043H34.5782ZM33.9451 22.0435H34.8608V26H33.9451V22.0435ZM40.1399 24.2083H41.1291L42.3669 26H41.2478L40.1399 24.2083ZM39.1508 22.0435H40.106V26H39.1508V22.0435ZM39.7499 22.8517V22.0435H40.5921C40.9312 22.0435 41.2138 22.0981 41.4399 22.2074C41.666 22.3167 41.8375 22.4693 41.9543 22.6652C42.0711 22.8574 42.1295 23.0816 42.1295 23.3378C42.1295 23.5903 42.0711 23.8145 41.9543 24.0104C41.8375 24.2026 41.666 24.3533 41.4399 24.4626C41.2138 24.5719 40.9312 24.6265 40.5921 24.6265H39.7499V23.8861H40.5243C40.6524 23.8861 40.7617 23.8672 40.8521 23.8296C40.9463 23.7881 41.0179 23.7297 41.0669 23.6543C41.1159 23.5752 41.1404 23.481 41.1404 23.3717C41.1404 23.2625 41.1159 23.1701 41.0669 23.0948C41.0179 23.0157 40.9463 22.9554 40.8521 22.9139C40.7617 22.8725 40.6524 22.8517 40.5243 22.8517H39.7499ZM45.0456 24.6096C45.1247 24.7528 45.2133 24.8771 45.3112 24.9826C45.413 25.0881 45.5222 25.1691 45.6391 25.2257C45.7596 25.2822 45.8859 25.3104 46.0178 25.3104C46.1572 25.3104 46.2721 25.2765 46.3625 25.2087C46.453 25.1371 46.4982 25.041 46.4982 24.9204C46.4982 24.8187 46.4718 24.7377 46.4191 24.6774C46.3663 24.6133 46.2815 24.553 46.1647 24.4965C46.0479 24.44 45.8934 24.3759 45.7012 24.3043C45.607 24.2704 45.4978 24.2233 45.3734 24.163C45.2528 24.1028 45.1379 24.0255 45.0286 23.9313C44.9193 23.8333 44.8289 23.7165 44.7573 23.5809C44.6857 23.4414 44.6499 23.2738 44.6499 23.0778C44.6499 22.8442 44.7102 22.6426 44.8308 22.473C44.9551 22.3035 45.1209 22.1754 45.3282 22.0887C45.5392 21.9983 45.7728 21.953 46.0291 21.953C46.2928 21.953 46.5208 21.9964 46.713 22.083C46.9089 22.1697 47.0709 22.279 47.1991 22.4109C47.3272 22.5428 47.4251 22.6765 47.493 22.8122L46.7638 23.2191C46.7073 23.1249 46.6414 23.0439 46.566 22.9761C46.4944 22.9045 46.4134 22.8499 46.323 22.8122C46.2363 22.7707 46.1421 22.75 46.0404 22.75C45.9047 22.75 45.8011 22.7801 45.7295 22.8404C45.6579 22.897 45.6221 22.9686 45.6221 23.0552C45.6221 23.1457 45.656 23.2248 45.7238 23.2926C45.7954 23.3604 45.8953 23.4226 46.0234 23.4791C46.1553 23.5357 46.3136 23.5959 46.4982 23.66C46.6376 23.7128 46.7676 23.7749 46.8882 23.8465C47.0088 23.9143 47.1143 23.9972 47.2047 24.0952C47.2989 24.1932 47.3724 24.3062 47.4251 24.4343C47.4779 24.5625 47.5043 24.7094 47.5043 24.8752C47.5043 25.0749 47.4628 25.2539 47.3799 25.4122C47.3008 25.5667 47.1915 25.6967 47.0521 25.8022C46.9164 25.9077 46.7601 25.9868 46.583 26.0396C46.4096 26.0961 46.2307 26.1243 46.046 26.1243C45.7898 26.1243 45.5505 26.0791 45.3282 25.9887C45.1096 25.8945 44.9193 25.7683 44.7573 25.61C44.5953 25.4517 44.4691 25.2784 44.3786 25.09L45.0456 24.6096ZM50.2086 24.3439V23.4848H53.2043V24.3439H50.2086ZM52.5995 22.0435H53.5547V26H52.5995V22.0435ZM49.943 22.0435H50.8982V26H49.943V22.0435ZM56.1863 22.0435H57.1585V26H56.1863V22.0435ZM59.7968 22.0435H60.752V26H59.7968V22.0435ZM60.3959 22.8291V22.0435H61.1703C61.5056 22.0435 61.7864 22.0962 62.0124 22.2017C62.2423 22.3035 62.4156 22.4504 62.5324 22.6426C62.6493 22.8348 62.7077 23.0665 62.7077 23.3378C62.7077 23.6016 62.6493 23.8314 62.5324 24.0274C62.4156 24.2196 62.2423 24.3684 62.0124 24.4739C61.7864 24.5757 61.5056 24.6265 61.1703 24.6265H60.3959V23.8409H61.1703C61.3624 23.8409 61.5132 23.7975 61.6224 23.7109C61.7317 23.6242 61.7864 23.4999 61.7864 23.3378C61.7864 23.172 61.7317 23.0458 61.6224 22.9591C61.5132 22.8725 61.3624 22.8291 61.1703 22.8291H60.3959Z" fill="url(#paint2_linear_64525_24092)"/>
<path d="M10.5355 23.9822L10.6144 23.9306C10.5927 23.8974 10.5526 23.8814 10.514 23.8905C10.4754 23.8996 10.4466 23.9318 10.442 23.9712L10.5355 23.9822ZM10.2982 26V26.0942C10.3459 26.0942 10.3861 26.0584 10.3917 26.011L10.2982 26ZM9.29207 26L9.19896 25.9857C9.19478 26.0128 9.20268 26.0405 9.22058 26.0613C9.23847 26.0822 9.26459 26.0942 9.29207 26.0942V26ZM9.93077 21.8457L10.008 21.7917C9.98598 21.7602 9.94694 21.7452 9.90944 21.7539C9.87193 21.7626 9.84351 21.7933 9.83766 21.8313L9.93077 21.8457ZM11.6151 24.2591L11.5379 24.313C11.5555 24.3383 11.5843 24.3533 11.615 24.3533C11.6458 24.3534 11.6746 24.3384 11.6923 24.3132L11.6151 24.2591ZM13.3051 21.8457L13.3982 21.8313C13.3924 21.7933 13.364 21.7627 13.3265 21.7539C13.289 21.7452 13.25 21.7601 13.2279 21.7916L13.3051 21.8457ZM13.9438 26V26.0942C13.9713 26.0942 13.9974 26.0822 14.0153 26.0613C14.0332 26.0405 14.0411 26.0128 14.0369 25.9857L13.9438 26ZM12.9377 26L12.8442 26.011C12.8497 26.0584 12.89 26.0942 12.9377 26.0942V26ZM12.7003 23.9822L12.7939 23.9712C12.7893 23.9318 12.7605 23.8996 12.722 23.8905C12.6835 23.8814 12.6434 23.8973 12.6216 23.9304L12.7003 23.9822ZM11.6151 25.6326L11.5363 25.6842C11.5537 25.7107 11.5833 25.7268 11.615 25.7268C11.6467 25.7268 11.6764 25.7109 11.6938 25.6844L11.6151 25.6326ZM10.442 23.9712L10.2046 25.989L10.3917 26.011L10.6291 23.9932L10.442 23.9712ZM10.2982 25.9058H9.29207V26.0942H10.2982V25.9058ZM9.38518 26.0143L10.0239 21.86L9.83766 21.8313L9.19896 25.9857L9.38518 26.0143ZM9.85351 21.8996L11.5379 24.313L11.6924 24.2052L10.008 21.7917L9.85351 21.8996ZM11.6923 24.3132L13.3823 21.8997L13.2279 21.7916L11.5379 24.2051L11.6923 24.3132ZM13.212 21.86L13.8507 26.0143L14.0369 25.9857L13.3982 21.8313L13.212 21.86ZM13.9438 25.9058H12.9377V26.0942H13.9438V25.9058ZM13.0313 25.989L12.7939 23.9712L12.6068 23.9932L12.8442 26.011L13.0313 25.989ZM12.6216 23.9304L11.5364 25.5809L11.6938 25.6844L12.779 24.0339L12.6216 23.9304ZM11.6939 25.581L10.6144 23.9306L10.4567 24.0337L11.5363 25.6842L11.6939 25.581ZM16.9852 26H16.891C16.891 26.052 16.9331 26.0942 16.9852 26.0942V26ZM16.9852 25.2143V25.1201C16.9331 25.1201 16.891 25.1623 16.891 25.2143H16.9852ZM18.9804 25.2143H19.0746C19.0746 25.1623 19.0324 25.1201 18.9804 25.1201V25.2143ZM18.9804 26V26.0942C19.0324 26.0942 19.0746 26.052 19.0746 26H18.9804ZM16.9852 22.8291H16.891C16.891 22.8812 16.9331 22.9233 16.9852 22.9233V22.8291ZM16.9852 22.0435V21.9493C16.9331 21.9493 16.891 21.9915 16.891 22.0435H16.9852ZM18.9804 22.0435H19.0746C19.0746 21.9915 19.0324 21.9493 18.9804 21.9493V22.0435ZM18.9804 22.8291V22.9233C19.0324 22.9233 19.0746 22.8812 19.0746 22.8291H18.9804ZM16.9852 24.3043H16.891C16.891 24.3564 16.9331 24.3986 16.9852 24.3986V24.3043ZM16.9852 23.5357V23.4414C16.9331 23.4414 16.891 23.4836 16.891 23.5357H16.9852ZM18.8673 23.5357H18.9615C18.9615 23.4836 18.9194 23.4414 18.8673 23.4414V23.5357ZM18.8673 24.3043V24.3986C18.9194 24.3986 18.9615 24.3564 18.9615 24.3043H18.8673ZM16.3521 22.0435V21.9493C16.3001 21.9493 16.2579 21.9915 16.2579 22.0435H16.3521ZM17.2678 22.0435H17.362C17.362 21.9915 17.3198 21.9493 17.2678 21.9493V22.0435ZM17.2678 26V26.0942C17.3198 26.0942 17.362 26.052 17.362 26H17.2678ZM16.3521 26H16.2579C16.2579 26.052 16.3001 26.0942 16.3521 26.0942V26ZM17.0794 26V25.2143H16.891V26H17.0794ZM16.9852 25.3086H18.9804V25.1201H16.9852V25.3086ZM18.8862 25.2143V26H19.0746V25.2143H18.8862ZM18.9804 25.9058H16.9852V26.0942H18.9804V25.9058ZM17.0794 22.8291V22.0435H16.891V22.8291H17.0794ZM16.9852 22.1377H18.9804V21.9493H16.9852V22.1377ZM18.8862 22.0435V22.8291H19.0746V22.0435H18.8862ZM18.9804 22.7349H16.9852V22.9233H18.9804V22.7349ZM17.0794 24.3043V23.5357H16.891V24.3043H17.0794ZM16.9852 23.6299H18.8673V23.4414H16.9852V23.6299ZM18.7731 23.5357V24.3043H18.9615V23.5357H18.7731ZM18.8673 24.2101H16.9852V24.3986H18.8673V24.2101ZM16.3521 22.1377H17.2678V21.9493H16.3521V22.1377ZM17.1736 22.0435V26H17.362V22.0435H17.1736ZM17.2678 25.9058H16.3521V26.0942H17.2678V25.9058ZM16.4463 26V22.0435H16.2579V26H16.4463ZM22.5752 23.9822L22.654 23.9306C22.6323 23.8974 22.5922 23.8814 22.5536 23.8905C22.515 23.8996 22.4862 23.9318 22.4816 23.9712L22.5752 23.9822ZM22.3378 26V26.0942C22.3855 26.0942 22.4258 26.0584 22.4313 26.011L22.3378 26ZM21.3317 26L21.2386 25.9857C21.2344 26.0128 21.2423 26.0405 21.2602 26.0613C21.2781 26.0822 21.3042 26.0942 21.3317 26.0942V26ZM21.9704 21.8457L22.0476 21.7917C22.0256 21.7602 21.9866 21.7452 21.9491 21.7539C21.9116 21.7626 21.8831 21.7933 21.8773 21.8313L21.9704 21.8457ZM23.6547 24.2591L23.5775 24.313C23.5951 24.3383 23.6239 24.3533 23.6547 24.3533C23.6854 24.3534 23.7143 24.3384 23.7319 24.3132L23.6547 24.2591ZM25.3447 21.8457L25.4378 21.8313C25.432 21.7933 25.4036 21.7627 25.3661 21.7539C25.3287 21.7452 25.2896 21.7601 25.2676 21.7916L25.3447 21.8457ZM25.9834 26V26.0942C26.0109 26.0942 26.037 26.0822 26.0549 26.0613C26.0728 26.0405 26.0807 26.0128 26.0765 25.9857L25.9834 26ZM24.9773 26L24.8838 26.011C24.8894 26.0584 24.9296 26.0942 24.9773 26.0942V26ZM24.74 23.9822L24.8335 23.9712C24.8289 23.9318 24.8002 23.8996 24.7616 23.8905C24.7231 23.8814 24.683 23.8973 24.6612 23.9304L24.74 23.9822ZM23.6547 25.6326L23.5759 25.6842C23.5933 25.7107 23.6229 25.7268 23.6546 25.7268C23.6864 25.7268 23.716 25.7109 23.7334 25.6844L23.6547 25.6326ZM22.4816 23.9712L22.2442 25.989L22.4313 26.011L22.6687 23.9932L22.4816 23.9712ZM22.3378 25.9058H21.3317V26.0942H22.3378V25.9058ZM21.4248 26.0143L22.0635 21.86L21.8773 21.8313L21.2386 25.9857L21.4248 26.0143ZM21.8931 21.8996L23.5775 24.313L23.732 24.2052L22.0476 21.7917L21.8931 21.8996ZM23.7319 24.3132L25.4219 21.8997L25.2676 21.7916L23.5776 24.2051L23.7319 24.3132ZM25.2516 21.86L25.8903 26.0143L26.0765 25.9857L25.4378 21.8313L25.2516 21.86ZM25.9834 25.9058H24.9773V26.0942H25.9834V25.9058ZM25.0709 25.989L24.8335 23.9712L24.6464 23.9932L24.8838 26.011L25.0709 25.989ZM24.6612 23.9304L23.576 25.5809L23.7334 25.6844L24.8187 24.0339L24.6612 23.9304ZM23.7336 25.581L22.654 23.9306L22.4963 24.0337L23.5759 25.6842L23.7336 25.581ZM29.1039 24.033H29.0097C29.0097 24.0851 29.0519 24.1272 29.1039 24.1272V24.033ZM29.1039 23.6148V23.5206C29.0519 23.5206 29.0097 23.5628 29.0097 23.6148H29.1039ZM30.0196 23.5639L29.9825 23.4773L29.9809 23.478L30.0196 23.5639ZM30.2004 23.4226L30.2781 23.476L30.2795 23.4738L30.2004 23.4226ZM30.127 22.8857L30.0704 22.961L30.127 22.8857ZM29.347 22.7839V22.6897C29.2949 22.6897 29.2528 22.7319 29.2528 22.7839H29.347ZM29.347 25.2596H29.2528C29.2528 25.3116 29.2949 25.3538 29.347 25.3538V25.2596ZM30.1665 25.2143L30.1943 25.3044L30.1973 25.3034L30.1665 25.2143ZM30.3983 25.0561L30.3247 24.9972L30.3243 24.9977L30.3983 25.0561ZM30.4378 24.5361L30.3557 24.5823L30.4378 24.5361ZM30.2965 24.3891L30.3465 24.3092L30.2965 24.3891ZM30.0874 24.31L30.0645 24.4015L30.0698 24.4025L30.0874 24.31ZM29.1039 24.2817H29.0097C29.0097 24.3338 29.0519 24.3759 29.1039 24.3759V24.2817ZM29.1039 23.7617V23.6675C29.0519 23.6675 29.0097 23.7097 29.0097 23.7617H29.1039ZM30.9917 24.0274L30.9409 24.1067L30.9424 24.1076L30.9917 24.0274ZM31.3422 24.3778L31.2616 24.4266L31.2632 24.4291L31.3422 24.3778ZM31.2857 25.5252L31.2118 25.4668L31.2109 25.4679L31.2857 25.5252ZM30.7544 25.887L30.7837 25.9765L30.785 25.976L30.7544 25.887ZM28.3917 26H28.2975C28.2975 26.052 28.3397 26.0942 28.3917 26.0942V26ZM28.3917 22.0435V21.9493C28.3397 21.9493 28.2975 21.9915 28.2975 22.0435H28.3917ZM30.5678 22.1565L30.5356 22.2451L30.5376 22.2457L30.5678 22.1565ZM31.0652 22.49L30.9916 22.5489L30.9933 22.5508L31.0652 22.49ZM31.0652 23.5809L30.9933 23.52L30.9924 23.5211L31.0652 23.5809ZM30.5678 23.92L30.6 24.0085L30.6009 24.0082L30.5678 23.92ZM29.1981 24.033V23.6148H29.0097V24.033H29.1981ZM29.1039 23.709H29.7426V23.5206H29.1039V23.709ZM29.7426 23.709C29.8611 23.709 29.9675 23.6907 30.0582 23.6498L29.9809 23.478C29.921 23.505 29.8427 23.5206 29.7426 23.5206V23.709ZM30.0567 23.6505C30.1493 23.6108 30.2249 23.5534 30.2781 23.476L30.1228 23.3692C30.0931 23.4124 30.0482 23.4492 29.9825 23.4773L30.0567 23.6505ZM30.2795 23.4738C30.3326 23.3918 30.3568 23.296 30.3568 23.1909H30.1684C30.1684 23.2666 30.1512 23.3253 30.1214 23.3714L30.2795 23.4738ZM30.3568 23.1909C30.3568 23.0322 30.3025 22.8996 30.1835 22.8103L30.0704 22.961C30.1323 23.0074 30.1684 23.0782 30.1684 23.1909H30.3568ZM30.1835 22.8103C30.0707 22.7257 29.9197 22.6897 29.7426 22.6897V22.8781C29.8972 22.8781 30.0024 22.9099 30.0704 22.961L30.1835 22.8103ZM29.7426 22.6897H29.347V22.8781H29.7426V22.6897ZM29.2528 22.7839V25.2596H29.4412V22.7839H29.2528ZM29.347 25.3538H29.8331V25.1654H29.347V25.3538ZM29.8331 25.3538C29.9649 25.3538 30.0856 25.3378 30.1942 25.3044L30.1388 25.1243C30.0515 25.1512 29.9499 25.1654 29.8331 25.1654V25.3538ZM30.1973 25.3034C30.3099 25.2644 30.4031 25.202 30.4722 25.1145L30.3243 24.9977C30.2804 25.0533 30.2191 25.0965 30.1357 25.1253L30.1973 25.3034ZM30.4718 25.1149C30.5493 25.0181 30.5829 24.8934 30.5829 24.7509H30.3945C30.3945 24.8646 30.3678 24.9433 30.3247 24.9972L30.4718 25.1149ZM30.5829 24.7509C30.5829 24.655 30.5632 24.5668 30.5199 24.4899L30.3557 24.5823C30.3803 24.6259 30.3945 24.6809 30.3945 24.7509H30.5829ZM30.5199 24.4899C30.4781 24.4155 30.4197 24.355 30.3465 24.3092L30.2466 24.469C30.2939 24.4986 30.3298 24.5361 30.3557 24.5823L30.5199 24.4899ZM30.3465 24.3092C30.2751 24.2646 30.1941 24.2344 30.105 24.2175L30.0698 24.4025C30.139 24.4157 30.1974 24.4383 30.2466 24.469L30.3465 24.3092ZM30.1102 24.2186C30.026 24.1976 29.9334 24.1875 29.8331 24.1875V24.3759C29.9211 24.3759 29.998 24.3848 30.0646 24.4014L30.1102 24.2186ZM29.8331 24.1875H29.1039V24.3759H29.8331V24.1875ZM29.1981 24.2817V23.7617H29.0097V24.2817H29.1981ZM29.1039 23.8559H29.9404V23.6675H29.1039V23.8559ZM29.9404 23.8559C30.1258 23.8559 30.3052 23.8759 30.479 23.9157L30.5211 23.7321C30.333 23.689 30.1394 23.6675 29.9404 23.6675V23.8559ZM30.479 23.9157C30.6499 23.9549 30.8037 24.0187 30.9409 24.1067L31.0426 23.9481C30.8859 23.8477 30.7118 23.7758 30.5211 23.7321L30.479 23.9157ZM30.9424 24.1076C31.077 24.1905 31.1829 24.2966 31.2616 24.4266L31.4228 24.329C31.3281 24.1726 31.2004 24.0452 31.0411 23.9472L30.9424 24.1076ZM31.2632 24.4291C31.3418 24.5504 31.3836 24.7013 31.3836 24.8865H31.572C31.572 24.6723 31.5234 24.4841 31.4212 24.3266L31.2632 24.4291ZM31.3836 24.8865C31.3836 25.135 31.3235 25.3255 31.2118 25.4668L31.3596 25.5836C31.5041 25.4008 31.572 25.1655 31.572 24.8865H31.3836ZM31.2109 25.4679C31.0998 25.6126 30.9394 25.7236 30.7237 25.7979L30.785 25.976C31.029 25.892 31.2228 25.7619 31.3604 25.5826L31.2109 25.4679ZM30.725 25.7974C30.5069 25.8689 30.246 25.9058 29.9404 25.9058V26.0942C30.2604 26.0942 30.5421 26.0557 30.7837 25.9765L30.725 25.7974ZM29.9404 25.9058H28.3917V26.0942H29.9404V25.9058ZM28.486 26V22.0435H28.2975V26H28.486ZM28.3917 22.1377H29.8444V21.9493H28.3917V22.1377ZM29.8444 22.1377C30.1111 22.1377 30.3409 22.1742 30.5356 22.2451L30.6 22.068C30.3803 21.9881 30.1278 21.9493 29.8444 21.9493V22.1377ZM30.5376 22.2457C30.7342 22.3125 30.884 22.4142 30.9917 22.5488L31.1388 22.4312C31.0053 22.2643 30.8235 22.1438 30.5981 22.0673L30.5376 22.2457ZM30.9933 22.5508C31.1008 22.6779 31.1575 22.8417 31.1575 23.0496H31.346C31.346 22.8053 31.2783 22.596 31.1371 22.4291L30.9933 22.5508ZM31.1575 23.0496C31.1575 23.2364 31.1021 23.3914 30.9933 23.52L31.1371 23.6417C31.277 23.4764 31.346 23.2773 31.346 23.0496H31.1575ZM30.9924 23.5211C30.8841 23.6531 30.7331 23.7574 30.5348 23.8318L30.6009 24.0082C30.8246 23.9243 31.0052 23.8026 31.1381 23.6406L30.9924 23.5211ZM30.5356 23.8315C30.3409 23.9023 30.1111 23.9388 29.8444 23.9388V24.1272C30.1278 24.1272 30.3803 24.0884 30.6 24.0085L30.5356 23.8315ZM29.8444 23.9388H29.1039V24.1272H29.8444V23.9388ZM34.5782 26H34.484C34.484 26.052 34.5262 26.0942 34.5782 26.0942V26ZM34.5782 25.2143V25.1201C34.5262 25.1201 34.484 25.1623 34.484 25.2143H34.5782ZM36.5734 25.2143H36.6676C36.6676 25.1623 36.6254 25.1201 36.5734 25.1201V25.2143ZM36.5734 26V26.0942C36.6254 26.0942 36.6676 26.052 36.6676 26H36.5734ZM34.5782 22.8291H34.484C34.484 22.8812 34.5262 22.9233 34.5782 22.9233V22.8291ZM34.5782 22.0435V21.9493C34.5262 21.9493 34.484 21.9915 34.484 22.0435H34.5782ZM36.5734 22.0435H36.6676C36.6676 21.9915 36.6254 21.9493 36.5734 21.9493V22.0435ZM36.5734 22.8291V22.9233C36.6254 22.9233 36.6676 22.8812 36.6676 22.8291H36.5734ZM34.5782 24.3043H34.484C34.484 24.3564 34.5262 24.3986 34.5782 24.3986V24.3043ZM34.5782 23.5357V23.4414C34.5262 23.4414 34.484 23.4836 34.484 23.5357H34.5782ZM36.4604 23.5357H36.5546C36.5546 23.4836 36.5124 23.4414 36.4604 23.4414V23.5357ZM36.4604 24.3043V24.3986C36.5124 24.3986 36.5546 24.3564 36.5546 24.3043H36.4604ZM33.9451 22.0435V21.9493C33.8931 21.9493 33.8509 21.9915 33.8509 22.0435H33.9451ZM34.8608 22.0435H34.955C34.955 21.9915 34.9128 21.9493 34.8608 21.9493V22.0435ZM34.8608 26V26.0942C34.9128 26.0942 34.955 26.052 34.955 26H34.8608ZM33.9451 26H33.8509C33.8509 26.052 33.8931 26.0942 33.9451 26.0942V26ZM34.6724 26V25.2143H34.484V26H34.6724ZM34.5782 25.3086H36.5734V25.1201H34.5782V25.3086ZM36.4792 25.2143V26H36.6676V25.2143H36.4792ZM36.5734 25.9058H34.5782V26.0942H36.5734V25.9058ZM34.6724 22.8291V22.0435H34.484V22.8291H34.6724ZM34.5782 22.1377H36.5734V21.9493H34.5782V22.1377ZM36.4792 22.0435V22.8291H36.6676V22.0435H36.4792ZM36.5734 22.7349H34.5782V22.9233H36.5734V22.7349ZM34.6724 24.3043V23.5357H34.484V24.3043H34.6724ZM34.5782 23.6299H36.4604V23.4414H34.5782V23.6299ZM36.3662 23.5357V24.3043H36.5546V23.5357H36.3662ZM36.4604 24.2101H34.5782V24.3986H36.4604V24.2101ZM33.9451 22.1377H34.8608V21.9493H33.9451V22.1377ZM34.7666 22.0435V26H34.955V22.0435H34.7666ZM34.8608 25.9058H33.9451V26.0942H34.8608V25.9058ZM34.0393 26V22.0435H33.8509V26H34.0393ZM40.1399 24.2083V24.1141C40.1058 24.1141 40.0743 24.1326 40.0576 24.1624C40.041 24.1922 40.0418 24.2287 40.0598 24.2578L40.1399 24.2083ZM41.1291 24.2083L41.2066 24.1547C41.189 24.1293 41.16 24.1141 41.1291 24.1141V24.2083ZM42.3669 26V26.0942C42.4019 26.0942 42.434 26.0748 42.4503 26.0438C42.4666 26.0127 42.4643 25.9753 42.4444 25.9465L42.3669 26ZM41.2478 26L41.1676 26.0495C41.1848 26.0773 41.2151 26.0942 41.2478 26.0942V26ZM39.1508 22.0435V21.9493C39.0988 21.9493 39.0566 21.9915 39.0566 22.0435H39.1508ZM40.106 22.0435H40.2002C40.2002 21.9915 40.158 21.9493 40.106 21.9493V22.0435ZM40.106 26V26.0942C40.158 26.0942 40.2002 26.052 40.2002 26H40.106ZM39.1508 26H39.0566C39.0566 26.052 39.0988 26.0942 39.1508 26.0942V26ZM39.7499 22.8517H39.6557C39.6557 22.9038 39.6979 22.9459 39.7499 22.9459V22.8517ZM39.7499 22.0435V21.9493C39.6979 21.9493 39.6557 21.9915 39.6557 22.0435H39.7499ZM41.4399 22.2074L41.3989 22.2922L41.4399 22.2074ZM41.9543 22.6652L41.8734 22.7135L41.8738 22.7141L41.9543 22.6652ZM41.9543 24.0104L42.0348 24.0594L42.0352 24.0587L41.9543 24.0104ZM41.4399 24.4626L41.4809 24.5474L41.4399 24.4626ZM39.7499 24.6265H39.6557C39.6557 24.6785 39.6979 24.7207 39.7499 24.7207V24.6265ZM39.7499 23.8861V23.7919C39.6979 23.7919 39.6557 23.8341 39.6557 23.8861H39.7499ZM40.8521 23.8296L40.8883 23.9165L40.89 23.9158L40.8521 23.8296ZM41.0669 23.6543L41.1459 23.7057L41.147 23.7039L41.0669 23.6543ZM41.0669 23.0948L40.9868 23.1444L40.9879 23.1461L41.0669 23.0948ZM40.8521 22.9139L40.8129 22.9996L40.8142 23.0001L40.8521 22.9139ZM40.1399 24.3025H41.1291V24.1141H40.1399V24.3025ZM41.0516 24.2618L42.2894 26.0535L42.4444 25.9465L41.2066 24.1547L41.0516 24.2618ZM42.3669 25.9058H41.2478V26.0942H42.3669V25.9058ZM41.3279 25.9505L40.2201 24.1587L40.0598 24.2578L41.1676 26.0495L41.3279 25.9505ZM39.1508 22.1377H40.106V21.9493H39.1508V22.1377ZM40.0118 22.0435V26H40.2002V22.0435H40.0118ZM40.106 25.9058H39.1508V26.0942H40.106V25.9058ZM39.245 26V22.0435H39.0566V26H39.245ZM39.8441 22.8517V22.0435H39.6557V22.8517H39.8441ZM39.7499 22.1377H40.5921V21.9493H39.7499V22.1377ZM40.5921 22.1377C40.9218 22.1377 41.1893 22.1909 41.3989 22.2922L41.4809 22.1226C41.2384 22.0054 40.9407 21.9493 40.5921 21.9493V22.1377ZM41.3989 22.2922C41.6102 22.3943 41.7669 22.5349 41.8734 22.7135L42.0352 22.617C41.908 22.4036 41.7219 22.239 41.4809 22.1226L41.3989 22.2922ZM41.8738 22.7141C41.9804 22.8896 42.0353 23.0964 42.0353 23.3378H42.2237C42.2237 23.0668 42.1618 22.8252 42.0348 22.6163L41.8738 22.7141ZM42.0353 23.3378C42.0353 23.5752 41.9806 23.7824 41.8734 23.9622L42.0352 24.0587C42.1616 23.8466 42.2237 23.6054 42.2237 23.3378H42.0353ZM41.8738 23.9615C41.7675 24.1364 41.6106 24.2755 41.3989 24.3778L41.4809 24.5474C41.7214 24.4312 41.9075 24.2688 42.0348 24.0594L41.8738 23.9615ZM41.3989 24.3778C41.1893 24.4791 40.9218 24.5323 40.5921 24.5323V24.7207C40.9407 24.7207 41.2384 24.6646 41.4809 24.5474L41.3989 24.3778ZM40.5921 24.5323H39.7499V24.7207H40.5921V24.5323ZM39.8441 24.6265V23.8861H39.6557V24.6265H39.8441ZM39.7499 23.9803H40.5243V23.7919H39.7499V23.9803ZM40.5243 23.9803C40.6612 23.9803 40.7835 23.9602 40.8883 23.9165L40.8159 23.7426C40.7399 23.7743 40.6436 23.7919 40.5243 23.7919V23.9803ZM40.89 23.9158C40.9985 23.8681 41.0855 23.7986 41.1459 23.7057L40.9879 23.603C40.9503 23.6609 40.8941 23.7082 40.8142 23.7433L40.89 23.9158ZM41.147 23.7039C41.2067 23.6075 41.2346 23.4954 41.2346 23.3717H41.0462C41.0462 23.4666 41.0251 23.543 40.9868 23.6048L41.147 23.7039ZM41.2346 23.3717C41.2346 23.2482 41.2067 23.1371 41.1459 23.0434L40.9879 23.1461C41.025 23.2032 41.0462 23.2767 41.0462 23.3717H41.2346ZM41.147 23.0452C41.0869 22.9482 40.9998 22.876 40.89 22.8277L40.8142 23.0001C40.8929 23.0348 40.9489 23.0831 40.9868 23.1444L41.147 23.0452ZM40.8914 22.8283C40.7856 22.7798 40.6622 22.7575 40.5243 22.7575V22.9459C40.6426 22.9459 40.7377 22.9651 40.8129 22.9995L40.8914 22.8283ZM40.5243 22.7575H39.7499V22.9459H40.5243V22.7575ZM45.0456 24.6096L45.128 24.564C45.115 24.5404 45.0925 24.5236 45.0662 24.5176C45.0399 24.5117 45.0124 24.5174 44.9905 24.5331L45.0456 24.6096ZM45.3112 24.9826L45.2422 25.0467L45.2434 25.048L45.3112 24.9826ZM45.6391 25.2257L45.598 25.3105L45.5991 25.3109L45.6391 25.2257ZM46.3625 25.2087L46.4191 25.2841L46.421 25.2826L46.3625 25.2087ZM46.4191 24.6774L46.3463 24.7373L46.3482 24.7394L46.4191 24.6774ZM46.1647 24.4965L46.1237 24.5813L46.1647 24.4965ZM45.7012 24.3043L45.7341 24.2161L45.7331 24.2157L45.7012 24.3043ZM45.3734 24.163L45.3313 24.2473L45.3323 24.2478L45.3734 24.163ZM45.0286 23.9313L44.9657 24.0015L44.9671 24.0027L45.0286 23.9313ZM44.7573 23.5809L44.6735 23.6239L44.674 23.6248L44.7573 23.5809ZM44.8308 22.473L44.7548 22.4173L44.754 22.4185L44.8308 22.473ZM45.3282 22.0887L45.3645 22.1756L45.3653 22.1753L45.3282 22.0887ZM46.713 22.083L46.6742 22.1689L46.6749 22.1692L46.713 22.083ZM47.1991 22.4109L47.1315 22.4765L47.1991 22.4109ZM47.493 22.8122L47.5389 22.8944C47.5829 22.8699 47.5998 22.8151 47.5772 22.77L47.493 22.8122ZM46.7638 23.2191L46.6831 23.2676C46.7092 23.3112 46.7653 23.3262 46.8097 23.3014L46.7638 23.2191ZM46.566 22.9761L46.4993 23.0428L46.503 23.0461L46.566 22.9761ZM46.323 22.8122L46.2823 22.8973L46.2867 22.8991L46.323 22.8122ZM45.7295 22.8404L45.7879 22.9144L45.7902 22.9125L45.7295 22.8404ZM45.7238 23.2926L45.6572 23.3592L45.6591 23.361L45.7238 23.2926ZM46.0234 23.4791L45.9854 23.5653L45.9863 23.5657L46.0234 23.4791ZM46.4982 23.66L46.5315 23.5719L46.5291 23.571L46.4982 23.66ZM46.8882 23.8465L46.8401 23.9275L46.842 23.9286L46.8882 23.8465ZM47.2047 24.0952L47.1355 24.1591L47.1368 24.1605L47.2047 24.0952ZM47.4251 24.4343L47.338 24.4702L47.4251 24.4343ZM47.3799 25.4122L47.2965 25.3685L47.2961 25.3692L47.3799 25.4122ZM47.0521 25.8022L46.9953 25.727L46.9943 25.7278L47.0521 25.8022ZM46.583 26.0396L46.5561 25.9493L46.5538 25.95L46.583 26.0396ZM45.3282 25.9887L45.2909 26.0752L45.2927 26.076L45.3282 25.9887ZM44.7573 25.61L44.6915 25.6774L44.7573 25.61ZM44.3786 25.09L44.3236 25.0136C44.2865 25.0402 44.2739 25.0896 44.2937 25.1308L44.3786 25.09ZM44.9631 24.6551C45.0455 24.8041 45.1384 24.9349 45.2422 25.0467L45.3803 24.9185C45.2882 24.8193 45.2039 24.7014 45.128 24.564L44.9631 24.6551ZM45.2434 25.048C45.3519 25.1605 45.47 25.2485 45.598 25.3104L45.6801 25.1409C45.5745 25.0898 45.4741 25.0158 45.379 24.9172L45.2434 25.048ZM45.5991 25.3109C45.732 25.3733 45.8719 25.4046 46.0178 25.4046V25.2162C45.8998 25.2162 45.7872 25.1911 45.679 25.1404L45.5991 25.3109ZM46.0178 25.4046C46.1727 25.4046 46.3088 25.3667 46.4191 25.2841L46.306 25.1333C46.2354 25.1863 46.1416 25.2162 46.0178 25.2162V25.4046ZM46.421 25.2826C46.5352 25.1922 46.5924 25.0683 46.5924 24.9204H46.404C46.404 25.0137 46.3708 25.082 46.3041 25.1348L46.421 25.2826ZM46.5924 24.9204C46.5924 24.8022 46.5614 24.6971 46.49 24.6154L46.3482 24.7394C46.3822 24.7783 46.404 24.8352 46.404 24.9204H46.5924ZM46.4918 24.6175C46.4269 24.5387 46.3286 24.4712 46.2057 24.4117L46.1237 24.5813C46.2344 24.6349 46.3057 24.688 46.3463 24.7373L46.4918 24.6175ZM46.2057 24.4117C46.0852 24.3534 45.9277 24.2882 45.7341 24.2161L45.6683 24.3926C45.8591 24.4637 46.0106 24.5266 46.1237 24.5813L46.2057 24.4117ZM45.7331 24.2157C45.643 24.1833 45.5369 24.1376 45.4145 24.0783L45.3323 24.2478C45.4586 24.309 45.5711 24.3576 45.6693 24.393L45.7331 24.2157ZM45.4155 24.0788C45.3024 24.0222 45.1939 23.9494 45.0901 23.86L44.9671 24.0027C45.0819 24.1016 45.2033 24.1833 45.3313 24.2473L45.4155 24.0788ZM45.0915 23.8612C44.9909 23.771 44.9073 23.6631 44.8406 23.5369L44.674 23.6248C44.7506 23.7699 44.8478 23.8957 44.9657 24.0014L45.0915 23.8612ZM44.8411 23.5378C44.7779 23.4146 44.7441 23.2625 44.7441 23.0778H44.5557C44.5557 23.2851 44.5936 23.4682 44.6735 23.6239L44.8411 23.5378ZM44.7441 23.0778C44.7441 22.8613 44.7997 22.6793 44.9076 22.5276L44.754 22.4185C44.6207 22.6059 44.5557 22.8271 44.5557 23.0778H44.7441ZM44.9068 22.5288C45.0203 22.3739 45.172 22.2561 45.3645 22.1756L45.2918 22.0018C45.0699 22.0946 44.89 22.233 44.7548 22.4173L44.9068 22.5288ZM45.3653 22.1753C45.5633 22.0904 45.7841 22.0472 46.0291 22.0472V21.8588C45.7616 21.8588 45.5151 21.9061 45.2911 22.0021L45.3653 22.1753ZM46.0291 22.0472C46.2827 22.0472 46.4969 22.0889 46.6742 22.1689L46.7517 21.9972C46.5447 21.9038 46.3029 21.8588 46.0291 21.8588V22.0472ZM46.6749 22.1692C46.8616 22.2518 47.0131 22.3546 47.1315 22.4765L47.2666 22.3452C47.1288 22.2034 46.9563 22.0876 46.7511 21.9969L46.6749 22.1692ZM47.1315 22.4765C47.2542 22.6029 47.346 22.7289 47.4087 22.8543L47.5772 22.77C47.5043 22.6241 47.4001 22.4826 47.2666 22.3452L47.1315 22.4765ZM47.4471 22.7299L46.7179 23.1369L46.8097 23.3014L47.5389 22.8944L47.4471 22.7299ZM46.8446 23.1707C46.7837 23.0691 46.7119 22.9807 46.629 22.9061L46.503 23.0461C46.5708 23.1072 46.631 23.1808 46.6831 23.2676L46.8446 23.1707ZM46.6326 22.9095C46.5526 22.8295 46.4614 22.7678 46.3592 22.7252L46.2867 22.8991C46.3654 22.9319 46.4362 22.9795 46.4994 23.0427L46.6326 22.9095ZM46.3636 22.7272C46.2635 22.6793 46.1553 22.6558 46.0404 22.6558V22.8442C46.1289 22.8442 46.2091 22.8621 46.2823 22.8972L46.3636 22.7272ZM46.0404 22.6558C45.8923 22.6558 45.7636 22.6886 45.6688 22.7684L45.7902 22.9125C45.8386 22.8717 45.9172 22.8442 46.0404 22.8442V22.6558ZM45.6711 22.7665C45.5783 22.8398 45.5279 22.938 45.5279 23.0552H45.7163C45.7163 22.9991 45.7375 22.9541 45.7879 22.9144L45.6711 22.7665ZM45.5279 23.0552C45.5279 23.1723 45.5729 23.2749 45.6572 23.3592L45.7905 23.226C45.7391 23.1746 45.7163 23.119 45.7163 23.0552H45.5279ZM45.6591 23.361C45.741 23.4386 45.8512 23.5061 45.9854 23.5653L46.0614 23.3929C45.9394 23.3391 45.8498 23.2822 45.7886 23.2242L45.6591 23.361ZM45.9863 23.5657C46.1208 23.6234 46.2813 23.6845 46.4673 23.749L46.5291 23.571C46.3458 23.5074 46.1898 23.4479 46.0605 23.3925L45.9863 23.5657ZM46.4649 23.7481C46.5995 23.799 46.7245 23.8589 46.8401 23.9275L46.9363 23.7655C46.8107 23.691 46.6757 23.6265 46.5315 23.5719L46.4649 23.7481ZM46.842 23.9286C46.9543 23.9918 47.052 24.0686 47.1355 24.1591L47.2739 24.0313C47.1766 23.9258 47.0632 23.8369 46.9344 23.7644L46.842 23.9286ZM47.1368 24.1605C47.2227 24.2498 47.2897 24.3528 47.338 24.4702L47.5123 24.3985C47.4551 24.2597 47.3752 24.1366 47.2726 24.0299L47.1368 24.1605ZM47.338 24.4702C47.3853 24.585 47.4101 24.7194 47.4101 24.8752H47.5985C47.5985 24.6995 47.5705 24.54 47.5123 24.3985L47.338 24.4702ZM47.4101 24.8752C47.4101 25.0615 47.3715 25.2252 47.2965 25.3685L47.4634 25.4559C47.5541 25.2826 47.5985 25.0883 47.5985 24.8752H47.4101ZM47.2961 25.3692C47.2235 25.511 47.1235 25.63 46.9953 25.7271L47.1089 25.8773C47.2596 25.7633 47.3781 25.6223 47.4638 25.4551L47.2961 25.3692ZM46.9943 25.7278C46.8685 25.8256 46.7228 25.8996 46.5561 25.9493L46.6099 26.1298C46.7973 26.074 46.9644 25.9897 47.1099 25.8765L46.9943 25.7278ZM46.5538 25.95C46.39 26.0034 46.2209 26.0301 46.046 26.0301V26.2186C46.2404 26.2186 46.4293 26.1888 46.6122 26.1291L46.5538 25.95ZM46.046 26.0301C45.8011 26.0301 45.574 25.987 45.3637 25.9014L45.2927 26.076C45.527 26.1713 45.7784 26.2186 46.046 26.2186V26.0301ZM45.3655 25.9022C45.157 25.8123 44.9765 25.6924 44.8231 25.5426L44.6915 25.6774C44.8622 25.8441 45.0623 25.9767 45.2909 26.0752L45.3655 25.9022ZM44.8231 25.5426C44.6683 25.3914 44.5488 25.2269 44.4635 25.0492L44.2937 25.1308C44.3893 25.3299 44.5223 25.5121 44.6915 25.6774L44.8231 25.5426ZM44.4337 25.1664L45.1006 24.686L44.9905 24.5331L44.3236 25.0136L44.4337 25.1664ZM50.2086 24.3439H50.1144C50.1144 24.3959 50.1566 24.4381 50.2086 24.4381V24.3439ZM50.2086 23.4848V23.3906C50.1566 23.3906 50.1144 23.4328 50.1144 23.4848H50.2086ZM53.2043 23.4848H53.2985C53.2985 23.4328 53.2563 23.3906 53.2043 23.3906V23.4848ZM53.2043 24.3439V24.4381C53.2563 24.4381 53.2985 24.3959 53.2985 24.3439H53.2043ZM52.5995 22.0435V21.9493C52.5475 21.9493 52.5053 21.9915 52.5053 22.0435H52.5995ZM53.5547 22.0435H53.6489C53.6489 21.9915 53.6067 21.9493 53.5547 21.9493V22.0435ZM53.5547 26V26.0942C53.6067 26.0942 53.6489 26.052 53.6489 26H53.5547ZM52.5995 26H52.5053C52.5053 26.052 52.5475 26.0942 52.5995 26.0942V26ZM49.943 22.0435V21.9493C49.8909 21.9493 49.8488 21.9915 49.8488 22.0435H49.943ZM50.8982 22.0435H50.9924C50.9924 21.9915 50.9502 21.9493 50.8982 21.9493V22.0435ZM50.8982 26V26.0942C50.9502 26.0942 50.9924 26.052 50.9924 26H50.8982ZM49.943 26H49.8488C49.8488 26.052 49.8909 26.0942 49.943 26.0942V26ZM50.3028 24.3439V23.4848H50.1144V24.3439H50.3028ZM50.2086 23.579H53.2043V23.3906H50.2086V23.579ZM53.1101 23.4848V24.3439H53.2985V23.4848H53.1101ZM53.2043 24.2497H50.2086V24.4381H53.2043V24.2497ZM52.5995 22.1377H53.5547V21.9493H52.5995V22.1377ZM53.4605 22.0435V26H53.6489V22.0435H53.4605ZM53.5547 25.9058H52.5995V26.0942H53.5547V25.9058ZM52.6937 26V22.0435H52.5053V26H52.6937ZM49.943 22.1377H50.8982V21.9493H49.943V22.1377ZM50.804 22.0435V26H50.9924V22.0435H50.804ZM50.8982 25.9058H49.943V26.0942H50.8982V25.9058ZM50.0372 26V22.0435H49.8488V26H50.0372ZM56.1863 22.0435V21.9493C56.1343 21.9493 56.0921 21.9915 56.0921 22.0435H56.1863ZM57.1585 22.0435H57.2527C57.2527 21.9915 57.2105 21.9493 57.1585 21.9493V22.0435ZM57.1585 26V26.0942C57.2105 26.0942 57.2527 26.052 57.2527 26H57.1585ZM56.1863 26H56.0921C56.0921 26.052 56.1343 26.0942 56.1863 26.0942V26ZM56.1863 22.1377H57.1585V21.9493H56.1863V22.1377ZM57.0643 22.0435V26H57.2527V22.0435H57.0643ZM57.1585 25.9058H56.1863V26.0942H57.1585V25.9058ZM56.2805 26V22.0435H56.0921V26H56.2805ZM59.7968 22.0435V21.9493C59.7448 21.9493 59.7026 21.9915 59.7026 22.0435H59.7968ZM60.752 22.0435H60.8462C60.8462 21.9915 60.804 21.9493 60.752 21.9493V22.0435ZM60.752 26V26.0942C60.804 26.0942 60.8462 26.052 60.8462 26H60.752ZM59.7968 26H59.7026C59.7026 26.052 59.7448 26.0942 59.7968 26.0942V26ZM60.3959 22.8291H60.3017C60.3017 22.8812 60.3439 22.9233 60.3959 22.9233V22.8291ZM60.3959 22.0435V21.9493C60.3439 21.9493 60.3017 21.9915 60.3017 22.0435H60.3959ZM62.0124 22.2017L61.9726 22.2871L61.9743 22.2879L62.0124 22.2017ZM62.5324 24.0274L62.6129 24.0763L62.6134 24.0756L62.5324 24.0274ZM62.0124 24.4739L62.0511 24.5598L62.0517 24.5595L62.0124 24.4739ZM60.3959 24.6265H60.3017C60.3017 24.6785 60.3439 24.7207 60.3959 24.7207V24.6265ZM60.3959 23.8409V23.7467C60.3439 23.7467 60.3017 23.7888 60.3017 23.8409H60.3959ZM61.6224 23.7109L61.5639 23.6371L61.6224 23.7109ZM61.6224 22.9591L61.5639 23.0329L61.6224 22.9591ZM59.7968 22.1377H60.752V21.9493H59.7968V22.1377ZM60.6578 22.0435V26H60.8462V22.0435H60.6578ZM60.752 25.9058H59.7968V26.0942H60.752V25.9058ZM59.891 26V22.0435H59.7026V26H59.891ZM60.4901 22.8291V22.0435H60.3017V22.8291H60.4901ZM60.3959 22.1377H61.1703V21.9493H60.3959V22.1377ZM61.1703 22.1377C61.4964 22.1377 61.7625 22.1891 61.9726 22.2871L62.0523 22.1164C61.8102 22.0034 61.5149 21.9493 61.1703 21.9493V22.1377ZM61.9743 22.2879C62.1887 22.3828 62.3463 22.5177 62.4519 22.6915L62.6129 22.5937C62.485 22.3832 62.2959 22.2242 62.0506 22.1156L61.9743 22.2879ZM62.4519 22.6915C62.5581 22.8662 62.6135 23.0802 62.6135 23.3378H62.8019C62.8019 23.0528 62.7404 22.8034 62.6129 22.5937L62.4519 22.6915ZM62.6135 23.3378C62.6135 23.5873 62.5584 23.8 62.4515 23.9792L62.6134 24.0756C62.7402 23.8629 62.8019 23.6159 62.8019 23.3378H62.6135ZM62.4519 23.9785C62.3461 24.1526 62.1881 24.2896 61.9731 24.3883L62.0517 24.5595C62.2965 24.4472 62.4852 24.2865 62.6129 24.0763L62.4519 23.9785ZM61.9738 24.388C61.7633 24.4827 61.4967 24.5323 61.1703 24.5323V24.7207C61.5145 24.7207 61.8094 24.6686 62.0511 24.5598L61.9738 24.388ZM61.1703 24.5323H60.3959V24.7207H61.1703V24.5323ZM60.4901 24.6265V23.8409H60.3017V24.6265H60.4901ZM60.3959 23.9351H61.1703V23.7467H60.3959V23.9351ZM61.1703 23.9351C61.3758 23.9351 61.5498 23.8888 61.681 23.7847L61.5639 23.6371C61.4766 23.7063 61.3491 23.7467 61.1703 23.7467V23.9351ZM61.681 23.7847C61.8166 23.6771 61.8806 23.5234 61.8806 23.3378H61.6922C61.6922 23.4763 61.6469 23.5713 61.5639 23.6371L61.681 23.7847ZM61.8806 23.3378C61.8806 23.1493 61.8171 22.9933 61.681 22.8853L61.5639 23.0329C61.6463 23.0983 61.6922 23.1947 61.6922 23.3378H61.8806ZM61.681 22.8853C61.5498 22.7812 61.3758 22.7349 61.1703 22.7349V22.9233C61.3491 22.9233 61.4766 22.9637 61.5639 23.0329L61.681 22.8853ZM61.1703 22.7349H60.3959V22.9233H61.1703V22.7349Z" fill="url(#paint3_linear_64525_24092)" mask="url(#path-3-outside-2_64525_24092)"/>
<path d="M9 19L62 19" stroke="url(#paint4_linear_64525_24092)" stroke-width="0.188406" stroke-linecap="round"/>
<path d="M9 28L62 28" stroke="url(#paint5_linear_64525_24092)" stroke-width="0.188406" stroke-linecap="round"/>
</g>
<defs>
<filter id="filter0_dd_64525_24092" x="0.0658901" y="0.799417" width="71.1524" height="35.0713" filterUnits="userSpaceOnUse" color-interpolation-filters="sRGB">
<feFlood flood-opacity="0" result="BackgroundImageFix"/>
<feColorMatrix in="SourceAlpha" type="matrix" values="0 0 0 0 0 0 0 0 0 0 0 0 0 0 0 0 0 0 127 0" result="hardAlpha"/>
<feMorphology radius="0.733527" operator="dilate" in="SourceAlpha" result="effect1_dropShadow_64525_24092"/>
<feOffset dy="0.733527"/>
<feGaussianBlur stdDeviation="1.10029"/>
<feColorMatrix type="matrix" values="0 0 0 0 0 0 0 0 0 0 0 0 0 0 0 0 0 0 0.15 0"/>
<feBlend mode="normal" in2="BackgroundImageFix" result="effect1_dropShadow_64525_24092"/>
<feColorMatrix in="SourceAlpha" type="matrix" values="0 0 0 0 0 0 0 0 0 0 0 0 0 0 0 0 0 0 127 0" result="hardAlpha"/>
<feOffset dy="0.733527"/>
<feGaussianBlur stdDeviation="0.733527"/>
<feColorMatrix type="matrix" values="0 0 0 0 0 0 0 0 0 0 0 0 0 0 0 0 0 0 0.3 0"/>
<feBlend mode="normal" in2="effect1_dropShadow_64525_24092" result="effect2_dropShadow_64525_24092"/>
<feBlend mode="normal" in="SourceGraphic" in2="effect2_dropShadow_64525_24092" result="shape"/>
</filter>
<linearGradient id="paint0_linear_64525_24092" x1="11.56" y1="13.0938" x2="61.4813" y2="12.6383" gradientUnits="userSpaceOnUse">
<stop stop-color="#B57F12"/>
<stop offset="0.347487" stop-color="#E2BF59"/>
<stop offset="0.751919" stop-color="#FEF2A0"/>
<stop offset="1" stop-color="#CA9A2E"/>
</linearGradient>
<linearGradient id="paint1_linear_64525_24092" x1="10" y1="7.30469" x2="61.6633" y2="12.0851" gradientUnits="userSpaceOnUse">
<stop stop-color="#E9DB9A"/>
<stop offset="0.4375" stop-color="#846E22"/>
<stop offset="1" stop-color="#FFE993"/>
</linearGradient>
<linearGradient id="paint2_linear_64525_24092" x1="10.62" y1="24.5" x2="62.4591" y2="23.9168" gradientUnits="userSpaceOnUse">
<stop stop-color="#B57F12"/>
<stop offset="0.347487" stop-color="#E2BF59"/>
<stop offset="0.751919" stop-color="#FEF2A0"/>
<stop offset="1" stop-color="#CA9A2E"/>
</linearGradient>
<linearGradient id="paint3_linear_64525_24092" x1="9" y1="19.625" x2="62.4143" y2="25.7199" gradientUnits="userSpaceOnUse">
<stop stop-color="#E9DB9A"/>
<stop offset="0.4375" stop-color="#846E22"/>
<stop offset="1" stop-color="#FFE993"/>
</linearGradient>
<linearGradient id="paint4_linear_64525_24092" x1="10.59" y1="19.5312" x2="59.9354" y2="10.8135" gradientUnits="userSpaceOnUse">
<stop stop-color="#B57F12"/>
<stop offset="0.347487" stop-color="#E2BF59"/>
<stop offset="0.751919" stop-color="#FEF2A0"/>
<stop offset="1" stop-color="#CA9A2E"/>
</linearGradient>
<linearGradient id="paint5_linear_64525_24092" x1="10.59" y1="28.5312" x2="59.9354" y2="19.8135" gradientUnits="userSpaceOnUse">
<stop stop-color="#B57F12"/>
<stop offset="0.347487" stop-color="#E2BF59"/>
<stop offset="0.751919" stop-color="#FEF2A0"/>
<stop offset="1" stop-color="#CA9A2E"/>
</linearGradient>
</defs>
</svg>
