<svg width="135" height="32" viewBox="0 0 135 32" fill="none" xmlns="http://www.w3.org/2000/svg">
<g clip-path="url(#clip0_64612_25908)">
<path d="M0.0708008 31.1803V26.524L12.3828 11.9729L13.6788 14.5089H0.354301V8.64693H19.9158V13.2617L7.5633 27.8543L6.2673 25.2767H20.3208V31.1803H0.0708008ZM34.4879 31.5545C32.0849 31.5545 29.9519 31.0556 28.0889 30.0578C26.2259 29.06 24.7544 27.688 23.6744 25.9419C22.6214 24.1681 22.0949 22.1448 22.0949 19.872C22.0949 17.5993 22.6214 15.5899 23.6744 13.8437C24.7544 12.0976 26.2259 10.7395 28.0889 9.76944C29.9519 8.77165 32.0849 8.27276 34.4879 8.27276C36.8909 8.27276 39.0239 8.77165 40.8869 9.76944C42.7768 10.7395 44.2483 12.0976 45.3013 13.8437C46.3543 15.5899 46.8808 17.5993 46.8808 19.872C46.8808 22.1448 46.3543 24.1681 45.3013 25.9419C44.2483 27.688 42.7768 29.06 40.8869 30.0578C39.0239 31.0556 36.8909 31.5545 34.4879 31.5545ZM34.4879 25.2767C35.3789 25.2767 36.1619 25.0688 36.8369 24.6531C37.5389 24.2374 38.0924 23.6276 38.4974 22.8238C38.9024 21.9923 39.1049 21.0084 39.1049 19.872C39.1049 18.7357 38.9024 17.7795 38.4974 17.0034C38.0924 16.1996 37.5389 15.5899 36.8369 15.1741C36.1619 14.7584 35.3789 14.5505 34.4879 14.5505C33.6239 14.5505 32.8409 14.7584 32.1389 15.1741C31.4639 15.5899 30.9104 16.1996 30.4784 17.0034C30.0734 17.7795 29.8709 18.7357 29.8709 19.872C29.8709 21.0084 30.0734 21.9923 30.4784 22.8238C30.9104 23.6276 31.4639 24.2374 32.1389 24.6531C32.8409 25.0688 33.6239 25.2767 34.4879 25.2767ZM61.4616 31.5545C59.0586 31.5545 56.9256 31.0556 55.0626 30.0578C53.1996 29.06 51.7281 27.688 50.6481 25.9419C49.5951 24.1681 49.0686 22.1448 49.0686 19.872C49.0686 17.5993 49.5951 15.5899 50.6481 13.8437C51.7281 12.0976 53.1996 10.7395 55.0626 9.76944C56.9256 8.77165 59.0586 8.27276 61.4616 8.27276C63.8646 8.27276 65.9976 8.77165 67.8606 9.76944C69.7506 10.7395 71.2221 12.0976 72.2751 13.8437C73.3281 15.5899 73.8546 17.5993 73.8546 19.872C73.8546 22.1448 73.3281 24.1681 72.2751 25.9419C71.2221 27.688 69.7506 29.06 67.8606 30.0578C65.9976 31.0556 63.8646 31.5545 61.4616 31.5545ZM61.4616 25.2767C62.3526 25.2767 63.1356 25.0688 63.8106 24.6531C64.5126 24.2374 65.0661 23.6276 65.4711 22.8238C65.8761 21.9923 66.0786 21.0084 66.0786 19.872C66.0786 18.7357 65.8761 17.7795 65.4711 17.0034C65.0661 16.1996 64.5126 15.5899 63.8106 15.1741C63.1356 14.7584 62.3526 14.5505 61.4616 14.5505C60.5976 14.5505 59.8146 14.7584 59.1126 15.1741C58.4376 15.5899 57.8841 16.1996 57.4521 17.0034C57.0471 17.7795 56.8446 18.7357 56.8446 19.872C56.8446 21.0084 57.0471 21.9923 57.4521 22.8238C57.8841 23.6276 58.4376 24.2374 59.1126 24.6531C59.8146 25.0688 60.5976 25.2767 61.4616 25.2767ZM76.048 31.1803V26.524L88.36 11.9729L89.656 14.5089H76.3315V8.64693H95.893V13.2617L83.5405 27.8543L82.2445 25.2767H96.298V31.1803H76.048ZM99.6865 31.1803V0.332031H107.381V31.1803H99.6865ZM123.884 31.5545C121.292 31.5545 119.024 31.0556 117.08 30.0578C115.163 29.0323 113.664 27.6465 112.584 25.9003C111.531 24.1265 111.005 22.1171 111.005 19.872C111.005 17.627 111.518 15.6314 112.544 13.8853C113.597 12.1115 115.041 10.7395 116.877 9.76944C118.713 8.77165 120.779 8.27276 123.074 8.27276C125.234 8.27276 127.205 8.73008 128.987 9.64471C130.769 10.5316 132.186 11.8482 133.239 13.5943C134.292 15.3404 134.819 17.4607 134.819 19.9552C134.819 20.2323 134.805 20.5511 134.778 20.9114C134.751 21.2717 134.724 21.6043 134.697 21.9092H117.323V17.7517H130.607L127.691 18.9158C127.718 17.8903 127.529 17.0034 127.124 16.2551C126.746 15.5067 126.206 14.9247 125.504 14.5089C124.829 14.0932 124.032 13.8853 123.114 13.8853C122.196 13.8853 121.386 14.0932 120.684 14.5089C120.009 14.9247 119.483 15.5206 119.105 16.2966C118.727 17.045 118.538 17.9319 118.538 18.9574V20.1631C118.538 21.2717 118.754 22.2279 119.186 23.0317C119.645 23.8355 120.293 24.4591 121.13 24.9025C121.967 25.3183 122.966 25.5262 124.127 25.5262C125.207 25.5262 126.125 25.3737 126.881 25.0688C127.664 24.7362 128.433 24.2374 129.189 23.5722L133.239 27.8959C132.186 29.0877 130.89 30.0023 129.351 30.6398C127.812 31.2496 125.99 31.5545 123.884 31.5545Z" fill="#03168C"/>
</g>
<defs>
<clipPath id="clip0_64612_25908">
<rect width="135" height="31.6139" fill="white"/>
</clipPath>
</defs>
</svg>
